<?xml version="1.0" encoding="UTF-8" standalone="no"?>
<!-- Created with Inkscape (http://www.inkscape.org/) -->

<svg
   width="210mm"
   height="297mm"
   viewBox="0 0 210 297"
   version="1.1"
   id="svg5"
   inkscape:version="1.1.1 (3bf5ae0d25, 2021-09-20)"
   sodipodi:docname="Les-9 Bezier Tool and Nodes.svg"
   xmlns:inkscape="http://www.inkscape.org/namespaces/inkscape"
   xmlns:sodipodi="http://sodipodi.sourceforge.net/DTD/sodipodi-0.dtd"
   xmlns="http://www.w3.org/2000/svg"
   xmlns:svg="http://www.w3.org/2000/svg">
  <sodipodi:namedview
     id="namedview7"
     pagecolor="#ffffff"
     bordercolor="#666666"
     borderopacity="1.0"
     inkscape:pageshadow="2"
     inkscape:pageopacity="0.0"
     inkscape:pagecheckerboard="0"
     inkscape:document-units="mm"
     showgrid="false"
     inkscape:zoom="1"
     inkscape:cx="402.5"
     inkscape:cy="371.5"
     inkscape:window-width="1366"
     inkscape:window-height="715"
     inkscape:window-x="-8"
     inkscape:window-y="-8"
     inkscape:window-maximized="1"
     inkscape:current-layer="layer1" />
  <defs
     id="defs2">
    <inkscape:path-effect
       effect="powerstroke"
       id="path-effect3242"
       is_visible="true"
       lpeversion="1"
       offset_points="0,4.99214"
       not_jump="false"
       sort_points="true"
       interpolator_type="Linear"
       interpolator_beta="0.2"
       start_linecap_type="zerowidth"
       linejoin_type="extrp_arc"
       miter_limit="4"
       scale_width="1"
       end_linecap_type="zerowidth" />
    <inkscape:path-effect
       effect="bspline"
       id="path-effect3238"
       is_visible="true"
       lpeversion="1"
       weight="33.333333"
       steps="2"
       helper_size="0"
       apply_no_weight="true"
       apply_with_weight="true"
       only_selected="false" />
    <inkscape:path-effect
       effect="spiro"
       id="path-effect3234"
       is_visible="true"
       lpeversion="1" />
  </defs>
  <g
     inkscape:label="Layer 1"
     inkscape:groupmode="layer"
     id="layer1">
    <path
       style="opacity:1;fill:none;stroke:#ff00ff;stroke-width:4.323;stroke-linecap:butt;stroke-linejoin:miter;stroke-opacity:1"
       d="M 24.615202,89.064938 C 37.964751,53.838511 97.466295,74.644639 117.14479,60.586837 136.8233,46.529035 249.61363,111.06678 145.54656,21.530895"
       id="path42"
       inkscape:transform-center-x="0.26458333"
       inkscape:transform-center-y="0.52916667"
       sodipodi:nodetypes="ccc" />
    <path
       style="fill:#ffff00;stroke:#0000ff;stroke-width:4;stroke-linecap:butt;stroke-linejoin:miter;stroke-opacity:1"
       d="m 28.575,169.33333 c 61.750556,-29.17482 74.99079,-67.31116 40.216665,-45.50833 28.561422,20.12318 60.552775,35.3957 96.837495,10.58333 l 1.32292,24.87083 c 6.35,40.74583 -18.78541,23.28333 -46.30208,25.92917 2.39048,-3.0684 -35.582837,14.85497 -34.131251,15.875 -40.71271,8.70916 -86.59672483,16.66552 -57.943749,-31.75 z"
       id="path2053"
       sodipodi:nodetypes="ccccccc" />
    <path
       style="fill:none;stroke:#000000;stroke-width:0.264583px;stroke-linecap:butt;stroke-linejoin:miter;stroke-opacity:1"
       d="m 18.25625,255.32291 c -2.206183,-6.34852 -1.954733,-13.55644 0.887193,-19.64696 2.841926,-6.09052 8.287992,-10.95804 14.723223,-12.89679 4.786065,-1.44191 10.05042,-1.26447 14.715329,0.53112 4.664909,1.79559 8.697746,5.20393 11.213838,9.52305 2.753961,4.72745 3.648812,10.47277 2.636733,15.84946 -1.012079,5.37668 -3.891698,10.35548 -7.9284,14.04846 -3.8118,3.48722 -8.642738,5.84221 -13.73401,6.71942 -5.091272,0.87721 -10.425293,0.27661 -15.202767,-1.68968 -4.777473,-1.96629 -8.984476,-5.28945 -12.022132,-9.46835 -3.037656,-4.1789 -4.8992749,-9.19963 -5.3431738,-14.34681 -0.385707,-4.47243 0.2947814,-9.04011 2.0225638,-13.18332 1.727782,-4.1432 4.504969,-7.85173 8.031603,-10.62918 4.231642,-3.33269 9.488387,-5.2814 14.850888,-5.78852 5.362501,-0.50713 10.82017,0.39776 15.840778,2.34894 7.333594,2.85008 13.829025,8.02888 17.802097,14.82 3.973072,6.79111 5.291158,15.19416 3.099986,22.75083 -1.586792,5.47235 -4.972675,10.40537 -9.50257,13.86147 -4.529896,3.4561 -10.178738,5.41822 -15.875517,5.52444 -5.696779,0.10623 -11.41189,-1.64238 -16.079718,-4.90979 -4.667828,-3.26741 -8.26562,-8.03574 -10.135944,-13.41779 z"
       id="path3232"
       inkscape:path-effect="#path-effect3234"
       inkscape:original-d="m 18.25625,255.32291 c -17.1981813,0.35252 10.407208,-21.69557 15.610416,-32.54375 5.203209,-10.84818 17.286375,6.70305 25.929167,10.05417 8.642791,3.35113 -3.527513,19.93221 -5.291667,29.89792 -1.764154,9.96571 -30.867791,-12.52335 -46.3020828,-18.78542 -15.434292,-6.26207 6.7030418,-15.87473 10.0541668,-23.8125 3.351124,-7.93776 20.461374,-2.29279 30.691666,-3.43958 10.230292,-1.14679 13.934988,25.04748 20.902083,37.57083 6.967096,12.52334 -34.395568,0.70582 -51.593749,1.05833 z" />
    <path
       style="fill:none;stroke:#000000;stroke-width:0.264583px;stroke-linecap:butt;stroke-linejoin:miter;stroke-opacity:1"
       d="m 102.04109,226.88033 c -10.407079,7.62894 -11.377218,22.5338 -2.160555,30.73579 9.216665,8.20199 28.619055,9.70126 39.025855,2.07238 10.40681,-7.62887 11.81789,-24.38548 2.60151,-32.58769 -9.21637,-8.2022 -29.05972,-7.84943 -39.46681,-0.22048 z"
       id="path3236"
       inkscape:path-effect="#path-effect3238"
       inkscape:original-d="m 92.604166,219.60416 c -0.969876,14.90513 -1.940013,29.80999 -2.910417,44.71459 19.403431,1.4996 38.805821,2.99886 58.208331,4.49791 1.41141,-16.75701 2.82249,-33.51362 4.23333,-50.27083 -19.84388,0.35305 -39.68723,0.70582 -59.531244,1.05833 z" />
    <path
       style="fill:#000000;fill-rule:nonzero;stroke:none;stroke-width:0.264583px;stroke-linecap:butt;stroke-linejoin:miter;stroke-opacity:1"
       d="m 11.641667,120.38542 2.714433,4.18967 33.65686,-22.88721 c 0.526407,0.90533 1.104189,1.89729 1.69461,2.89178 0.507593,0.85497 1.026045,1.71437 1.530934,2.5248 0.504255,0.80941 0.99902,1.5765 1.461238,2.24852 0.231356,0.33637 0.457768,0.65362 0.676753,0.94474 0.217346,0.28894 0.436732,0.56465 0.655526,0.81553 0.109845,0.12596 0.226629,0.2538 0.348987,0.37855 0.119485,0.12182 0.263068,0.25989 0.424836,0.39642 0.14972,0.12636 0.386852,0.31284 0.688605,0.47997 0.156348,0.0866 0.368374,0.18953 0.62714,0.27271 0.258089,0.083 0.610311,0.16161 1.0284,0.15646 0.188752,-0.001 0.340857,-0.0202 0.434937,-0.0348 0.100359,-0.0155 0.184061,-0.0337 0.245451,-0.0486 0.120392,-0.0292 0.21855,-0.0609 0.284087,-0.0836 0.130837,-0.0452 0.252035,-0.0963 0.344124,-0.13662 0.183779,-0.0804 0.420411,-0.19276 0.648614,-0.30275 0.461456,-0.2224 1.141547,-0.55791 1.904482,-0.93698 1.550891,-0.77056 3.749559,-1.873 6.300399,-3.15757 5.127803,-2.5823 11.888109,-6.00597 18.594372,-9.418975 13.425173,-6.832451 26.713975,-13.66292 26.640735,-13.812337 l -2.63754,-0.814404 12.51392,20.416266 0.43274,0.70601 0.72878,-0.23622 48.65866,-15.772278 -48.42705,13.632998 -10.418,-20.690042 -2.63755,-0.814414 c -0.0732,-0.14943 -13.507351,6.381583 -27.069686,12.910577 -6.780662,3.264254 -13.593904,6.528249 -18.778026,8.953029 -2.591638,1.2122 -4.777785,2.21534 -6.333466,2.89684 -0.777846,0.34075 -1.401508,0.60234 -1.814145,0.75929 -0.204436,0.0778 -0.361881,0.1314 -0.425483,0.14416 -0.02512,0.005 -0.04202,0.003 0.02034,-0.022 0.02577,-0.0102 0.08453,-0.0315 0.17762,-0.0546 0.04693,-0.0117 0.117305,-0.0274 0.206358,-0.0413 0.08271,-0.0129 0.224782,-0.0311 0.405339,-0.0323 0.384956,-0.005 0.701403,0.0668 0.920762,0.13652 0.219807,0.0699 0.391023,0.15322 0.503015,0.21371 0.197103,0.10646 0.368626,0.2329 0.393277,0.24988 0.05775,0.0398 0.07399,0.0455 0.07059,0.0253 -0.0032,-0.0189 -0.02652,-0.0639 -0.05951,-0.12362 -0.06692,-0.12111 -0.176152,-0.30973 -0.305656,-0.54149 -0.132146,-0.23648 -0.278341,-0.5032 -0.445658,-0.81536 -0.334211,-0.62352 -0.710521,-1.34984 -1.118451,-2.15844 -0.405128,-0.80305 -0.828228,-1.6611 -1.247188,-2.52708 -1.674607,-3.461392 -3.235024,-6.95222 -3.076597,-7.008474 L 47.040953,92.692015 8.9272339,116.19575 Z"
       id="path3240"
       inkscape:path-effect="#path-effect3242"
       inkscape:original-d="M 11.641667,120.38542 49.212499,96.043749 c 0,0 6.879167,13.758331 7.9375,13.758331 1.058334,0 54.504171,-26.722914 54.504171,-26.722914 l 11.64166,20.902084 48.94792,-14.816668" />
  </g>
</svg>
