<?xml version="1.0" encoding="UTF-8" standalone="no"?>
<!-- Created with Inkscape (http://www.inkscape.org/) -->

<svg
   version="1.1"
   id="svg9"
   width="1500mm"
   height="1065mm"
   viewBox="0 0 5669.2913 4025.1968"
   sodipodi:docname="Les-10 Trace Images with Bezier Tools.svg"
   inkscape:version="1.1.1 (3bf5ae0d25, 2021-09-20)"
   inkscape:export-filename="F:\Documents\Inkspace\Apple.png"
   inkscape:export-xdpi="96"
   inkscape:export-ydpi="96"
   xmlns:inkscape="http://www.inkscape.org/namespaces/inkscape"
   xmlns:sodipodi="http://sodipodi.sourceforge.net/DTD/sodipodi-0.dtd"
   xmlns:xlink="http://www.w3.org/1999/xlink"
   xmlns="http://www.w3.org/2000/svg"
   xmlns:svg="http://www.w3.org/2000/svg">
  <defs
     id="defs13">
    <inkscape:path-effect
       effect="powerstroke"
       id="path-effect6263"
       is_visible="true"
       lpeversion="1"
       offset_points="124.92905,4.99214"
       not_jump="false"
       sort_points="true"
       interpolator_type="CubicBezierJohan"
       interpolator_beta="0.2"
       start_linecap_type="zerowidth"
       linejoin_type="extrp_arc"
       miter_limit="4"
       scale_width="1"
       end_linecap_type="zerowidth" />
    <linearGradient
       inkscape:collect="always"
       id="linearGradient5573">
      <stop
         style="stop-color:#ff0000;stop-opacity:1;"
         offset="0"
         id="stop5569" />
      <stop
         style="stop-color:#333333;stop-opacity:1"
         offset="1"
         id="stop5571" />
    </linearGradient>
    <inkscape:path-effect
       effect="powerstroke"
       id="path-effect134"
       is_visible="true"
       lpeversion="1"
       offset_points="124.92905,4.8342501"
       not_jump="false"
       sort_points="true"
       interpolator_type="CubicBezierJohan"
       interpolator_beta="0.2"
       start_linecap_type="zerowidth"
       linejoin_type="extrp_arc"
       miter_limit="4"
       scale_width="1"
       end_linecap_type="zerowidth" />
    <linearGradient
       inkscape:collect="always"
       xlink:href="#linearGradient5573"
       id="linearGradient5575"
       x1="2098.9248"
       y1="1141.2185"
       x2="2603.5845"
       y2="2873.1184"
       gradientUnits="userSpaceOnUse"
       gradientTransform="matrix(0.91628933,0,0,1.0234157,514.43666,419.48447)" />
    <filter
       inkscape:collect="always"
       style="color-interpolation-filters:sRGB"
       id="filter6765"
       x="-0.14434801"
       y="-0.13462128"
       width="1.2886964"
       height="1.2692466">
      <feGaussianBlur
         inkscape:collect="always"
         stdDeviation="104.24065"
         id="feGaussianBlur6767" />
    </filter>
  </defs>
  <sodipodi:namedview
     id="namedview11"
     pagecolor="#ffffff"
     bordercolor="#666666"
     borderopacity="1.0"
     inkscape:pageshadow="2"
     inkscape:pageopacity="0.0"
     inkscape:pagecheckerboard="0"
     showgrid="false"
     units="mm"
     width="4000mm"
     inkscape:zoom="0.087187497"
     inkscape:cx="4180.6453"
     inkscape:cy="1955.5556"
     inkscape:window-width="1366"
     inkscape:window-height="715"
     inkscape:window-x="-8"
     inkscape:window-y="-8"
     inkscape:window-maximized="1"
     inkscape:current-layer="g15"
     inkscape:document-units="mm" />
  <g
     inkscape:groupmode="layer"
     inkscape:label="Image"
     id="g15">
    <rect
       style="opacity:0.903846;fill:#333333;stroke:#000000;stroke-width:4.84186;stroke-linecap:round;stroke-linejoin:round;stroke-miterlimit:4;stroke-dasharray:none;stroke-dashoffset:0.305764;stroke-opacity:0.742972"
       id="rect6377"
       width="5647.7705"
       height="4017.2444"
       x="10.91299"
       y="5.4868832" />
    <path
       style="mix-blend-mode:normal;fill:#ffffff;fill-opacity:1;fill-rule:nonzero;stroke:#000000;stroke-width:2.91157;stroke-linecap:butt;stroke-linejoin:miter;stroke-miterlimit:4;stroke-dasharray:none;stroke-opacity:0.742972;filter:url(#filter6765)"
       d="m 2812.1699,1133.2057 c 36.7839,-8.4579 59.0902,-13.8778 110.3517,-25.3736 0,0 15.1778,-2.6562 35.4502,10.4588 32.8473,34.9673 43.6664,158.9971 47.8827,196.1864 l 0.2148,4.5892 c 4.6418,73.0815 -9.0775,193.7709 -8.9348,193.7765 95.3118,-104.5508 175.8953,-135.2648 175.8953,-135.2648 l 65.6109,-17.2093 76.546,-9.1783 81.4061,8.031 87.4812,29.8295 49.8157,27.535 3.6451,3.4418 6.0751,5.7365 -6.0751,25.2403 -30.3755,56.2172 -52.2457,72.2792 -57.1058,43.5969 -21.8703,16.0621 12.454,5.4496 28.7048,17.3528 46.6262,33.5582 45.715,39.4381 39.9437,42.1628 31.1347,43.3102 29.6161,53.4924 18.2253,47.1822 15.4914,59.659 5.3157,53.9225 -0.9112,50.911 -6.9864,59.659 -13.6689,59.0853 -18.8328,56.504 -26.5785,61.0931 -34.1723,63.818 -40.7031,65.252 -47.6894,66.1126 -54.2201,65.252 -58.6245,65.6823 -67.5854,65.8257 -76.3941,64.2482 -66.9778,48.7598 -112.2371,67.69 -109.6553,49.19 -25.971,8.6047 -45.4112,12.6202 -41.7663,7.6007 -40.5511,3.7287 -37.2099,0.4303 -37.5136,-3.7287 -44.0444,-10.4691 -40.8549,-16.9224 -23.0854,-12.4768 -22.4778,-17.2093 -19.2883,-15.4884 -16.099,-9.752 -34.3242,-15.4884 c 0,0 -29.6161,-6.5969 -30.5274,-6.5969 -0.9112,0 -37.8173,-0.8605 -37.8173,-0.8605 l -28.7048,1.8644 -31.8942,-0.4302 -33.5648,-4.4458 -33.261,-8.1745 -39.64,-16.0619 -34.3242,-19.2172 -32.8055,-23.8062 -23.9965,-20.938 -29.768,-30.9768 -23.9965,-28.3954 -34.1724,-48.7598 -14.4283,-22.8024 -27.4897,-49.3334 -22.1741,-48.6164 -25.8191,-63.1009 -21.7184,-66.9729 -15.3396,-55.7869 -15.7953,-73.4265 -10.7832,-71.2753 -7.5939,-79.1629 -3.7969,-86.6204 1.6707,-85.7598 7.7457,-83.3218 13.8208,-77.8722 10.3277,-40.442 10.3276,-32.4108 20.959,-54.6398 6.3789,-12.907 16.8583,-33.845 17.6178,-29.8296 32.6536,-45.6046 13.0614,-14.628 42.3737,-42.4497 22.7816,-18.9303 50.575,-33.9884 34.9317,-18.5 58.169,-23.8063 58.4726,-15.0582 33.1092,-6.0232 35.843,-4.4457 54.3721,-2.5814 56.1944,2.1511 45.4113,4.3024 36.2986,5.4496 39.6399,7.4574 53.6127,13.1938 56.9538,17.0659 39.9437,14.3411 49.5119,19.5039 39.6399,17.6396 25.971,11.7597 -0.1519,-27.1047 -1.9744,-22.0853 -2.2781,-22.5156 -4.1007,-21.655 -4.1007,-17.3528 -10.1758,-35.2791 -11.8464,-32.2675 -13.8207,-30.69 -10.1758,-18.3567 -18.3771,-32.124 -18.2253,-27.6783 -8.2014,-13.9109 -1.9743,-14.0543 3.7968,-15.4884 8.3533,-11.0426 z"
       id="path6259"
       inkscape:path-effect="#path-effect6263"
       inkscape:original-d="m 2812.1699,1133.2057 c 36.7839,-8.4579 59.0902,-13.8778 110.3517,-25.3736 0,0 15.1778,-2.6562 35.4502,10.4588 32.8473,34.9673 43.6664,158.9971 47.8827,196.1864 l 0.2148,4.5892 c 4.6418,73.0815 -9.0775,193.7709 -8.9348,193.7765 95.3118,-104.5508 175.8953,-135.2648 175.8953,-135.2648 l 65.6109,-17.2093 76.546,-9.1783 81.4061,8.031 87.4812,29.8295 49.8157,27.535 3.6451,3.4418 6.0751,5.7365 -6.0751,25.2403 -30.3755,56.2172 -52.2457,72.2792 -57.1058,43.5969 -21.8703,16.0621 12.454,5.4496 28.7048,17.3528 46.6262,33.5582 45.715,39.4381 39.9437,42.1628 31.1347,43.3102 29.6161,53.4924 18.2253,47.1822 15.4914,59.659 5.3157,53.9225 -0.9112,50.911 -6.9864,59.659 -13.6689,59.0853 -18.8328,56.504 -26.5785,61.0931 -34.1723,63.818 -40.7031,65.252 -47.6894,66.1126 -54.2201,65.252 -58.6245,65.6823 -67.5854,65.8257 -76.3941,64.2482 -66.9778,48.7598 -112.2371,67.69 -109.6553,49.19 -25.971,8.6047 -45.4112,12.6202 -41.7663,7.6007 -40.5511,3.7287 -37.2099,0.4303 -37.5136,-3.7287 -44.0444,-10.4691 -40.8549,-16.9224 -23.0854,-12.4768 -22.4778,-17.2093 -19.2883,-15.4884 -16.099,-9.752 -34.3242,-15.4884 c 0,0 -29.6161,-6.5969 -30.5274,-6.5969 -0.9112,0 -37.8173,-0.8605 -37.8173,-0.8605 l -28.7048,1.8644 -31.8942,-0.4302 -33.5648,-4.4458 -33.261,-8.1745 -39.64,-16.0619 -34.3242,-19.2172 -32.8055,-23.8062 -23.9965,-20.938 -29.768,-30.9768 -23.9965,-28.3954 -34.1724,-48.7598 -14.4283,-22.8024 -27.4897,-49.3334 -22.1741,-48.6164 -25.8191,-63.1009 -21.7184,-66.9729 -15.3396,-55.7869 -15.7953,-73.4265 -10.7832,-71.2753 -7.5939,-79.1629 -3.7969,-86.6204 1.6707,-85.7598 7.7457,-83.3218 13.8208,-77.8722 10.3277,-40.442 10.3276,-32.4108 20.959,-54.6398 6.3789,-12.907 16.8583,-33.845 17.6178,-29.8296 32.6536,-45.6046 13.0614,-14.628 42.3737,-42.4497 22.7816,-18.9303 50.575,-33.9884 34.9317,-18.5 58.169,-23.8063 58.4726,-15.0582 33.1092,-6.0232 35.843,-4.4457 54.3721,-2.5814 56.1944,2.1511 45.4113,4.3024 36.2986,5.4496 39.6399,7.4574 53.6127,13.1938 56.9538,17.0659 39.9437,14.3411 49.5119,19.5039 39.6399,17.6396 25.971,11.7597 -0.1519,-27.1047 -1.9744,-22.0853 -2.2781,-22.5156 -4.1007,-21.655 -4.1007,-17.3528 -10.1758,-35.2791 -11.8464,-32.2675 -13.8207,-30.69 -10.1758,-18.3567 -18.3771,-32.124 -18.2253,-27.6783 -8.2014,-13.9109 -1.9743,-14.0543 3.7968,-15.4884 8.3533,-11.0426 z"
       sodipodi:nodetypes="cccccccccccccccccccccccccccccccccccccccccccccccccccccccccscccccccccccccccccccccccccccccccccccccccccccccccccccccccccccccccccccc"
       transform="matrix(0.91628933,0,0,1.0234157,263.57638,-94.114214)" />
    <path
       style="opacity:1;fill:url(#linearGradient5575);fill-opacity:1;fill-rule:nonzero;stroke:#000000;stroke-width:2.81948;stroke-linecap:butt;stroke-linejoin:miter;stroke-miterlimit:4;stroke-dasharray:none;stroke-opacity:0.742972"
       d="m 2808.8094,1048.0191 c 33.7047,-8.6558 54.1437,-14.2027 101.1141,-25.9677 0,0 13.9073,-2.7184 32.4827,10.7037 30.0976,35.7861 40.011,162.7201 43.8744,200.7803 l 0.1968,4.6966 c 4.2532,74.7928 -8.3176,198.3082 -8.1869,198.3139 87.3332,-106.9989 161.171,-138.432 161.171,-138.432 l 60.1186,-17.6123 70.1383,-9.3933 74.5915,8.2191 80.1581,30.5279 45.6455,28.1798 3.34,3.5224 5.5666,5.8709 -5.5666,25.8312 -27.8327,57.5336 -47.8721,73.9716 -52.3255,44.6178 -20.0395,16.4382 11.4114,5.5773 26.3019,17.7591 42.7231,34.344 41.8882,40.3615 36.6,43.1501 28.5283,44.3243 27.1369,54.745 16.6997,48.287 14.1947,61.056 4.8707,55.1851 -0.835,52.1031 -6.4016,61.056 -12.5246,60.4689 -17.2563,57.827 -24.3535,62.5236 -31.3118,65.3124 -37.2958,66.7799 -43.6973,67.6607 -49.6814,66.7799 -53.7169,67.2203 -61.9278,67.367 -69.9991,65.7526 -61.3711,49.9016 -102.8416,69.2751 -100.476,50.3417 -23.7969,8.8062 -41.6098,12.9158 -38.27,7.7786 -37.1566,3.816 -34.095,0.4404 -34.3733,-3.816 -40.3574,-10.7142 -37.435,-17.3187 -21.1529,-12.769 -20.5961,-17.6122 -17.6737,-15.8511 -14.7513,-9.9804 -31.4509,-15.851 c 0,0 -27.1369,-6.7514 -27.9719,-6.7514 -0.835,0 -34.6517,-0.8807 -34.6517,-0.8807 l -26.3019,1.9081 -29.2242,-0.4402 -30.7551,-4.55 -30.4767,-8.3659 -36.3218,-16.438 -31.4508,-19.6672 -30.0593,-24.3635 -21.9878,-21.4283 -27.2761,-31.7023 -21.9877,-29.0602 -31.3119,-49.9015 -13.2204,-23.3364 -25.1886,-50.4886 -20.3179,-49.7548 -23.6577,-64.5784 -19.9004,-68.5411 -14.0555,-57.0933 -14.4731,-75.1457 -9.8804,-72.9443 -6.9583,-81.0166 -3.479,-88.6486 1.5308,-87.768 7.0973,-85.2729 12.6639,-79.6956 9.4631,-41.3889 9.4631,-33.1698 19.2045,-55.9192 5.8449,-13.2092 15.4471,-34.6375 16.143,-30.5281 29.9202,-46.6725 11.968,-14.9704 38.8266,-43.4438 20.8745,-19.3736 46.3414,-34.7842 32.0075,-18.9332 53.2996,-24.3637 53.5778,-15.4109 30.3376,-6.1641 32.8426,-4.5499 49.8206,-2.6418 51.4902,2.2015 41.6099,4.4031 33.2601,5.5772 36.3216,7.6321 49.1248,13.5027 52.1861,17.4655 36.6,14.6769 45.3672,19.9605 36.3217,18.0527 23.7969,12.0351 -0.1392,-27.7394 -1.8091,-22.6025 -2.0874,-23.0427 -3.7574,-22.1621 -3.7575,-17.7591 -9.3239,-36.1052 -10.8547,-33.0231 -12.6639,-31.4086 -9.3239,-18.7866 -16.8388,-32.8762 -16.6996,-28.3264 -7.5148,-14.2366 -1.8091,-14.3834 3.4789,-15.8511 7.6541,-11.3012 z"
       id="path132"
       inkscape:path-effect="#path-effect134"
       inkscape:original-d="m 2808.8094,1048.0191 c 33.7047,-8.6558 54.1437,-14.2027 101.1141,-25.9677 0,0 13.9073,-2.7184 32.4827,10.7037 30.0976,35.7861 40.011,162.7201 43.8744,200.7803 l 0.1968,4.6966 c 4.2532,74.7928 -8.3176,198.3082 -8.1869,198.3139 87.3332,-106.9989 161.171,-138.432 161.171,-138.432 l 60.1186,-17.6123 70.1383,-9.3933 74.5915,8.2191 80.1581,30.5279 45.6455,28.1798 3.34,3.5224 5.5666,5.8709 -5.5666,25.8312 -27.8327,57.5336 -47.8721,73.9716 -52.3255,44.6178 -20.0395,16.4382 11.4114,5.5773 26.3019,17.7591 42.7231,34.344 41.8882,40.3615 36.6,43.1501 28.5283,44.3243 27.1369,54.745 16.6997,48.287 14.1947,61.056 4.8707,55.1851 -0.835,52.1031 -6.4016,61.056 -12.5246,60.4689 -17.2563,57.827 -24.3535,62.5236 -31.3118,65.3124 -37.2958,66.7799 -43.6973,67.6607 -49.6814,66.7799 -53.7169,67.2203 -61.9278,67.367 -69.9991,65.7526 -61.3711,49.9016 -102.8416,69.2751 -100.476,50.3417 -23.7969,8.8062 -41.6098,12.9158 -38.27,7.7786 -37.1566,3.816 -34.095,0.4404 -34.3733,-3.816 -40.3574,-10.7142 -37.435,-17.3187 -21.1529,-12.769 -20.5961,-17.6122 -17.6737,-15.8511 -14.7513,-9.9804 -31.4509,-15.851 c 0,0 -27.1369,-6.7514 -27.9719,-6.7514 -0.835,0 -34.6517,-0.8807 -34.6517,-0.8807 l -26.3019,1.9081 -29.2242,-0.4402 -30.7551,-4.55 -30.4767,-8.3659 -36.3218,-16.438 -31.4508,-19.6672 -30.0593,-24.3635 -21.9878,-21.4283 -27.2761,-31.7023 -21.9877,-29.0602 -31.3119,-49.9015 -13.2204,-23.3364 -25.1886,-50.4886 -20.3179,-49.7548 -23.6577,-64.5784 -19.9004,-68.5411 -14.0555,-57.0933 -14.4731,-75.1457 -9.8804,-72.9443 -6.9583,-81.0166 -3.479,-88.6486 1.5308,-87.768 7.0973,-85.2729 12.6639,-79.6956 9.4631,-41.3889 9.4631,-33.1698 19.2045,-55.9192 5.8449,-13.2092 15.4471,-34.6375 16.143,-30.5281 29.9202,-46.6725 11.968,-14.9704 38.8266,-43.4438 20.8745,-19.3736 46.3414,-34.7842 32.0075,-18.9332 53.2996,-24.3637 53.5778,-15.4109 30.3376,-6.1641 32.8426,-4.5499 49.8206,-2.6418 51.4902,2.2015 41.6099,4.4031 33.2601,5.5772 36.3216,7.6321 49.1248,13.5027 52.1861,17.4655 36.6,14.6769 45.3672,19.9605 36.3217,18.0527 23.7969,12.0351 -0.1392,-27.7394 -1.8091,-22.6025 -2.0874,-23.0427 -3.7574,-22.1621 -3.7575,-17.7591 -9.3239,-36.1052 -10.8547,-33.0231 -12.6639,-31.4086 -9.3239,-18.7866 -16.8388,-32.8762 -16.6996,-28.3264 -7.5148,-14.2366 -1.8091,-14.3834 3.4789,-15.8511 7.6541,-11.3012 z"
       sodipodi:nodetypes="cccccccccccccccccccccccccccccccccccccccccccccccccccccccccscccccccccccccccccccccccccccccccccccccccccccccccccccccccccccccccccccc" />
  </g>
</svg>
