<?xml version="1.0" encoding="UTF-8" standalone="no"?>
<!-- Created with Inkscape (http://www.inkscape.org/) -->

<svg
   width="210mm"
   height="297mm"
   viewBox="0 0 210 297"
   version="1.1"
   id="svg36150"
   inkscape:version="1.1.1 (3bf5ae0d25, 2021-09-20)"
   sodipodi:docname="Les-7 Drawing Lines and Paths vs Objects.svg"
   xmlns:inkscape="http://www.inkscape.org/namespaces/inkscape"
   xmlns:sodipodi="http://sodipodi.sourceforge.net/DTD/sodipodi-0.dtd"
   xmlns="http://www.w3.org/2000/svg"
   xmlns:svg="http://www.w3.org/2000/svg">
  <sodipodi:namedview
     id="namedview36152"
     pagecolor="#ffffff"
     bordercolor="#666666"
     borderopacity="1.0"
     inkscape:pageshadow="2"
     inkscape:pageopacity="0.0"
     inkscape:pagecheckerboard="0"
     inkscape:document-units="mm"
     showgrid="false"
     inkscape:zoom="1.2296198"
     inkscape:cx="398.09053"
     inkscape:cy="582.70044"
     inkscape:window-width="1366"
     inkscape:window-height="715"
     inkscape:window-x="-8"
     inkscape:window-y="-8"
     inkscape:window-maximized="1"
     inkscape:current-layer="layer1" />
  <defs
     id="defs36147">
    <inkscape:path-effect
       effect="spiro"
       id="path-effect36469"
       is_visible="true"
       lpeversion="1" />
  </defs>
  <g
     inkscape:label="Layer 1"
     inkscape:groupmode="layer"
     id="layer1">
    <path
       style="fill:none;stroke:#000000;stroke-width:0.264583px;stroke-linecap:butt;stroke-linejoin:miter;stroke-opacity:1"
       d="m 10.328396,25.605814 c -0.5322715,-1.292761 -0.5322715,-2.795562 0,-4.088323 0.281444,-0.68356 0.699896,-1.300095 1.075874,-1.936574 1.096933,-1.856954 1.857772,-3.928701 3.227624,-5.594548 1.68019,-2.043243 4.114491,-3.2863 6.455247,-4.5186731 0.770281,-0.4055414 1.544817,-0.818713 2.380567,-1.0622673 0.83575,-0.2435543 1.749129,-0.3077164 2.568456,-0.013607 0.493322,0.1770852 0.937622,0.4792164 1.3059,0.8521743 0.368277,0.3729579 0.662056,0.8156302 0.890773,1.2872382 0.457433,0.943217 0.653817,1.989086 0.815775,3.024785 0.235076,1.503278 0.407513,3.015857 0.645525,4.518673 0.419376,2.647956 1.043737,5.280705 1.075875,7.961472 0.02252,1.878487 -0.246728,3.747037 -0.359495,5.622271 -0.112767,1.875235 -0.06181,3.79931 0.57467,5.566826 0.239439,0.664927 0.558314,1.297806 0.8607,1.936572 0.370822,0.783332 0.717765,1.577701 1.075875,2.366926 0.204724,0.451183 0.414184,0.902661 0.686769,1.316394 0.272585,0.413733 0.612466,0.791191 1.034629,1.050528 0.628713,0.386223 1.398834,0.484848 2.134564,0.428727 0.73573,-0.05612 1.451578,-0.25596 2.168934,-0.428727 4.994338,-1.202827 10.206235,-1.116036 15.27742,-1.936575 7.793605,-1.261038 15.450939,-4.902196 20.22644,-11.189094 0.373251,-0.491382 0.727709,-0.996762 1.075876,-1.506225 1.071734,-1.568239 2.095135,-3.189282 3.436888,-4.533785 1.341753,-1.344503 3.061892,-2.410826 4.954933,-2.566986 0.572159,-0.0472 1.1474,-0.01088 1.7214,0 0.371626,0.007 0.744844,0.0035 1.112954,0.05499 0.36811,0.05148 0.734972,0.16124 1.038794,0.375361 0.378584,0.266811 0.631549,0.673377 0.8607,1.075874 0.924795,1.624373 1.63199,3.368735 2.151748,5.164197 1.168514,4.036535 1.382806,8.343064 0.645525,12.480147 -0.121482,0.681667 -0.26904,1.36848 -0.224357,2.059443 0.02234,0.345482 0.09376,0.690011 0.23544,1.005899 0.141674,0.315888 0.355613,0.602596 0.634442,0.807806 0.450677,0.331685 1.03958,0.428953 1.597393,0.384584 0.557814,-0.04437 1.095986,-0.218128 1.63023,-0.384584 3.293344,-1.026115 6.661116,-1.820262 9.898046,-3.012451 5.33847,-1.966207 10.21966,-4.975746 15.06225,-7.961471 3.33703,-2.057459 6.69467,-4.123155 10.32839,-5.594548 1.25531,-0.50831 2.5588,-0.947924 3.91023,-1.036396 1.35142,-0.08847 2.76755,0.204259 3.83607,1.036396 0.24496,0.190769 0.46887,0.407113 0.70955,0.603247 0.24069,0.196134 0.50227,0.374011 0.79667,0.472628 0.21564,0.07223 0.4483,0.101956 0.64553,0.215175 0.14971,0.08594 0.27103,0.21674 0.35908,0.365223 0.0881,0.148484 0.144,0.314366 0.1794,0.483325 0.0708,0.337916 0.061,0.687012 0.0977,1.030318 0.0183,0.171653 0.0485,0.342874 0.10524,0.505917 0.0567,0.163042 0.14079,0.318145 0.25833,0.444572 0.11755,0.126428 0.26984,0.223158 0.43824,0.261148 0.16839,0.03799 0.35266,0.01419 0.49858,-0.07805 0.11105,-0.0702 0.19582,-0.175882 0.2618,-0.28949 0.066,-0.113608 0.1149,-0.236111 0.16855,-0.356035 0.6117,-1.367224 1.81302,-2.359697 2.80744,-3.479792 0.49721,-0.560048 0.95291,-1.168156 1.24782,-1.856559 0.29491,-0.688404 0.42081,-1.466011 0.24824,-2.194771 -0.15072,-0.63649 -0.52156,-1.20661 -0.9862,-1.666987 -0.46464,-0.460376 -1.02108,-0.818169 -1.5959,-1.130287 -3.81832,-2.073281 -8.3548,-2.17214 -12.69532,-2.366924 -1.22026,-0.05476 -2.44013,-0.120934 -3.65797,-0.215175 -9.95713,-0.770514 -19.71794,-3.411014 -29.69414,-3.873148 -5.589434,-0.258923 -11.190782,0.169411 -16.783645,0 -2.403064,-0.07279 -4.838129,-0.263185 -7.100771,-1.075875 -0.42724,-0.153455 -0.848515,-0.329137 -1.291051,-0.43035 -1.122644,-0.256761 -2.291319,-0.01876 -3.442798,0 -0.645666,0.01052 -1.292638,-0.04841 -1.936572,0 -1.485242,0.111667 -2.869622,0.786464 -4.139532,1.564758 -1.26991,0.778294 -2.473915,1.674957 -3.821942,2.30839 -0.7271,0.341662 -1.498487,0.608266 -2.151748,1.075875 -0.455714,0.326203 -0.841156,0.74169 -1.29105,1.075874 -0.336094,0.249653 -0.704876,0.4515 -1.075875,0.645525 -0.460756,0.240967 -0.937791,0.479164 -1.291048,0.8607 -0.138326,0.149399 -0.258404,0.321314 -0.43035,0.43035 -0.147806,0.09373 -0.327218,0.13409 -0.501749,0.121047 -0.174532,-0.01304 -0.343723,-0.07826 -0.486927,-0.178882 -0.286409,-0.201237 -0.460186,-0.535202 -0.52563,-0.879066 -0.06544,-0.343865 -0.03228,-0.699145 0.02859,-1.043848 0.06087,-0.344704 0.149188,-0.684629 0.194664,-1.0317 0.164146,-1.252751 -0.236594,-2.506247 -0.686946,-3.686718 -0.450352,-1.180471 -0.962529,-2.367819 -1.034455,-3.629229 -0.06447,-1.130572 0.241854,-2.2792684 0.860701,-3.2276235"
       id="path36467"
       inkscape:path-effect="#path-effect36469"
       inkscape:original-d="m 10.328396,25.605814 c 0.177078,-1.274601 -0.321326,-2.867284 0,-4.088323 0.187931,-0.71414 0.772839,-1.263162 1.075874,-1.936574 1.349122,-2.998049 0.312618,-2.679542 3.227624,-5.594548 5.790311,-5.7903109 2.78453,-3.166304 6.455247,-4.5186731 1.762854,-0.6494724 3.008867,-1.5609136 4.949023,-1.0758744 1.383752,0.3459379 2.749423,3.9993735 3.012448,5.1641975 0.335132,1.48415 0.437629,3.011427 0.645525,4.518673 0.365908,2.65283 0.84587,5.293422 1.075875,7.961472 0.323993,3.758329 -0.355121,7.425147 0.215175,11.189097 0.105823,0.698436 0.570815,1.292383 0.8607,1.936572 0.355645,0.790324 0.645893,1.614456 1.075875,2.366926 0.484016,0.847026 0.848826,1.930638 1.721398,2.366922 1.283055,0.641528 2.876119,0.142738 4.303498,0 5.10775,-0.510775 10.310818,-0.639328 15.27742,-1.936575 9.36916,-2.447168 14.079445,-5.042098 20.22644,-11.189094 0.436288,-0.436285 0.671013,-1.040633 1.075876,-1.506225 2.290365,-2.633919 4.911772,-5.940755 8.391821,-7.100771 0.544354,-0.181452 1.147598,0 1.7214,0 0.796452,0 1.407353,-0.09073 2.151748,0.43035 0.376243,0.26337 0.661035,0.662283 0.8607,1.075874 0.810742,1.679393 1.490372,3.420569 2.151748,5.164197 1.150511,3.033162 0.645525,9.032769 0.645525,12.480147 0,0.729776 -0.229198,3.435786 0.645525,3.873148 0.962292,0.481145 2.151751,0 3.227623,0 4.444817,0 2.100355,0.198366 9.898046,-3.012451 5.25604,-2.164252 10.2202,-5.009007 15.06225,-7.961471 4.52319,-2.758048 5.7687,-4.291777 10.32839,-5.594548 1.55065,-0.44304 6.21782,-0.764236 7.7463,0 0.55186,0.275934 0.97715,0.75843 1.50622,1.075875 0.19449,0.116694 0.47128,0.06997 0.64553,0.215175 0.38551,0.321268 1.7501,3.01245 1.93657,3.01245 0.25861,0 0.26479,-0.446857 0.43035,-0.645525 1.7613,-2.113557 3.62808,-4.829458 4.3035,-7.531122 0.3612,-1.444826 -1.28121,-2.430826 -2.5821,-2.797274 -4.14344,-1.167167 -8.4433,-1.695553 -12.69532,-2.366924 -1.20649,-0.190498 -2.44741,-0.05256 -3.65797,-0.215175 -9.90329,-1.330293 -19.69793,-3.228231 -29.69414,-3.873148 -5.571366,-0.359444 -11.209065,0.309698 -16.783645,0 -2.291729,-0.127319 -4.869376,-0.58001 -7.100771,-1.075875 -0.442826,-0.09841 -0.842696,-0.361373 -1.291051,-0.43035 -0.972682,-0.149644 -2.442215,0 -3.442798,0 -0.645525,0 -1.302451,-0.120785 -1.936572,0 -2.978301,0.567295 -5.404274,2.411892 -7.961474,3.873148 -0.696251,0.397859 -1.471732,0.650864 -2.151748,1.075875 -0.475041,0.2969 -0.838004,0.746387 -1.29105,1.075874 -0.338233,0.245989 -0.717249,0.43035 -1.075875,0.645525 -0.43035,0.2869 -0.877277,0.55037 -1.291048,0.8607 -0.162295,0.121721 -0.248899,0.339624 -0.43035,0.43035 -0.977146,0.488573 -0.980689,-1.964979 -1.29105,-3.012449 -0.966446,-3.261755 -1.721401,-3.985077 -1.721401,-7.315947 0,-1.502859 -0.243808,-2.1231148 0.860701,-3.2276235" />
    <path
       style="fill:none;stroke:#000000;stroke-width:0.264583px;stroke-linecap:butt;stroke-linejoin:miter;stroke-opacity:1"
       d="M 31.845887,67.995273 C 148.47069,67.564923 128.88977,91.664511 128.88977,91.664511 L 148.90104,67.780098"
       id="path36537" />
    <path
       style="fill:none;stroke:#000000;stroke-width:0.264583px;stroke-linecap:butt;stroke-linejoin:miter;stroke-opacity:1"
       d="m 25.820989,108.0178 c 117.055151,-0.64552 117.270321,-0.64552 117.270321,-0.64552 l -0.43034,0.21518"
       id="path36539" />
    <path
       id="rect36563"
       style="opacity:0.981043;fill:#ff0000;stroke:#000000;stroke-width:0.809001;stroke-linecap:round;stroke-linejoin:round;stroke-dashoffset:0.305764"
       d="m 55.730302,122.6497 h 16.13812 l 18.289867,33.78246 -48.199182,0.21518 z"
       sodipodi:nodetypes="ccccc" />
    <path
       id="path36975"
       style="opacity:0.981043;fill:#ff0000;stroke:#000000;stroke-width:3.05764;stroke-linecap:round;stroke-linejoin:round;stroke-dashoffset:0.305764"
       inkscape:transform-center-x="-0.03100995"
       inkscape:transform-center-y="-2.0461778"
       transform="scale(0.26458333)"
       d="m 507.47394,667.68608 -72.57543,-92.69196 -48.40069,23.93227 8.29729,-53.35293 -37.71757,-38.63631 53.30565,-8.59577 103.97612,-103.11247 -54.23876,103.3421 53.22401,9.0876 -2.28929,52.11181 z"
       sodipodi:nodetypes="ccccccccccc" />
  </g>
</svg>
