<?xml version="1.0" encoding="UTF-8" standalone="no"?>
<!-- Created with Inkscape (http://www.inkscape.org/) -->

<svg
   width="210mm"
   height="297mm"
   viewBox="0 0 210 297"
   version="1.1"
   id="svg1856"
   inkscape:version="1.1.1 (3bf5ae0d25, 2021-09-20)"
   sodipodi:docname="Les-19 Import adobe illustrator files.svg"
   xmlns:inkscape="http://www.inkscape.org/namespaces/inkscape"
   xmlns:sodipodi="http://sodipodi.sourceforge.net/DTD/sodipodi-0.dtd"
   xmlns="http://www.w3.org/2000/svg"
   xmlns:svg="http://www.w3.org/2000/svg">
  <sodipodi:namedview
     id="namedview1858"
     pagecolor="#ffffff"
     bordercolor="#666666"
     borderopacity="1.0"
     inkscape:pageshadow="2"
     inkscape:pageopacity="0.0"
     inkscape:pagecheckerboard="0"
     inkscape:document-units="mm"
     showgrid="false"
     inkscape:zoom="0.43473625"
     inkscape:cx="399.09255"
     inkscape:cy="670.52149"
     inkscape:window-width="1366"
     inkscape:window-height="715"
     inkscape:window-x="-8"
     inkscape:window-y="-8"
     inkscape:window-maximized="1"
     inkscape:current-layer="layer1" />
  <defs
     id="defs1853">
    <clipPath
       clipPathUnits="userSpaceOnUse"
       id="clipPath1914">
      <path
         d="M 0,1724 H 1920 V 0 H 0 Z"
         id="path1912" />
    </clipPath>
    <clipPath
       clipPathUnits="userSpaceOnUse"
       id="clipPath1934">
      <path
         d="m 715.882,1567.68 h 221.22 v -281.03 h -221.22 z"
         id="path1932" />
    </clipPath>
    <clipPath
       clipPathUnits="userSpaceOnUse"
       id="clipPath1950">
      <path
         d="m 956.834,1570.33 h 59.636 v -50.85 h -59.636 z"
         id="path1948" />
    </clipPath>
  </defs>
  <g
     inkscape:label="Layer 1"
     inkscape:groupmode="layer"
     id="layer1">
    <g
       id="g1868"
       transform="matrix(0.1782982,0,0,-0.1782982,124.61359,114.07794)">
      <path
         d="M 0,0 283.208,-915.4 558.184,-9.081 Z"
         style="fill:#fdc581;fill-opacity:1;fill-rule:nonzero;stroke:none"
         id="path1870" />
    </g>
    <g
       id="g1872"
       transform="matrix(0.1782982,0,0,-0.1782982,84.574845,277.53257)">
      <path
         d="M 0,0 41.408,-38.142 28.158,-90.813 Z"
         style="fill:#f1ac70;fill-opacity:1;fill-rule:nonzero;stroke:none"
         id="path1874" />
    </g>
    <g
       id="g1876"
       transform="matrix(0.1782982,0,0,-0.1782982,82.113813,271.05582)">
      <path
         d="M 0,0 109.318,99.895 145.757,227.034 -19.876,69.018 Z"
         style="fill:#f1ac70;fill-opacity:1;fill-rule:nonzero;stroke:none"
         id="path1878" />
    </g>
    <g
       id="g1880"
       transform="matrix(0.1782982,0,0,-0.1782982,72.146016,238.02438)">
      <path
         d="M 0,0 268.2,257.91 310.981,392.314 -21.39,69.018 Z"
         style="fill:#f1ac70;fill-opacity:1;fill-rule:nonzero;stroke:none"
         id="path1882" />
    </g>
    <g
       id="g1884"
       transform="matrix(0.1782982,0,0,-0.1782982,61.835103,204.66912)">
      <path
         d="M 0,0 405.802,394.13 294.827,395.947 -24.845,83.548 Z"
         style="fill:#f1ac70;fill-opacity:1;fill-rule:nonzero;stroke:none"
         id="path1886" />
    </g>
    <g
       id="g1888"
       transform="matrix(0.1782982,0,0,-0.1782982,74.238595,130.83416)">
      <path
         d="m 0,0 -147.414,-159.832 18.22,-65.385 223.605,216.136 z"
         style="fill:#f1ac70;fill-opacity:1;fill-rule:nonzero;stroke:none"
         id="path1890" />
    </g>
    <g
       id="g1892"
       transform="matrix(0.1782982,0,0,-0.1782982,65.083642,214.38425)">
      <path
         d="m 0,0 210.354,-196.157 -23.188,-78.1 -147.414,141.669 z"
         style="fill:#f1ac70;fill-opacity:1;fill-rule:nonzero;stroke:none"
         id="path1894" />
    </g>
    <g
       id="g1896"
       transform="matrix(0.1782982,0,0,-0.1782982,46.183088,154.15047)">
      <path
         d="M 0,0 371.019,-354.173 349.486,-428.64 36.439,-118.057 Z"
         style="fill:#f1ac70;fill-opacity:1;fill-rule:nonzero;stroke:none"
         id="path1898" />
    </g>
    <g
       id="g1900"
       transform="matrix(0.1782982,0,0,-0.1782982,127.39642,183.6197)">
      <path
         d="M 0,0 -23.189,-74.467 -412.427,296.052 H -298.14 Z"
         style="fill:#f1ac70;fill-opacity:1;fill-rule:nonzero;stroke:none"
         id="path1902" />
    </g>
    <g
       id="g1904"
       transform="matrix(0.1782982,0,0,-0.1782982,98.45495,131.15801)">
      <path
         d="m 0,0 172.259,-174.362 23.188,72.651 -99.38,105.344 z"
         style="fill:#f1ac70;fill-opacity:1;fill-rule:nonzero;stroke:none"
         id="path1906" />
    </g>
    <g
       id="g1916"
       transform="matrix(0.1782982,0,0,-0.1782982,127.11888,95.994376)">
      <path
         d="m 0,0 c 8.768,25.922 13.483,53.42 13.483,81.917 0,155.286 -139.441,281.187 -311.498,281.187 -172.047,0 -311.472,-125.901 -311.472,-281.187 0,-28.497 4.707,-55.995 13.474,-81.917 -32.849,-12.442 -55.918,-41.747 -55.918,-75.923 0,-45.47 40.815,-82.311 91.19,-82.311 41.122,0 75.916,24.594 87.243,58.382 11.385,-33.788 46.122,-58.382 87.292,-58.382 42.467,0 78.088,26.261 88.191,61.787 10.137,-35.526 45.749,-61.787 88.208,-61.787 41.195,0 75.932,24.594 87.308,58.408 11.328,-33.814 46.057,-58.408 87.235,-58.408 50.368,0 91.182,36.841 91.182,82.311 C 55.918,-41.747 32.841,-12.464 0,0"
         style="fill:#8b5d3b;fill-opacity:1;fill-rule:nonzero;stroke:none"
         id="path1918" />
    </g>
    <g
       id="g1920"
       transform="matrix(0.1782982,0,0,-0.1782982,124.41604,64.948666)">
      <path
         d="m 0,0 c 5.961,26.312 7.745,54.15 4.775,82.879 -16.3,156.615 -167.476,280.843 -337.7,277.449 -170.255,-3.392 -295.025,-133.113 -278.772,-289.714 3.001,-28.742 10.558,-56.384 21.932,-82.348 -31.189,-13.197 -50.954,-43.197 -47.374,-77.669 4.765,-45.865 49.012,-82.215 98.864,-81.209 40.732,0.794 72.547,26.285 80.208,60.591 14.812,-33.854 51.764,-57.973 92.475,-57.158 42.051,0.835 74.541,28.022 80.826,64.054 13.743,-35.63 51.716,-61.432 93.747,-60.576 40.782,0.799 72.556,26.29 80.276,60.606 14.753,-33.864 51.696,-57.988 92.431,-57.178 49.825,0.996 86.336,38.957 81.593,84.81 C 59.702,-40.987 33.813,-11.921 0,0"
         style="fill:#ffc91a;fill-opacity:1;fill-rule:nonzero;stroke:none"
         id="path1922" />
    </g>
    <g
       id="g1924"
       transform="matrix(0.1782982,0,0,-0.1782982,123.4282,46.404158)">
      <path
         d="m 0,0 c 9.848,26.783 15.644,55.008 16.766,84.042 6.041,158.203 -129.099,280.482 -301.923,273.058 -172.81,-7.401 -317.769,-141.682 -323.84,-299.9 -1.09,-29.026 2.571,-56.864 10.36,-82.88 -33.485,-14.085 -57.814,-44.935 -59.149,-79.763 -1.763,-46.329 37.793,-82.114 88.402,-79.928 41.319,1.771 77.187,28.324 89.903,63.242 10.121,-33.939 44.044,-57.494 85.381,-55.73 42.691,1.831 79.478,30.128 91.02,66.757 8.778,-35.752 43.525,-60.979 86.21,-59.153 41.343,1.776 77.2,28.338 89.923,63.268 10.085,-33.969 44.008,-57.524 85.367,-55.748 50.587,2.173 93.01,41.467 94.8,87.79 C 54.547,-40.119 32.525,-11.284 0,0"
         style="fill:#900770;fill-opacity:1;fill-rule:nonzero;stroke:none"
         id="path1926" />
    </g>
    <g
       id="g1928"
       transform="matrix(0.1782982,0,0,-0.1782982,-105.5755,268.93513)">
      <g
         id="g1930" />
      <g
         id="g1942">
        <g
           clip-path="url(#clipPath1934)"
           opacity="0.270004"
           id="g1940">
          <g
             transform="translate(901.4188,1566.974)"
             id="g1938">
            <path
               d="m 0,0 c 0,0 -165.731,-33.573 -185.537,-272.481 0,0 13.253,-21.799 43.071,7.266 0,0 76.203,221.618 168.971,221.618 0,0 33.132,50.863 -26.505,43.597"
               style="fill:#ffffff;fill-opacity:1;fill-rule:nonzero;stroke:none"
               id="path1936" />
          </g>
        </g>
      </g>
    </g>
    <g
       id="g1944"
       transform="matrix(0.1782982,0,0,-0.1782982,-105.5755,268.93513)">
      <g
         id="g1946" />
      <g
         id="g1958">
        <g
           clip-path="url(#clipPath1950)"
           opacity="0.270004"
           id="g1956">
          <g
             transform="translate(1004.4651,1519.4766)"
             id="g1954">
            <path
               d="m 0,0 h -35.631 c -6.6,0 -12,5.4 -12,12 v 26.858 c 0,6.6 5.4,12 12,12 H 0 c 6.6,0 12,-5.4 12,-12 V 12 C 12,5.4 6.6,0 0,0"
               style="fill:#ffffff;fill-opacity:1;fill-rule:nonzero;stroke:none"
               id="path1952" />
          </g>
        </g>
      </g>
    </g>
  </g>
</svg>
