<?xml version="1.0" encoding="UTF-8" standalone="no"?>
<!-- Created with Inkscape (http://www.inkscape.org/) -->

<svg
   version="1.1"
   id="svg9"
   width="5333.3335"
   height="5333.3335"
   viewBox="0 0 5333.3335 5333.3335"
   sodipodi:docname="Les-11 Trace Bitmap Tool.svg"
   inkscape:version="1.1.1 (3bf5ae0d25, 2021-09-20)"
   inkscape:export-filename="F:\Documents\Inkspace\Apple2.png"
   inkscape:export-xdpi="96"
   inkscape:export-ydpi="96"
   xmlns:inkscape="http://www.inkscape.org/namespaces/inkscape"
   xmlns:sodipodi="http://sodipodi.sourceforge.net/DTD/sodipodi-0.dtd"
   xmlns="http://www.w3.org/2000/svg"
   xmlns:svg="http://www.w3.org/2000/svg">
  <defs
     id="defs13" />
  <sodipodi:namedview
     id="namedview11"
     pagecolor="#ffffff"
     bordercolor="#666666"
     borderopacity="1.0"
     inkscape:pageshadow="2"
     inkscape:pageopacity="0.0"
     inkscape:pagecheckerboard="0"
     showgrid="false"
     inkscape:zoom="0.061650871"
     inkscape:cx="5928.5456"
     inkscape:cy="2554.7084"
     inkscape:window-width="1366"
     inkscape:window-height="715"
     inkscape:window-x="-8"
     inkscape:window-y="-8"
     inkscape:window-maximized="1"
     inkscape:current-layer="g15" />
  <g
     inkscape:groupmode="layer"
     inkscape:label="Image"
     id="g15">
    <rect
       style="opacity:1;fill:#000000;stroke:#000000;stroke-width:5.70295;stroke-linecap:round;stroke-linejoin:round;stroke-dashoffset:0.305764;stroke-opacity:0.742972"
       id="rect1235"
       width="6012.7563"
       height="6068.2583"
       x="-339.71143"
       y="-367.4624" />
    <g
       id="g811"
       transform="translate(4604.2457,754.42418)">
      <path
         style="fill:#fa97a9;stroke-width:0.917563"
         d="m -2638.6862,2764.9843 c -12.5442,-13.1387 -26.1331,-29.461 -40.7168,-48.9076 -92.3822,-123.1856 -165.7027,-310.9558 -201.0008,-514.7527 -11.2275,-64.8231 -20.3793,-159.6754 -23.5493,-244.0717 -1.1845,-31.536 -0.6002,-119.8396 0.9532,-144.0573 7.1988,-112.2323 22.3996,-197.4385 50.0082,-280.3154 61.7151,-185.2594 179.4552,-311.9693 341.5,-367.5167 95.1314,-32.6102 205.3667,-40.2215 324.2493,-22.3883 17.5262,2.6291 40.6184,6.8827 40.1123,7.3888 -0.1908,0.1909 -5.0619,-0.2817 -10.8246,-1.0501 -89.1227,-11.8843 -182.999,-7.5964 -261.5823,11.9483 -82.4352,20.5025 -152.0994,55.4657 -215.968,108.3903 -15.2654,12.6497 -52.2501,49.6228 -65.0545,65.0341 -63.779,76.7638 -107.5544,165.9421 -137.6001,280.3154 -14.486,55.1425 -26.206,128.073 -31.2605,194.5233 -2.9067,38.2151 -3.3743,50.1582 -3.8792,99.0968 -0.7853,76.1096 1.7375,128.07 10.7142,220.6738 19.8531,204.8053 87.6638,419.5362 179.217,567.5126 15.3115,24.7478 36.6588,55.3494 51.0462,73.1756 2.1384,2.6495 3.69,4.8172 3.448,4.8172 -0.242,0 -4.6575,-4.4174 -9.8123,-9.8164 z m 784.9779,-1213.4579 c -1.0093,-0.5638 -1.9405,-1.1039 -2.0691,-1.2001 -0.1287,-0.096 2.7076,-6.3322 6.3031,-13.8576 40.9114,-85.6293 64.1696,-165.3733 72.9019,-249.9548 1.9827,-19.2044 2.8025,-75.0749 1.39,-94.732 -3.8012,-52.9011 -13.3506,-101.1017 -29.8592,-150.716 -19.3797,-58.24264 -44.7393,-109.85483 -83.9777,-170.91287 -3.7045,-5.76436 -4.9786,-8.65894 -5.3045,-12.05074 -0.7283,-7.57989 2.9493,-14.8746 9.1034,-18.05701 2.8514,-1.47455 22.2199,-6.79171 24.7755,-6.80152 1.2522,-0.005 0.9586,1.09133 -1.6596,6.19438 -2.4999,4.87239 -3.2897,7.6726 -3.6878,13.07527 -0.7087,9.61578 1.1333,14.36198 13.7073,35.31948 103.756,172.93491 123.9726,348.60771 61.2277,532.04231 -5.6171,16.4218 -17.2179,45.9712 -25.2722,64.3735 -4.7598,10.8749 -30.1542,61.6805 -32.9067,65.8352 -1.8689,2.821 -2.0847,2.8876 -4.6721,1.4425 z m 157.7505,-195.9659 c 22.3906,-51.8368 56.7444,-100.7356 96.4144,-137.2349 55.4142,-50.9849 120.5786,-85.0559 193.1469,-100.9863 81.3535,-17.8588 169.05,-9.7164 245.4848,22.7926 8.9994,3.8277 18.2973,8.5044 14.6443,7.366 -1.0093,-0.3146 -8.8578,-2.9741 -17.4411,-5.9101 -27.0191,-9.242 -58.0828,-16.185 -88.9962,-19.8914 -16.0034,-1.9188 -61.7447,-2.7164 -77.6427,-1.3539 -73.1895,6.2725 -135.5474,26.7372 -196.3678,64.4445 -26.4043,16.37 -50.49,35.6831 -74.7241,59.9171 -31.0699,31.0699 -52.4354,59.663 -74.2618,99.3831 l -7.3405,13.3585 -6.8817,2.5593 c -3.785,1.4077 -7.3822,2.5835 -7.9939,2.6131 -0.6908,0.033 0.051,-2.6411 1.9594,-7.0576 z"
         id="path775" />
      <path
         style="fill:#fd3457;stroke-width:0.917563"
         d="m -2619.1269,2786.0409 c -17.5563,-19.8237 -44.1266,-56.7412 -64.3283,-89.3793 -91.4191,-147.6979 -159.2859,-362.6555 -179.1299,-567.3663 -8.9767,-92.6038 -11.4995,-144.5642 -10.7142,-220.6738 0.5049,-48.9386 0.9725,-60.8817 3.8792,-99.0968 5.0545,-66.4503 16.7745,-139.3808 31.2605,-194.5233 30.0457,-114.3733 73.8211,-203.5516 137.6001,-280.3154 12.8044,-15.4113 49.7891,-52.3844 65.0545,-65.0341 71.1508,-58.9589 150.1702,-96.0001 244.8712,-114.7861 70.9226,-14.069 148.5886,-15.9049 232.9678,-5.5068 16.9711,2.0914 41.1601,5.95 48.4165,7.7235 6.3446,1.5505 -0.7305,0.9252 -15.1398,-1.3381 -74.8529,-11.7577 -139.3985,-14.3485 -204.1577,-8.1946 -142.2039,13.5132 -263.9729,71.644 -353.6262,168.816 -99.549,107.8977 -160.404,259.2197 -181.7218,451.8686 -11.1484,100.7489 -10.8388,220.2089 0.8798,339.4982 0.7685,7.8222 2.0235,20.6222 2.789,28.4445 16.8346,172.0266 72.4007,363.5085 146.0228,503.198 27.2277,51.6613 53.4153,92.1655 86.0753,133.1317 7.6444,9.5886 14.2017,17.9499 14.5719,18.5807 1.4646,2.4958 -0.3339,0.8665 -5.5707,-5.0466 z m 93.7627,-286.0241 c -33.8618,-5.3916 -61.218,-30.5783 -70.2884,-64.7143 -2.9526,-11.1122 -2.9936,-30.0486 -0.09,-41.6362 2.4472,-9.7667 7.8389,-21.6062 13.3572,-29.3313 5.6501,-7.9097 18.3295,-19.7976 25.9345,-24.3156 33.4832,-19.892 75.4086,-15.7656 103.5849,10.1952 18.7084,17.2373 27.9741,38.4849 28.1025,64.4428 0.214,43.2653 -31.5801,79.7075 -74.7837,85.7166 -8.9411,1.2436 -16.4117,1.1402 -25.8169,-0.3572 z m -109.3422,-266.0415 c -22.0936,-4.2108 -42.3193,-16.1291 -55.8602,-32.9165 -7.2023,-8.9292 -14.2368,-22.9195 -22.2423,-44.2366 -37.6594,-100.2787 -44.6354,-199.179 -21.2286,-300.9606 10.5468,-45.8618 27.8098,-92.6468 51.0549,-138.3653 9.6637,-19.0066 13.3165,-24.7163 20.2449,-31.6447 20.2991,-20.2991 49.256,-26.5098 76.3555,-16.3766 20.503,7.6665 35.6269,23.7697 42.7717,45.5408 2.3401,7.1306 2.555,8.9398 2.5069,21.1039 -0.044,10.9948 -0.3918,14.3401 -2.0058,19.2688 -12.348,37.7067 -19.8381,72.9038 -23.6964,111.3514 -2.1889,21.8129 -2.1829,68.3522 0.012,90.5124 5.0145,50.6355 15.3946,95.5973 33.0978,143.3643 7.6668,20.6865 9.1351,28.4498 8.5476,45.1949 -0.3617,10.3078 -0.9333,14.4775 -2.8929,21.1039 -9.7738,33.0507 -34.3121,57.002 -67.3552,65.7439 -9.1576,2.4228 -29.865,3.116 -39.3096,1.316 z m 909.4569,-404.8612 c -2.0187,-0.1588 -9.4509,-0.7301 -16.5161,-1.2696 -121.5669,-9.2834 -272.0105,-59.8751 -367.0251,-123.4243 -23.7241,-15.8675 -36.057,-25.8609 -53.6975,-43.5115 -17.498,-17.5081 -25.1495,-27.378 -31.6765,-40.8607 -5.5616,-11.4881 -7.7587,-20.0952 -7.7587,-30.3939 0,-14.8643 4.7215,-25.2141 14.1663,-31.0534 4.0966,-2.5328 5.2774,-2.7901 14.1905,-3.093 20.8369,-0.7083 38.8882,6.0353 115.925,43.3075 78.6185,38.0373 115.3037,53.7476 162.1842,69.4546 58.4574,19.5858 111.4246,30.9834 210.7298,45.3453 57.853,8.367 79.4261,12.3662 97.5713,18.0876 18.685,5.8918 29.8484,13.4377 33.9358,22.9391 4.3636,10.1434 0.4612,25.7376 -9.2776,37.074 -17.4965,20.3667 -52.6604,33.0129 -103.0137,37.0473 -10.6164,0.8506 -50.409,1.0844 -59.7377,0.351 z m -90.3799,-264.5711 c -1.2617,-0.4208 -9.623,-3.1046 -18.5807,-5.964 -8.9577,-2.8593 -16.2867,-5.3443 -16.2867,-5.5221 0,-0.1778 2.9665,-5.8227 6.5924,-12.5442 20.4648,-37.9373 40.4297,-83.4637 53.6224,-122.2762 62.0584,-182.573 41.6134,-358.0346 -61.803,-530.40361 -12.5725,-20.95505 -14.4146,-25.70131 -13.7106,-35.32617 0.4089,-5.59153 1.1626,-8.15519 4.02,-13.67421 l 3.5167,-6.79249 12.8273,-3.36141 c 7.055,-1.84878 27.2789,-7.0091 44.9419,-11.46736 31.7331,-8.00961 32.1773,-8.09265 37.3815,-6.98724 6.7141,1.42608 13.2051,5.764 16.9018,11.29547 2.3392,3.49998 3.8811,8.37883 7.9748,25.23297 13.939,57.38775 23.3972,116.03794 28.0806,174.12705 4.3354,53.7737 3.7871,126.8023 -1.3674,182.1362 -10.6945,114.807 -41.3711,232.0862 -90.0622,344.3155 -8.4298,19.4297 -8.2093,19.1596 -14.0488,17.2118 z"
         id="path771" />
      <path
         style="fill:#71c411;stroke-width:0.917563"
         d="m -1533.9377,1407.9459 c -32.1197,-2.2044 -61.7222,-6.9659 -88.086,-14.1684 -12.3134,-3.364 -30.2796,-9.3079 -30.2796,-10.0176 0,-0.7427 87.7154,-33.7705 98.9467,-37.2568 3.7024,-1.1493 7.212,-2.4683 7.7993,-2.9314 0.5872,-0.463 5.1967,-2.3099 10.2433,-4.1042 53.4242,-18.9942 94.3833,-34.146 121.2011,-44.8351 l 18.4341,-7.3475 61.3064,13.4605 c 65.4626,14.3731 64.8654,14.2893 66.1218,9.283 0.3092,-1.2317 0.1419,-3.0249 -0.3719,-3.9848 -0.6136,-1.1466 -14.9579,-7.7072 -41.8152,-19.1249 -22.4846,-9.5588 -40.8752,-17.5861 -40.8679,-17.8385 0.01,-0.2523 10.0147,-4.765 22.2389,-10.0284 29.2742,-12.6042 59.1465,-26.1746 87.3617,-39.6867 20.9723,-10.0432 23.9126,-11.8207 27.8898,-16.86 0.4208,-0.5332 12.3847,-5.4422 26.5866,-10.909 14.2017,-5.4667 25.8214,-10.2672 25.8214,-10.6677 0,-1.0136 -1.5192,-1.4004 -15.5986,-3.9725 -52.3405,-9.5621 -106.5347,-11.2988 -156.4444,-5.0138 -55.4608,6.9841 -106.9728,22.7249 -158.7384,48.5065 -61.6372,30.6982 -107.2177,63.6929 -171.5374,124.1719 -6.9667,6.5508 -10.8778,9.5065 -14.2995,10.8066 l -4.7098,1.7896 4.7992,-8.9714 c 15.5436,-29.0567 30.8556,-51.9232 51.1678,-76.4124 11.2186,-13.5256 38.8634,-41.178 52.4579,-52.4722 56.3657,-46.8286 122.0042,-78.178 192.5548,-91.9654 32.5205,-6.3554 55.1403,-8.2612 90.4046,-7.6171 36.0348,0.6582 61.0054,3.8041 93.2413,11.7474 29.7866,7.3397 70.0898,21.8606 74.0623,26.6841 1.9601,2.38 -15.6089,35.2532 -32.3025,60.4407 -67.5319,101.8925 -177.3816,170.1265 -299.7569,186.1964 -23.9818,3.1491 -57.5972,4.4876 -77.8309,3.0991 z"
         id="path769" />
      <path
         style="fill:#fd002b;stroke-width:0.917563"
         d="m -2009.2352,3013.6832 c -69.7711,-6.6861 -121.1255,-28.4139 -171.1254,-72.4022 -41.38,-36.4046 -87.7732,-56.0479 -141.9463,-60.1013 -14.6364,-1.0951 -26.4159,-0.7256 -47.5304,1.491 -14.5348,1.5258 -41.6896,1.7141 -55.1859,0.3825 -24.7165,-2.4385 -51.5004,-8.9479 -75.3608,-18.3155 -25.551,-10.0314 -47.7435,-22.4125 -75.1389,-41.92 -14.8302,-10.5601 -37.4686,-29.1015 -37.4686,-30.6875 0,-0.3852 -6.5308,-8.8805 -14.5129,-18.8787 -33.26,-41.6603 -59.2432,-81.7823 -86.699,-133.8764 -73.6221,-139.6895 -129.1882,-331.1714 -146.0228,-503.198 -0.7655,-7.8223 -2.0205,-20.6223 -2.789,-28.4445 -11.7186,-119.2893 -12.0282,-238.7493 -0.8798,-339.4982 21.3178,-192.6489 82.1728,-343.9709 181.7218,-451.8686 124.0507,-134.4542 307.7291,-192.6751 522.4577,-165.6044 43.9284,5.538 62.1971,8.7405 84.3451,14.7854 74.0544,20.2121 144.8207,47.288 224.4148,85.8632 15.6444,7.5821 31.6668,15.2625 35.6053,17.0676 l 7.1608,3.2818 -0.5793,5.7716 c -3.578,35.6461 -10.6441,77.1335 -15.964,93.7287 -0.9933,3.0988 -3.7331,12.6535 -6.0884,21.2327 -8.2542,30.067 -20.7262,64.8764 -34.8484,97.2617 -8.1383,18.6631 -22.0641,48.1721 -22.7332,48.1721 -1.2326,0 -29.0189,-13.1796 -42.6724,-20.2403 -61.5402,-31.8247 -119.2049,-73.3427 -179.7535,-129.421 -23.7541,-22.0003 -25.6934,-23.6189 -29.5377,-24.654 -7.4698,-2.0115 -14.6822,1.2412 -18.2021,8.2089 -2.4872,4.9231 -2.5959,9.3248 -0.3521,14.2497 2.785,6.1127 44.8014,45.2195 75.8279,70.577 113.7719,92.9839 237.0623,147.2342 367.0188,161.4957 26.009,2.8542 41.0756,3.6218 71.5699,3.6463 31.8005,0.026 48.6294,-0.8581 77.9928,-4.0952 28.9626,-3.193 79.0139,-12.0389 84.6204,-14.9555 5.639,-2.9334 8.5123,-7.7707 8.5123,-14.3309 0,-5.4629 -1.5654,-8.9458 -5.5142,-12.2685 -4.896,-4.1197 -8.863,-4.6159 -20.0036,-2.5015 -53.9024,10.2297 -86.9158,13.8196 -133.3224,14.4976 -35.6342,0.5206 -55.4409,-0.3174 -82.4788,-3.4895 -25.029,-2.9364 -58.8588,-8.8565 -60.5866,-10.6025 -0.4325,-0.437 0.6749,-4.0714 2.4775,-8.1307 16.2575,-36.6128 34.8225,-86.1856 48.0826,-128.391 3.0008,-9.5513 5.61,-17.5198 5.7981,-17.7079 0.1881,-0.1881 6.2631,3.0553 13.5001,7.2075 55.2805,31.7171 116.401,50.6697 183.4164,56.8748 17.5195,1.6221 57.611,1.3782 76.0657,-0.4628 53.2134,-5.3087 101.6462,-18.4332 147.6813,-40.0194 6.4525,-3.0257 12.2909,-5.5012 12.9742,-5.5012 2.6055,0 35.0674,19.6024 57.8165,34.9132 80.3994,54.1107 141.9079,117.415 187.1778,192.6424 9.5084,15.8005 26.7031,50.5719 33.8038,68.3584 17.0981,42.8291 28.1884,87.0803 33.5741,133.9642 4.8505,42.2228 4.1533,96.1328 -1.8212,140.8458 -21.2182,158.7968 -103.535,330.3557 -244.7857,510.1649 -48.7704,62.0838 -96.1285,115.8524 -145.5143,165.2115 -45.0701,45.0457 -78.7438,75.3246 -123.9097,111.4176 -162.2559,129.6622 -323.562,206.2807 -458.8116,217.9303 -9.6119,0.8279 -53.7863,1.06 -61.4767,0.3231 z m -490.3121,-513.3092 c 35.8469,-4.9859 64.4851,-31.1621 72.924,-66.6549 2.3163,-9.7421 2.52,-26.7145 0.4382,-36.4954 -4.0168,-18.8704 -12.6501,-34.0815 -26.6809,-47.0091 -28.1764,-25.9608 -70.1018,-30.0872 -103.585,-10.1952 -7.605,4.518 -20.2844,16.4059 -25.9345,24.3156 -5.5182,7.7251 -10.9099,19.5646 -13.3572,29.3313 -2.9035,11.5876 -2.8625,30.524 0.09,41.6362 11.5606,43.508 52.3884,71.152 96.1052,65.0715 z m -95.8495,-267.7147 c 33.043,-8.7419 57.5813,-32.6932 67.3551,-65.7439 1.9597,-6.6264 2.5312,-10.7961 2.8929,-21.1039 0.5875,-16.7451 -0.8808,-24.5084 -8.5475,-45.1949 -17.7032,-47.767 -28.0833,-92.7288 -33.0979,-143.3643 -2.1945,-22.1602 -2.2005,-68.6995 -0.012,-90.5124 3.8582,-38.4476 11.3484,-73.6447 23.6963,-111.3514 1.614,-4.9287 1.9622,-8.274 2.0058,-19.2688 0.048,-12.1641 -0.1667,-13.9733 -2.5069,-21.1039 -7.1448,-21.7711 -22.2687,-37.8743 -42.7716,-45.5408 -27.0996,-10.1332 -56.0565,-3.9225 -76.3556,16.3766 -6.9284,6.9284 -10.5812,12.6381 -20.2449,31.6447 -64.1807,126.231 -80.5712,254.0462 -48.6891,379.6844 7.519,29.6301 19.7364,64.7302 29.7022,85.3333 13.3288,27.5557 37.048,45.7026 67.2631,51.4613 9.4446,1.8 30.1519,1.1068 39.3096,-1.316 z m 929.885,-403.8962 c 50.3533,-4.0344 85.5172,-16.6806 103.0137,-37.0473 9.7388,-11.3364 13.6412,-26.9306 9.2776,-37.074 -4.0874,-9.5014 -15.2508,-17.0473 -33.9358,-22.9391 -18.1452,-5.7214 -39.7183,-9.7206 -97.5713,-18.0876 -99.3052,-14.3619 -152.2724,-25.7595 -210.7298,-45.3453 -46.8805,-15.707 -83.5657,-31.4173 -162.1842,-69.4546 -46.4996,-22.4976 -62.8788,-29.9119 -78.9429,-35.735 -17.4576,-6.328 -25.4496,-7.9645 -36.9821,-7.5725 -8.9131,0.3029 -10.0939,0.5602 -14.1905,3.093 -9.4448,5.8393 -14.1663,16.1891 -14.1663,31.0534 0,14.6342 5.8333,30.2197 17.5572,46.91 7.6545,10.8971 34.6918,37.9129 48.9661,48.9272 73.6613,56.838 190.0061,105.9973 307.3836,129.8789 31.1392,6.3355 59.4146,10.4249 86.2509,12.4743 7.0652,0.5395 14.4974,1.1108 16.5161,1.2696 9.3287,0.7334 49.1213,0.4996 59.7377,-0.351 z"
         id="path767" />
      <path
         style="fill:#528b2d;stroke-width:0.917563"
         d="m -1829.3267,1561.2456 c -8.7952,-2.8029 -17.2598,-5.691 -18.8101,-6.4181 -4.1326,-1.9382 -1.0837,-1.0869 18.189,5.0789 9.5357,3.0507 18.0502,5.5466 18.9212,5.5466 4.0695,0 38.1381,-86.6289 53.3079,-135.5507 3.1643,-10.2044 5.9157,-18.391 6.1144,-18.1923 0.6047,0.6045 -10.5113,35.4895 -18.29,57.3989 -8.2557,23.2533 -24.6123,64.6348 -33.185,83.957 -4.9837,11.2328 -5.9855,12.8729 -7.9778,13.0608 -1.2532,0.1182 -9.4745,-2.0784 -18.2696,-4.8811 z m 313.7403,-110.1469 c -56.5529,-5.0184 -104.0335,-18.0492 -151.8567,-41.6761 -17.9506,-8.8686 -22.4802,-11.4212 -22.4802,-12.6687 0,-0.4467 6.9161,-3.3957 15.3691,-6.5533 8.4531,-3.1577 17.0575,-6.4944 19.1209,-7.415 6.9187,-3.0867 98.9755,-37.3095 102.2268,-38.0036 1.7663,-0.3771 4.7427,-1.4607 6.6143,-2.4079 1.8715,-0.9473 25.2005,-9.6174 51.8422,-19.2668 26.6418,-9.6494 59.8473,-22.0316 73.7899,-27.5161 l 25.3503,-9.9717 24.6569,5.4153 c 13.5613,2.9783 41.1198,9.0297 61.2413,13.4474 26.9237,5.9112 36.9792,7.7851 38.0789,7.0961 1.9261,-1.2069 2.3858,-4.2941 0.8315,-5.5841 -1.0228,-0.8489 -19.6959,-8.9151 -73.6047,-31.7952 -5.0163,-2.1291 -9.285,-4.3641 -9.4859,-4.9667 -0.2008,-0.6027 1.2196,-1.7513 3.1564,-2.5524 41.1915,-17.0382 130.6542,-58.4509 133.1275,-61.6252 1.6941,-2.1744 1.3957,-4.5939 -0.7052,-5.7183 -1.4496,-0.7759 -4.59,-0.2688 -14.4516,2.3336 -74.7045,19.714 -184.4359,55.3784 -255.2484,82.9598 -24.1983,9.4252 -24.8206,9.6368 -24.8206,8.4402 0,-0.4994 10.9419,-18.0497 24.3154,-39.0006 13.3735,-20.9509 24.3154,-38.8937 24.3154,-39.8729 0,-2.4784 -2.3204,-4.1477 -4.8746,-3.5066 -1.3107,0.3289 -20.225,20.4982 -48.6047,51.8299 -39.1313,43.2015 -47.0801,51.5403 -50.3967,52.8698 -2.1657,0.868 -25.2086,9.5526 -51.2063,19.299 -25.9978,9.7463 -50.9171,19.2308 -55.3761,21.0766 -4.4591,1.8459 -8.2821,3.1815 -8.4955,2.9682 -0.6437,-0.6439 1.7138,-2.0807 6.0793,-3.7051 3.0296,-1.1274 8.057,-5.2616 18.881,-15.5272 56.7591,-53.8306 106.1009,-89.216 166.0079,-119.0525 33.7824,-16.8252 64.2695,-28.2569 99.2091,-37.2003 68.8836,-17.6321 142.2088,-19.7684 215.9737,-6.2924 14.0794,2.5721 15.5986,2.9589 15.5986,3.9725 0,0.4005 -11.6197,5.201 -25.8214,10.6677 -14.2019,5.4668 -26.1658,10.3758 -26.5866,10.909 -3.9772,5.0393 -6.9175,6.8168 -27.8898,16.86 -28.2152,13.5121 -58.0875,27.0825 -87.3617,39.6867 -12.2242,5.2634 -22.2317,9.7761 -22.2389,10.0284 -0.01,0.2524 18.3833,8.2797 40.8679,17.8385 26.8573,11.4177 41.2016,17.9783 41.8152,19.1249 0.5138,0.9599 0.6811,2.7531 0.3719,3.9848 -1.2564,5.0063 -0.6592,5.0901 -66.1218,-9.283 l -61.3064,-13.4605 -18.4341,7.3475 c -26.8178,10.6891 -67.7769,25.8409 -121.2011,44.8351 -5.0466,1.7943 -9.6561,3.6412 -10.2433,4.1042 -0.5873,0.4631 -4.0969,1.7821 -7.7993,2.9314 -11.2313,3.4863 -98.9467,36.5141 -98.9467,37.2568 0,0.7097 17.9662,6.6536 30.2796,10.0176 52.6384,14.3807 111.8455,18.3036 166.417,11.0262 141.2877,-18.8412 263.2678,-105.9081 326.4106,-232.9851 6.7693,-13.6234 6.7649,-13.4839 0.5241,-16.6677 -1.9972,-1.0189 -4.5023,-2.6863 -5.5667,-3.7053 -1.8022,-1.7252 -1.6511,-1.7107 2.1935,0.2107 6.7562,3.3763 32.7513,19.177 33.9742,20.6504 0.9161,1.1039 0.5652,2.8862 -1.8473,9.3835 -26.2772,70.7697 -68.9083,130.8363 -125.8786,177.3608 -46.7169,38.1511 -102.7634,66.1516 -161.5372,80.703 -34.6495,8.5786 -55.0764,11.0662 -93.8437,11.4283 -16.6538,0.1556 -32.1377,0.118 -34.4086,-0.083 z m -235.6111,-42.0901 c 2.2962,-8.8993 4.7488,-16.9173 5.075,-16.591 0.4564,0.4564 -4.2553,17.2719 -5.0345,17.9673 -0.2827,0.2523 -0.3009,-0.367 -0.04,-1.3763 z m 5.3028,-18.0726 c 0,-0.2672 2.4505,-10.1425 5.4456,-21.945 2.995,-11.8025 7.508,-30.9559 10.0289,-42.5631 2.5209,-11.6071 4.6124,-20.3566 4.6478,-19.4431 0.035,0.9134 -1.8244,10.4102 -4.1326,21.1039 -5.861,27.1544 -15.9897,66.9649 -15.9897,62.8473 z m 45.033,-27.882 c 0.044,-1.069 0.2615,-1.2863 0.5544,-0.5544 0.2651,0.6624 0.2325,1.4538 -0.072,1.7587 -0.3049,0.3049 -0.5218,-0.2371 -0.482,-1.2043 z m -24.7453,-59.1064 c -0.024,-0.757 1.3539,-9.015 3.0618,-18.3512 1.708,-9.3362 3.1402,-16.1022 3.1826,-15.0356 0.075,1.898 -5.123,32.0355 -5.8383,33.8456 -0.1994,0.5047 -0.3821,0.2982 -0.4061,-0.4588 z m 6.4948,-37.62 c -0.032,-1.2617 0.4835,-5.3907 1.1453,-9.1757 0.6617,-3.7849 1.2292,-5.8494 1.2611,-4.5878 0.032,1.2617 -0.4835,5.3907 -1.1453,9.1757 -0.6618,3.7849 -1.2293,5.8494 -1.2611,4.5878 z m 75.067,-2.1816 c 0,-0.1905 0.7226,-0.9131 1.6057,-1.6058 1.4554,-1.1412 1.4878,-1.1088 0.3465,0.3465 -1.1987,1.5284 -1.9522,2.0145 -1.9522,1.2593 z m 3.6702,-4.5878 c 0,-0.1905 0.7226,-0.9131 1.6058,-1.6058 1.4553,-1.1412 1.4877,-1.1089 0.3464,0.3465 -1.1987,1.5284 -1.9522,2.0145 -1.9522,1.2593 z m 5.0466,-6.0765 c 0.9135,-1.0093 1.8673,-1.8351 2.1196,-1.8351 0.2523,0 -0.2886,0.8258 -1.202,1.8351 -0.9134,1.0093 -1.8672,1.8351 -2.1196,1.8351 -0.2523,0 0.2886,-0.8258 1.202,-1.8351 z m -81.0065,-5.9642 c -0.024,-1.5139 0.7267,-8.1204 1.6676,-14.681 1.1327,-7.8969 1.5386,-9.6025 1.2011,-5.0466 -0.6297,8.5013 -2.8096,23.4922 -2.8687,19.7276 z m 86.5119,-0.4588 c 0.9134,-1.0093 1.8673,-1.8351 2.1196,-1.8351 0.2523,0 -0.2886,0.8258 -1.202,1.8351 -0.9135,1.0094 -1.8673,1.8352 -2.1196,1.8352 -0.2523,0 0.2886,-0.8258 1.202,-1.8352 z m 7.7993,-8.7168 c 1.712,-1.7663 3.3191,-3.2115 3.5714,-3.2115 0.2524,0 -0.9419,1.4452 -2.6538,3.2115 -1.712,1.7663 -3.3191,3.2115 -3.5715,3.2115 -0.2523,0 0.9419,-1.4452 2.6539,-3.2115 z m 4.5878,-4.4755 c 0,-0.1905 0.7226,-0.9131 1.6057,-1.6057 1.4554,-1.1413 1.4878,-1.1089 0.3465,0.3464 -1.1987,1.5284 -1.9522,2.0145 -1.9522,1.2593 z m -95.1978,-16.6284 c -0.016,-2.0187 0.2779,-6.1477 0.6535,-9.1757 0.6239,-5.028 0.6869,-5.1474 0.7273,-1.3763 0.024,2.271 -0.2698,6.4 -0.6535,9.1756 -0.5989,4.3325 -0.7019,4.5272 -0.7273,1.3764 z m 112.6315,-0.9176 c 1.712,-1.7663 3.3191,-3.2115 3.5714,-3.2115 0.2524,0 -0.9418,1.4452 -2.6538,3.2115 -1.712,1.7663 -3.3191,3.2115 -3.5715,3.2115 -0.2523,0 0.9419,-1.4452 2.6539,-3.2115 z m 8.2581,-7.3405 c 1.1852,-1.2617 2.3614,-2.2939 2.6137,-2.2939 0.2524,0 -0.511,1.0322 -1.6962,2.2939 -1.1852,1.2616 -2.3614,2.2939 -2.6137,2.2939 -0.2524,0 0.511,-1.0323 1.6962,-2.2939 z m 6.8817,-5.9642 c 0.9134,-1.0093 1.8672,-1.8351 2.1196,-1.8351 0.2523,0 -0.2886,0.8258 -1.202,1.8351 -0.9135,1.0094 -1.8673,1.8352 -2.1196,1.8352 -0.2523,0 0.2886,-0.8258 1.202,-1.8352 z m -125.911,-5.0466 c -0.015,-2.5233 0.2707,-7.4781 0.6333,-11.0107 0.6445,-6.2798 0.66,-6.3105 0.6963,-1.3764 0.02,2.7757 -0.2646,7.7305 -0.6333,11.0108 -0.6307,5.6114 -0.6719,5.6927 -0.6963,1.3763 z m 130.04,1.9475 c 0,-0.1905 0.7226,-0.9131 1.6058,-1.6058 1.4553,-1.1412 1.4877,-1.1088 0.3464,0.3465 -1.1987,1.5284 -1.9522,2.0145 -1.9522,1.2593 z m 4.5878,-3.6703 c 0,-0.1905 0.7226,-0.913 1.6058,-1.6057 1.4553,-1.1413 1.4877,-1.1089 0.3464,0.3465 -1.1987,1.5283 -1.9522,2.0145 -1.9522,1.2592 z m -132.3814,-30.8506 c 0.2605,-8.3269 0.6303,-15.3119 0.8218,-15.5222 0.5695,-0.6253 0.2092,13.5149 -0.5709,22.4039 -0.5183,5.907 -0.5898,3.9477 -0.2509,-6.8817 z m 192.023,-8.6523 c 0,-0.2523 0.8258,-0.9008 1.8351,-1.4409 1.0094,-0.5402 1.8352,-0.7757 1.8352,-0.5234 0,0.2523 -0.8258,0.9008 -1.8352,1.4409 -1.0093,0.5402 -1.8351,0.7757 -1.8351,0.5234 z m -190.4288,-52.3657 c 2e-4,-24.2236 0.1187,-34.0015 0.2633,-21.7286 0.1446,12.2728 0.1445,32.0922 -3e-4,44.0429 -0.1449,11.9508 -0.2631,1.9094 -0.263,-22.3143 z m 297.6116,11.7603 c 0.6624,-0.265 1.4538,-0.2325 1.7587,0.072 0.3049,0.305 -0.2371,0.5219 -1.2043,0.482 -1.069,-0.044 -1.2863,-0.2615 -0.5544,-0.5543 z m 165.1613,-2.7526 c 0.6624,-0.2651 1.4538,-0.2325 1.7587,0.072 0.3049,0.3049 -0.2371,0.5218 -1.2043,0.482 -1.069,-0.044 -1.2863,-0.2615 -0.5544,-0.5544 z m -146.81,-0.9176 c 0.6624,-0.2651 1.4538,-0.2325 1.7587,0.072 0.3049,0.3049 -0.2371,0.5218 -1.2043,0.482 -1.069,-0.044 -1.2864,-0.2615 -0.5544,-0.5544 z m 141.3046,0 c 0.6624,-0.2651 1.4538,-0.2325 1.7587,0.072 0.3049,0.3049 -0.2371,0.5218 -1.2043,0.482 -1.0689,-0.044 -1.2863,-0.2615 -0.5544,-0.5544 z m -135.7993,-0.9176 c 0.6624,-0.2651 1.4538,-0.2325 1.7587,0.072 0.3049,0.3049 -0.2371,0.5219 -1.2043,0.482 -1.0689,-0.044 -1.2863,-0.2615 -0.5544,-0.5544 z m 6.423,-0.9175 c 0.6624,-0.2651 1.4538,-0.2325 1.7587,0.072 0.3049,0.3049 -0.2371,0.5218 -1.2043,0.482 -1.069,-0.044 -1.2864,-0.2615 -0.5544,-0.5544 z m 118.3656,0 c 0.6624,-0.2651 1.4538,-0.2325 1.7587,0.072 0.3049,0.3049 -0.2371,0.5218 -1.2043,0.482 -1.069,-0.044 -1.2864,-0.2615 -0.5544,-0.5544 z m -111.9427,-0.9176 c 0.6624,-0.2651 1.4538,-0.2325 1.7587,0.072 0.3049,0.3049 -0.2371,0.5218 -1.2043,0.482 -1.0689,-0.044 -1.2863,-0.2615 -0.5544,-0.5544 z m 105.5197,0 c 0.6624,-0.2651 1.4538,-0.2325 1.7587,0.072 0.3049,0.3049 -0.2371,0.5218 -1.2043,0.482 -1.0689,-0.044 -1.2863,-0.2615 -0.5544,-0.5544 z m -98.2365,-0.8985 c 0.6308,-0.2545 1.6631,-0.2545 2.2939,0 0.6308,0.2546 0.1147,0.4629 -1.147,0.4629 -1.2616,0 -1.7777,-0.2083 -1.1469,-0.4629 z m 90.896,-0.019 c 0.6624,-0.265 1.4538,-0.2324 1.7587,0.072 0.3049,0.3049 -0.2371,0.5218 -1.2043,0.482 -1.0689,-0.044 -1.2863,-0.2615 -0.5544,-0.5544 z m -82.1792,-0.9232 c 0.8832,-0.2308 2.3283,-0.2308 3.2115,0 0.8831,0.2308 0.1606,0.4196 -1.6057,0.4196 -1.7664,0 -2.4889,-0.1888 -1.6058,-0.4196 z m 71.5699,0 c 0.8832,-0.2308 2.3283,-0.2308 3.2115,0 0.8831,0.2308 0.1606,0.4196 -1.6057,0.4196 -1.7664,0 -2.4889,-0.1888 -1.6058,-0.4196 z m -59.172,-0.934 c 1.1413,-0.2195 2.7929,-0.2112 3.6702,0.018 0.8772,0.2296 -0.057,0.4092 -2.0752,0.399 -2.0187,-0.01 -2.7365,-0.1981 -1.595,-0.4175 z m 46.7957,0 c 1.1413,-0.2195 2.7929,-0.2112 3.6702,0.018 0.8772,0.2296 -0.057,0.4092 -2.0752,0.399 -2.0187,-0.01 -2.7365,-0.1981 -1.595,-0.4175 z m -410.5144,-55.7812 c 0,-5.0466 0.1565,-6.9941 0.3424,-4.3277 0.1859,2.6664 0.184,6.7954 0,9.1757 -0.1883,2.3802 -0.3405,0.1986 -0.3381,-4.848 z m -0.9442,-16.0574 c 0,-3.7849 0.162,-5.3333 0.36,-3.4408 0.1979,1.8925 0.1979,4.9892 0,6.8817 -0.198,1.8925 -0.36,0.3441 -0.36,-3.4409 z m -0.9417,-13.3046 c 0.01,-3.028 0.1765,-4.1561 0.3806,-2.5069 0.2043,1.6492 0.2001,4.1266 -0.01,5.5054 -0.2093,1.3788 -0.3764,0.029 -0.3713,-2.9985 z m -0.9175,-11.0108 c 0.01,-3.0279 0.1764,-4.156 0.3806,-2.5068 0.2042,1.6491 0.2,4.1266 -0.01,5.5053 -0.2093,1.3788 -0.3764,0.029 -0.3713,-2.9985 z m -1.6366,-13.78764 c -0.3622,-4.3479 -0.4629,-8.101 -0.2239,-8.34 0.239,-0.2391 0.731,3.1228 1.0932,7.4708 0.3622,4.34794 0.4629,8.10104 0.2239,8.34004 -0.239,0.2391 -0.731,-3.1228 -1.0932,-7.47084 z m -1.1505,-13.2805 c 0,-2.2709 0.1789,-3.2 0.3975,-2.0645 0.2188,1.1355 0.2188,2.9936 0,4.129 -0.2186,1.1355 -0.3975,0.2065 -0.3975,-2.0645 z m -0.9361,-7.7993 c 0.01,-2.0186 0.1981,-2.7364 0.4176,-1.595 0.2194,1.1414 0.2111,2.793 -0.018,3.6703 -0.2297,0.8772 -0.4092,-0.057 -0.399,-2.0753 z m -0.9176,-7.3405 c 0.01,-2.0186 0.1981,-2.73636 0.4176,-1.595 0.2195,1.1414 0.2111,2.793 -0.018,3.6703 -0.2296,0.8772 -0.4092,-0.057 -0.399,-2.0753 z m -2.4336,-16.14907 c -0.8986,-6.58715 -1.4502,-12.16032 -1.2256,-12.38482 0.2244,-0.22449 1.1477,4.97706 2.0515,11.55902 0.9038,6.58195 1.4554,12.15512 1.2256,12.38482 -0.2296,0.22969 -1.1528,-4.97186 -2.0515,-11.55902 z m -2.2068,-15.96559 c 0.018,-1.51398 0.2244,-2.02225 0.4571,-1.12949 0.2326,0.89276 0.2173,2.13147 -0.034,2.75269 -0.2513,0.62122 -0.4416,-0.10922 -0.423,-1.6232 z m -1.9173,-10.64855 c -0.6253,-4.08485 -0.9558,-7.60812 -0.7344,-7.8295 0.2213,-0.22139 0.9212,2.93245 1.5553,7.00852 0.6341,4.07607 0.9646,7.59934 0.7344,7.8295 -0.2301,0.23015 -0.93,-2.92369 -1.5553,-7.00852 z m -5.4137,-29.35988 c -2.1579,-11.18315 -3.7529,-20.5035 -3.5445,-20.71188 0.5122,-0.51215 8.1601,38.96824 7.7734,40.12819 -0.1681,0.50419 -2.0711,-8.23316 -4.2289,-19.41631 z m -5.1839,-25.1895 c -0.3455,-1.84141 -0.4446,-3.53153 -0.2203,-3.75582 0.2242,-0.2243 0.6905,1.0988 1.0358,2.94021 0.3455,1.84141 0.4447,3.53153 0.2203,3.75582 -0.2242,0.2243 -0.6904,-1.0988 -1.0358,-2.94021 z m -5.852,-25.18292 c -3.9369,-16.2656 -5.4486,-21.02203 -7.7993,-24.53933 -3.7133,-5.55625 -10.2093,-9.90153 -16.869,-11.2841 -4.7904,-0.99448 -6.1929,-0.84857 -17.1104,1.78033 -6.5407,1.57499 -12.0589,2.697 -12.2625,2.49338 -0.2036,-0.20363 5.0576,-1.68296 11.6916,-3.2874 13.1034,-3.16907 16.3074,-3.15466 23.8352,0.1072 4.9623,2.15024 10.5089,7.30671 12.9528,12.04193 1.8187,3.52381 11.2524,40.45762 10.7308,42.01231 -0.1571,0.46862 -2.4833,-8.22732 -5.1692,-19.32432 z m -111.647,-17.03326 c 4.5419,-1.2028 8.6576,-2.06446 9.146,-1.91477 1.0285,0.31518 -14.4563,4.30933 -16.2239,4.18482 -0.6491,-0.0457 2.5359,-1.06723 7.0779,-2.27005 z m 10.6412,-2.62972 c 0.6633,-0.66336 34.0639,-8.88309 34.4652,-8.48175 0.3303,0.33035 -32.6273,8.87683 -34.2316,8.87683 -0.3458,0 -0.451,-0.17778 -0.2336,-0.39508 z m 39.3659,-10.20434 c 2.271,-0.71557 4.7484,-1.27968 5.5054,-1.25358 0.757,0.0261 -0.4817,0.63292 -2.7527,1.34849 -2.271,0.71556 -4.7484,1.27968 -5.5054,1.25357 -0.757,-0.0261 0.4818,-0.63291 2.7527,-1.34848 z"
         id="path765" />
      <path
         style="fill:#04026f;stroke-width:0.917563"
         d="m -2009.2352,3046.7427 c -76.6186,-6.793 -136.9555,-31.681 -189.9355,-78.3454 -34.5729,-30.4516 -66.639,-45.9069 -109.6487,-52.8486 -13.0155,-2.1006 -40.6286,-2.2787 -55.9713,-0.3609 -16.264,2.0331 -55.8828,1.8635 -72.0287,-0.3083 -66.7329,-8.9759 -126.8711,-37.1824 -184.4301,-86.5032 -12.5165,-10.725 -38.627,-36.5524 -49.9886,-49.4465 -100.8735,-114.4804 -182.269,-293.6846 -228.3854,-502.8244 -13.9376,-63.208 -22.2016,-117.431 -28.9474,-189.9355 -6.1129,-65.7026 -8.0405,-97.8274 -9.1467,-152.4383 -3.4592,-170.7817 17.5148,-315.4847 63.6876,-439.3897 96.3966,-258.6811 302.5593,-399.0108 578.5152,-393.7805 39.2653,0.7443 64.6326,2.7342 102.7191,8.058 115.7618,16.1813 232.8864,53.8367 359.697,115.6425 13.3539,6.5085 24.8774,11.6044 25.6077,11.3241 1.1282,-0.4329 1.24,-3.5744 0.7432,-20.8983 -3.1491,-109.8211 -38.2336,-215.62194 -106.3253,-320.63522 -11.2068,-17.28343 -13.6553,-23.32886 -14.2746,-35.24405 -0.8178,-15.73486 3.8428,-27.98626 14.8235,-38.96701 10.2362,-10.23609 11.9677,-10.85608 76.7084,-27.46475 50.0253,-12.83359 57.4715,-14.52224 65.6057,-14.87808 17.7885,-0.77819 30.8355,4.34962 43.6359,17.14998 12.2076,12.20762 14.5197,18.26046 25.0793,65.65743 13.0145,58.41627 20.7693,112.93636 25.515,179.3836 1.8082,25.3167 1.5101,109.05 -0.4834,135.7992 -1.9234,25.8075 -4.5233,51.615 -7.3761,73.2197 -1.186,8.9818 -1.74,16.092 -1.2762,16.3787 0.4509,0.2786 0.917,0.362 1.0359,0.1852 4.8601,-7.2219 24.2687,-31.8667 32.0479,-40.6939 123.754,-140.426 324.0488,-187.7759 497.9651,-117.7196 33.6782,13.5661 84.7018,42.2641 89.7524,50.4808 4.2594,6.9296 3.6169,10.8976 -5.9638,36.8237 -22.6476,61.2874 -55.6306,112.8693 -101.6368,158.9492 -24.8636,24.9034 -42.0408,39.1201 -68.656,56.8232 -5.943,3.9529 -10.662,7.6323 -10.4869,8.1765 0.1752,0.5443 4.6246,3.6152 9.8878,6.8242 90.3516,55.0915 163.1612,123.1328 214.1851,200.1581 82.2999,124.239 108.4622,270.5795 76.9942,430.6708 -32.8623,167.1847 -127.3013,345.046 -281.1797,529.5586 -70.2833,84.2752 -125.1142,140.5929 -196.7888,202.1247 -88.5685,76.035 -192.2343,145.4234 -280.3154,187.6283 -82.7978,39.6733 -152.4459,61.2498 -226.1626,70.0635 -11.3751,1.3601 -64.6563,2.5013 -74.798,1.6022 z m 61.4767,-33.3826 c 156.0213,-13.4387 346.4451,-113.4825 529.8925,-278.3921 23.4204,-21.0538 82.7408,-80.3126 102.4959,-102.3895 116.3619,-130.0382 199.827,-248.2936 257.2045,-364.4139 44.7226,-90.5095 72.3121,-176.3346 83.4284,-259.5288 5.9745,-44.713 6.6717,-98.623 1.8212,-140.8458 -9.4993,-82.6936 -36.8417,-157.5681 -82.7626,-226.638 -41.6096,-62.5852 -100.6879,-120.4715 -171.7931,-168.327 -22.7491,-15.3108 -55.211,-34.9132 -57.8165,-34.9132 -0.6833,0 -6.5217,2.4755 -12.9742,5.5012 -46.0351,21.5862 -94.4679,34.7107 -147.6813,40.0194 -18.4547,1.841 -58.5462,2.0849 -76.0657,0.4628 -67.0154,-6.2051 -128.1359,-25.1577 -183.4164,-56.8748 -7.237,-4.1522 -13.312,-7.3956 -13.5001,-7.2075 -0.1881,0.1881 -2.7973,8.1566 -5.7981,17.7079 -13.2601,42.2054 -31.8251,91.7782 -48.0826,128.391 -1.8026,4.0593 -2.91,7.6937 -2.4775,8.1307 1.7278,1.746 35.5576,7.6661 60.5866,10.6025 27.0379,3.1721 46.8446,4.0101 82.4788,3.4895 46.4066,-0.678 79.42,-4.2679 133.3224,-14.4976 11.1406,-2.1144 15.1076,-1.6182 20.0036,2.5015 3.9488,3.3227 5.5142,6.8056 5.5142,12.2685 0,6.5602 -2.8733,11.3975 -8.5123,14.3309 -5.6065,2.9166 -55.6578,11.7625 -84.6204,14.9555 -29.3634,3.2371 -46.1923,4.1208 -77.9928,4.0952 -30.4943,-0.025 -45.5609,-0.7921 -71.5699,-3.6463 -129.9565,-14.2615 -253.2469,-68.5118 -367.0188,-161.4957 -31.0265,-25.3575 -73.0429,-64.4643 -75.8279,-70.577 -2.2438,-4.9249 -2.1351,-9.3266 0.3521,-14.2497 3.5199,-6.9677 10.7323,-10.2204 18.2021,-8.2089 3.8443,1.0351 5.7836,2.6537 29.5377,24.654 60.5486,56.0783 118.2133,97.5963 179.7535,129.421 13.6535,7.0607 41.4398,20.2403 42.6724,20.2403 0.6691,0 14.5949,-29.509 22.7332,-48.1721 14.1222,-32.3853 26.5942,-67.1947 34.8484,-97.2617 2.3553,-8.5792 5.0951,-18.1339 6.0884,-21.2327 5.3199,-16.5952 12.386,-58.0826 15.964,-93.7287 l 0.5793,-5.7716 -7.1608,-3.2818 c -3.9385,-1.8051 -19.9609,-9.4855 -35.6053,-17.0676 -90.4906,-43.8562 -164.1788,-70.9857 -253.2473,-93.2369 -62.5261,-15.6203 -120.2818,-23.8167 -181.2715,-25.7253 -214.6895,-6.7183 -384.8618,76.2717 -492.9873,240.4208 -51.3683,77.984 -87.8256,174.6233 -108.3725,287.2683 -20.1857,110.6652 -24.9343,236.5436 -14.2023,376.4846 3.4332,44.7681 8.6307,95.2127 12.8575,124.7885 26.8563,187.9219 89.8377,372.1389 172.431,504.3505 36.4194,58.2988 75.0163,104.0505 119.2727,141.3828 9.1502,7.7186 35.4228,26.1379 48.434,33.9562 39.3618,23.6524 80.8174,37.7903 123.0181,41.9537 13.4963,1.3316 40.6511,1.1433 55.1859,-0.3825 21.1145,-2.2166 32.894,-2.5861 47.5304,-1.491 54.1731,4.0534 100.5663,23.6967 141.9463,60.1013 49.9999,43.9883 101.3543,65.7161 171.1254,72.4022 7.6904,0.7369 51.8648,0.5048 61.4767,-0.3231 z m 144.6792,-1460.2942 c 27.3602,-61.6676 52.5522,-136.5941 68.0708,-202.4572 19.0781,-80.9708 27.3757,-149.2814 28.3001,-232.9837 0.7408,-67.0896 -2.4281,-114.4607 -11.7199,-175.19713 -6.7825,-44.33412 -20.9049,-110.08884 -25.5949,-119.17145 -3.762,-7.28555 -12.2481,-13.03423 -21.1403,-14.32098 -4.3336,-0.62711 -1.572,-1.28066 -89.3502,21.14436 -31.5833,8.06869 -33.8202,8.94816 -38.121,14.98806 -2.8591,4.01533 -4.1545,10.78194 -2.9308,15.30952 0.5562,2.0579 4.4601,9.07726 8.6754,15.59857 86.6342,134.02995 122.778,272.34965 108.3548,414.66705 -7.9458,78.4028 -31.7735,160.1527 -70.2875,241.1486 -4.5148,9.4948 -8.0805,17.9005 -7.9235,18.6794 0.1588,0.7878 2.9312,2.413 6.2495,3.6633 12.0976,4.5585 37.2309,12.2007 39.4397,11.9924 1.9923,-0.1879 2.9941,-1.828 7.9778,-13.0608 z m 365.9988,-103.9994 c 63.1005,-8.3702 118.345,-28.0299 170.1536,-60.5521 77.1122,-48.4063 134.6399,-119.6489 167.0086,-206.8242 2.4125,-6.4973 2.7634,-8.2796 1.8473,-9.3835 -2.1297,-2.5661 -30.7538,-19.1712 -43.6086,-25.2977 -42.9913,-20.4893 -84.9681,-32.4899 -135.3405,-38.6923 -6.3213,-0.7783 -21.1516,-1.1766 -43.1255,-1.1583 -36.1006,0.03 -48.0631,1.0455 -76.6164,6.5022 -131.6921,25.1674 -243.5999,113.5544 -298.1245,235.4644 -3.3262,7.4369 -6.0476,13.9401 -6.0476,14.4516 0,1.8003 3.6776,0.8811 16.686,-4.1707 7.2241,-2.8055 36.5104,-13.9091 65.0807,-24.6746 28.5702,-10.7656 52.7631,-20.0111 53.762,-20.5456 0.9988,-0.5346 22.5968,-23.9183 47.9957,-51.9638 28.2606,-31.2055 47.0135,-51.2011 48.3288,-51.5312 2.5571,-0.6418 4.878,1.0262 4.878,3.5058 0,0.9792 -10.9419,18.922 -24.3154,39.8729 -13.3735,20.9509 -24.3154,38.5012 -24.3154,39.0006 0,1.1966 0.6223,0.985 24.8206,-8.4402 70.8125,-27.5814 180.5439,-63.2458 255.2484,-82.9598 9.8616,-2.6024 13.002,-3.1095 14.4516,-2.3336 2.1009,1.1244 2.3993,3.5439 0.7052,5.7183 -2.4733,3.1743 -91.936,44.587 -133.1275,61.6252 -1.9368,0.8011 -3.3572,1.9497 -3.1564,2.5524 0.2009,0.6026 4.4696,2.8376 9.4859,4.9667 53.9088,22.8801 72.5819,30.9463 73.6047,31.7952 1.5543,1.29 1.0946,4.3772 -0.8315,5.5841 -1.0997,0.689 -11.1552,-1.1849 -38.0789,-7.0961 -20.1215,-4.4177 -47.68,-10.4691 -61.2413,-13.4474 l -24.6569,-5.4153 -25.3503,9.9717 c -13.9426,5.4845 -47.1481,17.8667 -73.7899,27.5161 -26.6417,9.6494 -49.9707,18.3195 -51.8422,19.2668 -1.8716,0.9472 -4.848,2.0308 -6.6143,2.4079 -3.2513,0.6941 -95.3081,34.9169 -102.2268,38.0036 -2.0634,0.9206 -10.6678,4.2573 -19.1209,7.415 -8.453,3.1576 -15.3691,6.1066 -15.3691,6.5533 0,1.2475 4.5296,3.8001 22.4802,12.6687 47.8232,23.6269 95.3038,36.6577 151.8567,41.6761 2.2709,0.2016 17.7548,0.2392 34.4086,0.084 23.7815,-0.2221 33.2449,-0.6762 44.0973,-2.1158 z"
         id="path763" />
    </g>
  </g>
</svg>
