<?xml version="1.0" encoding="UTF-8" standalone="no"?>
<!-- Created with Inkscape (http://www.inkscape.org/) -->

<svg
   width="210mm"
   height="297mm"
   viewBox="0 0 210 297"
   version="1.1"
   id="svg5"
   inkscape:version="1.1.1 (3bf5ae0d25, 2021-09-20)"
   sodipodi:docname="Les-12 Difference, Union, Intersection, Combine....svg"
   xmlns:inkscape="http://www.inkscape.org/namespaces/inkscape"
   xmlns:sodipodi="http://sodipodi.sourceforge.net/DTD/sodipodi-0.dtd"
   xmlns="http://www.w3.org/2000/svg"
   xmlns:svg="http://www.w3.org/2000/svg">
  <sodipodi:namedview
     id="namedview7"
     pagecolor="#ffffff"
     bordercolor="#666666"
     borderopacity="1.0"
     inkscape:pageshadow="2"
     inkscape:pageopacity="0.0"
     inkscape:pagecheckerboard="0"
     inkscape:document-units="mm"
     showgrid="false"
     inkscape:snap-global="false"
     inkscape:zoom="0.43473625"
     inkscape:cx="396.79231"
     inkscape:cy="744.12934"
     inkscape:window-width="1366"
     inkscape:window-height="715"
     inkscape:window-x="-8"
     inkscape:window-y="-8"
     inkscape:window-maximized="1"
     inkscape:current-layer="layer1" />
  <defs
     id="defs2" />
  <g
     inkscape:label="Layer 1"
     inkscape:groupmode="layer"
     id="layer1">
    <path
       id="path31"
       style="fill:#ff9955;stroke:#0000ff;stroke-width:5.39694;stroke-linecap:round;stroke-linejoin:round;stroke-dashoffset:0.305764;stroke-opacity:0.742972"
       d="M -433.5957 -133.2168 A 302.28379 184.457 0 0 0 -522.14844 -125.11133 A 56.356009 43.704658 0 0 1 -512.95508 -101.21094 A 56.356009 43.704658 0 0 1 -569.31055 -57.505859 A 56.356009 43.704658 0 0 1 -580.21289 -58.355469 A 56.356009 43.704658 0 0 1 -636.01758 -20.703125 A 56.356009 43.704658 0 0 1 -648.69336 -21.839844 A 56.356009 43.704658 0 0 1 -693.52344 -4.5996094 A 56.356009 43.704658 0 0 1 -718.81445 -9.4707031 A 302.28379 184.457 0 0 0 -735.88086 51.240234 A 302.28379 184.457 0 0 0 -627.29883 192.76562 L -627.29883 419.49609 L -235.76172 419.49609 L -235.76172 190.56836 A 302.28379 184.457 0 0 0 -131.3125 51.240234 A 302.28379 184.457 0 0 0 -433.5957 -133.2168 z "
       transform="scale(0.26458333)" />
    <path
       id="path276"
       style="fill:#ff9955;stroke:#0000ff;stroke-width:1.67564;stroke-linecap:round;stroke-linejoin:round;stroke-dashoffset:0.305764;stroke-opacity:0.742972"
       d="M 36.820723,-16.256069 A 35.427123,32.079787 0 0 0 1.3934297,15.823626 35.427123,32.079787 0 0 0 36.820723,47.903321 35.427123,32.079787 0 0 0 47.262981,46.478084 67.251021,63.295082 0 0 0 31.039165,87.639398 67.251021,63.295082 0 0 0 98.289839,150.93424 67.251021,63.295082 0 0 0 165.54103,87.639398 67.251021,63.295082 0 0 0 151.35792,48.762701 a 34.841095,30.885151 0 0 0 14.48749,2.814814 34.841095,30.885151 0 0 0 34.84076,-30.884936 34.841095,30.885151 0 0 0 -34.84076,-30.884936 34.841095,30.885151 0 0 0 -34.84129,30.884936 34.841095,30.885151 0 0 0 3.6251,13.693738 67.251021,63.295082 0 0 0 -36.339381,-10.042282 67.251021,63.295082 0 0 0 -30.41778,6.884337 35.427123,32.079787 0 0 0 4.37596,-15.404746 35.427123,32.079787 0 0 0 -35.427296,-32.079695 z" />
    <path
       id="path868"
       style="fill:#ff9955;stroke:#0000ff;stroke-width:1.42794;stroke-linecap:round;stroke-linejoin:round;stroke-dashoffset:0.305764;stroke-opacity:0.742972"
       d="m 317.99708,-9.076778 a 79.979254,48.804247 0 0 0 -79.9795,48.804261 79.979254,48.804247 0 0 0 28.72902,37.445229 V 137.16152 H 370.34042 V 76.591124 a 79.979254,48.804247 0 0 0 27.6357,-36.863641 79.979254,48.804247 0 0 0 -79.97904,-48.804261 z" />
    <path
       id="path872"
       style="fill:#ff9955;stroke:#0000ff;stroke-width:5.39694;stroke-linecap:round;stroke-linejoin:round;stroke-dashoffset:0.305764;stroke-opacity:0.742972"
       d="M -430.5 547.56641 L -490.70508 654.35352 A 302.28379 184.457 0 0 1 -435.89648 651.16797 A 302.28379 184.457 0 0 1 -379.69141 654.39844 L -430.5 547.56641 z M -379.69141 654.39844 L -377.25586 659.51953 L -271.33203 680.90234 A 302.28379 184.457 0 0 0 -379.69141 654.39844 z M -271.33203 680.90234 A 302.28379 184.457 0 0 1 -258.22461 686.4043 L -255.73828 684.05078 L -271.33203 680.90234 z M -258.22461 686.4043 L -345.75781 769.28516 L -331.53906 892.43555 L -440.41797 833.16211 L -553.14844 884.74023 L -530.41992 762.87305 L -604.29492 682.49609 A 302.28379 184.457 0 0 0 -738.17969 835.625 A 302.28379 184.457 0 0 0 -629.59766 977.15039 L -629.59766 1203.8789 L -238.0625 1203.8789 L -238.0625 974.95117 A 302.28379 184.457 0 0 0 -133.61328 835.625 A 302.28379 184.457 0 0 0 -258.22461 686.4043 z M -604.29492 682.49609 A 302.28379 184.457 0 0 1 -531.99023 660.85547 L -614.30859 671.59961 L -604.29492 682.49609 z M -531.99023 660.85547 L -491.38281 655.55469 L -490.70508 654.35352 A 302.28379 184.457 0 0 0 -531.99023 660.85547 z "
       transform="scale(0.26458333)" />
  </g>
</svg>
