<?xml version="1.0" encoding="UTF-8" standalone="no"?>
<!-- Created with Inkscape (http://www.inkscape.org/) -->

<svg
   width="210mm"
   height="297mm"
   viewBox="0 0 210 297"
   version="1.1"
   id="svg5"
   inkscape:version="1.1.1 (3bf5ae0d25, 2021-09-20)"
   sodipodi:docname="Les-18 Import and edit pdf files.svg"
   xmlns:inkscape="http://www.inkscape.org/namespaces/inkscape"
   xmlns:sodipodi="http://sodipodi.sourceforge.net/DTD/sodipodi-0.dtd"
   xmlns="http://www.w3.org/2000/svg"
   xmlns:svg="http://www.w3.org/2000/svg">
  <sodipodi:namedview
     id="namedview7"
     pagecolor="#ffffff"
     bordercolor="#666666"
     borderopacity="1.0"
     inkscape:pageshadow="2"
     inkscape:pageopacity="0.0"
     inkscape:pagecheckerboard="0"
     inkscape:document-units="mm"
     showgrid="false"
     inkscape:zoom="0.43473625"
     inkscape:cx="396.79231"
     inkscape:cy="433.59623"
     inkscape:window-width="1366"
     inkscape:window-height="715"
     inkscape:window-x="-8"
     inkscape:window-y="-8"
     inkscape:window-maximized="1"
     inkscape:current-layer="layer1" />
  <defs
     id="defs2">
    <clipPath
       clipPathUnits="userSpaceOnUse"
       id="clipPath27">
      <path
         d="M 0,0 H 595.276 V 841.89 H 0 Z"
         id="path25" />
    </clipPath>
    <clipPath
       clipPathUnits="userSpaceOnUse"
       id="clipPath79">
      <path
         d="M 0,0 H 595.276 V 841.89 H 0 Z"
         id="path77" />
    </clipPath>
    <clipPath
       clipPathUnits="userSpaceOnUse"
       id="clipPath99">
      <path
         d="M 0,0 H 595.276 V 841.89 H 0 Z"
         id="path97" />
    </clipPath>
    <clipPath
       clipPathUnits="userSpaceOnUse"
       id="clipPath123">
      <path
         d="M 0,0 H 595.276 V 841.89 H 0 Z"
         id="path121" />
    </clipPath>
    <clipPath
       clipPathUnits="userSpaceOnUse"
       id="clipPath155">
      <path
         d="M 0,0 H 595.276 V 841.89 H 0 Z"
         id="path153" />
    </clipPath>
    <clipPath
       clipPathUnits="userSpaceOnUse"
       id="clipPath203">
      <path
         d="M 0,0 H 595.276 V 841.89 H 0 Z"
         id="path201" />
    </clipPath>
    <clipPath
       clipPathUnits="userSpaceOnUse"
       id="clipPath237">
      <path
         d="M 0,0 H 595.276 V 841.89 H 0 Z"
         id="path235" />
    </clipPath>
    <clipPath
       clipPathUnits="userSpaceOnUse"
       id="clipPath257">
      <path
         d="M 0,0 H 595.276 V 841.89 H 0 Z"
         id="path255" />
    </clipPath>
    <clipPath
       clipPathUnits="userSpaceOnUse"
       id="clipPath279">
      <path
         d="M 0,0 H 595.276 V 841.89 H 0 Z"
         id="path277" />
    </clipPath>
    <clipPath
       clipPathUnits="userSpaceOnUse"
       id="clipPath303">
      <path
         d="M 0,0 H 595.276 V 841.89 H 0 Z"
         id="path301" />
    </clipPath>
    <clipPath
       clipPathUnits="userSpaceOnUse"
       id="clipPath331">
      <path
         d="M 0,0 H 595.276 V 841.89 H 0 Z"
         id="path329" />
    </clipPath>
    <clipPath
       clipPathUnits="userSpaceOnUse"
       id="clipPath345">
      <path
         d="M 0,0 H 595.276 V 841.89 H 0 Z"
         id="path343" />
    </clipPath>
    <clipPath
       clipPathUnits="userSpaceOnUse"
       id="clipPath369">
      <path
         d="M 0,0 H 595.276 V 841.89 H 0 Z"
         id="path367" />
    </clipPath>
    <clipPath
       clipPathUnits="userSpaceOnUse"
       id="clipPath399">
      <path
         d="M 0,0 H 595.276 V 841.89 H 0 Z"
         id="path397" />
    </clipPath>
    <clipPath
       clipPathUnits="userSpaceOnUse"
       id="clipPath423">
      <path
         d="M 0,0 H 595.276 V 841.89 H 0 Z"
         id="path421" />
    </clipPath>
    <clipPath
       clipPathUnits="userSpaceOnUse"
       id="clipPath451">
      <path
         d="M 0,0 H 595.276 V 841.89 H 0 Z"
         id="path449" />
    </clipPath>
    <clipPath
       clipPathUnits="userSpaceOnUse"
       id="clipPath479">
      <path
         d="M 0,0 H 595.276 V 841.89 H 0 Z"
         id="path477" />
    </clipPath>
    <clipPath
       clipPathUnits="userSpaceOnUse"
       id="clipPath499">
      <path
         d="M 0,0 H 595.276 V 841.89 H 0 Z"
         id="path497" />
    </clipPath>
    <clipPath
       clipPathUnits="userSpaceOnUse"
       id="clipPath519">
      <path
         d="M 0,0 H 595.276 V 841.89 H 0 Z"
         id="path517" />
    </clipPath>
    <clipPath
       clipPathUnits="userSpaceOnUse"
       id="clipPath539">
      <path
         d="M 0,0 H 595.276 V 841.89 H 0 Z"
         id="path537" />
    </clipPath>
    <clipPath
       clipPathUnits="userSpaceOnUse"
       id="clipPath563">
      <path
         d="M 0,0 H 595.276 V 841.89 H 0 Z"
         id="path561" />
    </clipPath>
    <clipPath
       clipPathUnits="userSpaceOnUse"
       id="clipPath607">
      <path
         d="M 0,0 H 595.276 V 841.89 H 0 Z"
         id="path605" />
    </clipPath>
    <clipPath
       clipPathUnits="userSpaceOnUse"
       id="clipPath647">
      <path
         d="M 0,0 H 595.276 V 841.89 H 0 Z"
         id="path645" />
    </clipPath>
  </defs>
  <g
     inkscape:label="Layer 1"
     inkscape:groupmode="layer"
     id="layer1">
    <g
       id="g1526">
      <path
         d="M 0.28904029,298.21725 H 210.28883 V 1.2171732 H 0.28904029 Z"
         style="fill:#282725;fill-opacity:1;fill-rule:nonzero;stroke:none;stroke-width:0.352778"
         id="path17" />
      <path
         d="M 0.47601251,298.2109 H 210.28883 V 1.2235232 H 0.47601251 Z"
         style="fill:#282725;fill-opacity:1;fill-rule:nonzero;stroke:none;stroke-width:0.352778"
         id="path19" />
      <g
         id="g21"
         transform="matrix(0.35277777,0,0,-0.35277777,0.28904029,298.21725)">
        <g
           id="g23"
           clip-path="url(#clipPath27)">
          <g
             id="g29"
             transform="translate(195.0354,457.976)">
            <path
               d="m 0,0 c -4.49,2.503 -8.028,5.96 -10.613,10.369 -2.585,4.408 -3.878,9.36 -3.878,14.859 0,5.496 1.293,10.45 3.878,14.858 2.585,4.409 6.123,7.864 10.613,10.369 4.49,2.502 9.539,3.755 15.146,3.755 4.134,0 7.945,-0.667 11.429,-2 3.483,-1.334 6.449,-3.307 8.899,-5.919 L 32.86,43.597 c -4.571,4.517 -10.423,6.776 -17.552,6.776 -4.79,0 -9.143,-1.09 -13.063,-3.266 -3.918,-2.177 -6.993,-5.184 -9.224,-9.021 -2.233,-3.837 -3.348,-8.123 -3.348,-12.858 0,-4.736 1.115,-9.022 3.348,-12.859 2.231,-3.837 5.306,-6.846 9.224,-9.021 3.92,-2.178 8.273,-3.266 13.063,-3.266 7.075,0 12.926,2.286 17.552,6.857 L 35.474,4.245 C 33.024,1.633 30.045,-0.354 26.533,-1.714 23.023,-3.075 19.228,-3.755 15.146,-3.755 9.539,-3.755 4.49,-2.504 0,0"
               style="fill:#f0b37b;fill-opacity:1;fill-rule:nonzero;stroke:none"
               id="path31" />
          </g>
          <g
             id="g33"
             transform="translate(276.635,492.9184)">
            <path
               d="m 0,0 c 3.103,-3.103 4.654,-7.565 4.654,-13.389 v -24.9 H 0.572 v 24.573 c 0,4.789 -1.212,8.437 -3.634,10.941 -2.421,2.503 -5.81,3.754 -10.164,3.754 -5.007,0 -8.953,-1.497 -11.837,-4.49 -2.886,-2.993 -4.328,-7.02 -4.328,-12.082 v -22.696 h -4.082 v 60.577 h 4.082 V -4.571 c 1.47,2.938 3.647,5.211 6.532,6.816 2.883,1.606 6.287,2.408 10.205,2.408 C -7.32,4.653 -3.102,3.103 0,0"
               style="fill:#f0b37b;fill-opacity:1;fill-rule:nonzero;stroke:none"
               id="path35" />
          </g>
          <g
             id="g37"
             transform="translate(334.1907,474.9575)">
            <path
               d="m 0,0 h -36.657 c 0.108,-3.32 0.952,-6.273 2.531,-8.857 1.578,-2.586 3.715,-4.586 6.408,-6.001 2.696,-1.416 5.729,-2.123 9.104,-2.123 2.776,0 5.347,0.502 7.715,1.51 2.368,1.007 4.339,2.491 5.92,4.45 l 2.367,-2.695 c -1.851,-2.232 -4.178,-3.946 -6.981,-5.143 -2.803,-1.198 -5.837,-1.796 -9.102,-1.796 -4.246,0 -8.03,0.925 -11.349,2.776 -3.32,1.85 -5.919,4.408 -7.797,7.674 -1.878,3.266 -2.816,6.993 -2.816,11.184 0,4.136 0.884,7.851 2.653,11.145 1.768,3.292 4.204,5.864 7.307,7.715 3.102,1.849 6.585,2.775 10.45,2.775 3.864,0 7.334,-0.911 10.409,-2.734 3.074,-1.824 5.497,-4.368 7.267,-7.634 C -0.804,8.98 0.082,5.278 0.082,1.144 Z m -28.33,17.022 c -2.395,-1.334 -4.314,-3.211 -5.755,-5.633 -1.443,-2.422 -2.273,-5.158 -2.49,-8.204 h 32.656 c -0.163,3.046 -0.979,5.767 -2.449,8.164 -1.469,2.393 -3.402,4.271 -5.796,5.632 -2.396,1.361 -5.09,2.041 -8.083,2.041 -2.994,0 -5.688,-0.667 -8.083,-2"
               style="fill:#f0b37b;fill-opacity:1;fill-rule:nonzero;stroke:none"
               id="path39" />
          </g>
          <g
             id="g41"
             transform="translate(372.2356,493.5307)">
            <path
               d="M 0,0 C 2.829,-2.694 4.245,-6.653 4.245,-11.879 V -38.901 H 0.326 v 7.591 c -1.361,-2.503 -3.347,-4.449 -5.96,-5.836 -2.612,-1.388 -5.743,-2.083 -9.388,-2.083 -4.736,0 -8.479,1.116 -11.226,3.348 -2.749,2.232 -4.123,5.17 -4.123,8.818 0,3.537 1.265,6.408 3.796,8.613 2.531,2.204 6.572,3.305 12.124,3.305 H 0.163 v 3.43 c 0,3.972 -1.075,6.992 -3.226,9.062 -2.15,2.068 -5.293,3.102 -9.429,3.102 -2.83,0 -5.538,-0.49 -8.123,-1.47 -2.586,-0.979 -4.777,-2.286 -6.572,-3.918 L -29.229,-2 c 2.124,1.904 4.681,3.388 7.675,4.449 2.992,1.062 6.123,1.592 9.389,1.592 C -6.887,4.041 -2.831,2.694 0,0 m -5.43,-33.432 c 2.477,1.633 4.34,4 5.593,7.103 v 8.001 h -14.532 c -4.193,0 -7.226,-0.763 -9.104,-2.286 -1.878,-1.525 -2.816,-3.62 -2.816,-6.286 0,-2.776 1.033,-4.968 3.102,-6.573 2.068,-1.606 4.98,-2.408 8.736,-2.408 3.537,0 6.544,0.817 9.021,2.449"
               style="fill:#f0b37b;fill-opacity:1;fill-rule:nonzero;stroke:none"
               id="path43" />
          </g>
          <g
             id="g45"
             transform="translate(414.4426,457.3227)">
            <path
               d="m 0,0 c -1.034,-0.979 -2.327,-1.729 -3.878,-2.245 -1.551,-0.517 -3.171,-0.776 -4.857,-0.776 -3.703,0 -6.56,1.021 -8.573,3.062 -2.014,2.041 -3.02,4.885 -3.02,8.532 v 27.839 h -7.838 v 3.511 h 7.838 v 9.307 h 4.082 V 39.923 H -2.694 V 36.412 H -16.246 V 8.981 c 0,-2.776 0.665,-4.885 2,-6.328 1.333,-1.442 3.307,-2.163 5.919,-2.163 2.666,0 4.87,0.788 6.612,2.367 z"
               style="fill:#f0b37b;fill-opacity:1;fill-rule:nonzero;stroke:none"
               id="path47" />
          </g>
          <g
             id="g49"
             transform="translate(105.4944,333.5473)">
            <path
               d="m 0,0 c -8.25,4.599 -14.751,10.95 -19.5,19.05 -4.75,8.099 -7.125,17.198 -7.125,27.3 0,10.099 2.375,19.2 7.125,27.299 4.749,8.101 11.25,14.45 19.5,19.051 8.25,4.598 17.525,6.9 27.826,6.9 7.598,0 14.599,-1.226 21,-3.675 6.399,-2.451 11.85,-6.075 16.35,-10.875 L 60.375,80.1 c -8.399,8.299 -19.15,12.45 -32.25,12.45 -8.801,0 -16.799,-2.002 -24,-6 -7.199,-4.001 -12.85,-9.526 -16.949,-16.575 -4.102,-7.05 -6.151,-14.925 -6.151,-23.625 0,-8.701 2.049,-16.576 6.151,-23.625 4.099,-7.05 9.75,-12.577 16.949,-16.576 7.201,-4 15.199,-6 24,-6 12.999,0 23.75,4.201 32.25,12.601 L 65.176,7.8 C 60.676,3 55.201,-0.651 48.75,-3.15 42.301,-5.651 35.326,-6.9 27.826,-6.9 17.525,-6.9 8.25,-4.601 0,0"
               style="fill:#8764ab;fill-opacity:1;fill-rule:nonzero;stroke:none"
               id="path51" />
          </g>
          <g
             id="g53"
             transform="translate(210.719,333.6225)">
            <path
               d="m 0,0 c -8.303,4.649 -14.827,11.024 -19.576,19.125 -4.75,8.1 -7.125,17.148 -7.125,27.149 0,9.999 2.375,19.05 7.125,27.151 4.749,8.099 11.273,14.474 19.576,19.125 8.299,4.649 17.599,6.974 27.899,6.974 10.298,0 19.599,-2.301 27.9,-6.899 8.3,-4.602 14.824,-10.95 19.576,-19.051 4.748,-8.099 7.125,-17.2 7.125,-27.3 0,-10.101 -2.377,-19.2 -7.125,-27.299 C 70.623,10.875 64.099,4.523 55.799,-0.075 47.498,-4.676 38.197,-6.976 27.899,-6.976 17.599,-6.976 8.299,-4.65 0,0 m 51.75,6.074 c 7.099,3.999 12.697,9.526 16.799,16.575 4.099,7.05 6.15,14.925 6.15,23.625 0,8.701 -2.051,16.576 -6.15,23.625 -4.102,7.05 -9.7,12.575 -16.799,16.576 -7.102,3.998 -15.053,6 -23.851,6 -8.8,0 -16.776,-2.002 -23.924,-6 -7.151,-4.001 -12.776,-9.526 -16.875,-16.576 -4.102,-7.049 -6.151,-14.924 -6.151,-23.625 0,-8.7 2.049,-16.575 6.151,-23.625 4.099,-7.049 9.724,-12.576 16.875,-16.575 7.148,-4 15.124,-6 23.924,-6 8.798,0 16.749,2 23.851,6"
               style="fill:#f68626;fill-opacity:1;fill-rule:nonzero;stroke:none"
               id="path55" />
          </g>
          <g
             id="g57"
             transform="translate(319.7678,432.3969)">
            <path
               d="m 0,0 h 41.55 c 10.898,0 20.574,-2.25 29.025,-6.75 8.449,-4.5 15.024,-10.725 19.725,-18.675 4.699,-7.95 7.051,-16.975 7.051,-27.075 0,-10.102 -2.352,-19.125 -7.051,-27.075 C 85.599,-87.524 79.024,-93.75 70.575,-98.25 62.124,-102.75 52.448,-105 41.55,-105 H 0 Z m 40.95,-98.1 c 9.698,0 18.248,1.924 25.651,5.775 7.398,3.848 13.098,9.225 17.099,16.125 3.998,6.9 6,14.799 6,23.7 0,8.899 -2.002,16.8 -6,23.7 -4.001,6.901 -9.701,12.275 -17.099,16.125 -7.403,3.849 -15.953,5.776 -25.651,5.776 H 7.65 V -98.1 Z"
               style="fill:#76c14e;fill-opacity:1;fill-rule:nonzero;stroke:none"
               id="path59" />
          </g>
        </g>
      </g>
      <g
         id="g61"
         transform="matrix(0.35277777,0,0,-0.35277777,182.36347,180.28459)">
        <path
           d="m 0,0 v -6.9 h -72.45 v 105 h 70.2 V 91.2 H -64.8 V 49.8 H -8.85 V 43.05 H -64.8 V 0 Z"
           style="fill:#314f7d;fill-opacity:1;fill-rule:nonzero;stroke:none"
           id="path63" />
      </g>
      <g
         id="g65"
         transform="matrix(0.35277777,0,0,-0.35277777,32.292687,195.05681)">
        <path
           d="m 0,0 h -7.82 l -1.619,-3.679 h -2.165 l 6.664,14.717 h 2.082 L 3.827,-3.679 H 1.62 Z M -0.735,1.683 -3.91,8.895 -7.085,1.683 Z"
           style="fill:#ffffff;fill-opacity:1;fill-rule:nonzero;stroke:none"
           id="path67" />
      </g>
      <g
         id="g69"
         transform="matrix(0.35277777,0,0,-0.35277777,43.744876,191.16281)">
        <path
           d="m 0,0 -4.92,-14.717 h -2.208 l -4.016,11.753 -4.015,-11.753 h -2.25 L -22.329,0 h 2.166 L -16.189,-11.963 -12.048,0 h 1.935 L -6.056,-12.025 -1.997,0 Z"
           style="fill:#ffffff;fill-opacity:1;fill-rule:nonzero;stroke:none"
           id="path71" />
      </g>
      <g
         id="g73"
         transform="matrix(0.35277777,0,0,-0.35277777,0.28904029,298.21725)">
        <g
           id="g75"
           clip-path="url(#clipPath79)">
          <g
             id="g81"
             transform="translate(126.3977,289.3539)">
            <path
               d="m 0,0 c -0.883,0.491 -1.573,1.167 -2.07,2.029 -0.497,0.863 -0.747,1.84 -0.747,2.933 0,1.093 0.25,2.07 0.747,2.933 0.497,0.863 1.187,1.535 2.07,2.019 0.884,0.482 1.878,0.725 2.986,0.725 1.108,0 2.098,-0.243 2.974,-0.725 C 6.836,9.43 7.524,8.758 8.021,7.895 8.519,7.032 8.768,6.055 8.768,4.962 8.768,3.869 8.519,2.892 8.021,2.029 7.524,1.167 6.836,0.491 5.96,0 5.084,-0.49 4.094,-0.735 2.986,-0.735 1.878,-0.735 0.884,-0.49 0,0 m 4.909,1.524 c 0.569,0.33 1.013,0.792 1.336,1.388 0.322,0.596 0.483,1.279 0.483,2.05 0,0.77 -0.161,1.454 -0.483,2.05 C 5.922,7.607 5.478,8.066 4.909,8.39 4.342,8.711 3.7,8.872 2.986,8.872 2.271,8.872 1.63,8.711 1.062,8.39 0.494,8.066 0.046,7.607 -0.283,7.012 c -0.33,-0.596 -0.494,-1.28 -0.494,-2.05 0,-0.771 0.164,-1.454 0.494,-2.05 C 0.046,2.316 0.494,1.854 1.062,1.524 1.63,1.195 2.271,1.03 2.986,1.03 3.7,1.03 4.342,1.195 4.909,1.524"
               style="fill:#ffffff;fill-opacity:1;fill-rule:nonzero;stroke:none"
               id="path83" />
          </g>
          <g
             id="g85"
             transform="translate(141.4514,299.4877)">
            <path
               d="m 0,0 c 0.687,0.336 1.521,0.505 2.502,0.505 v -1.956 c -0.111,0.014 -0.266,0.022 -0.462,0.022 -1.094,0 -1.952,-0.326 -2.576,-0.978 -0.624,-0.652 -0.936,-1.58 -0.936,-2.785 v -5.551 H -3.49 V 0.399 h 1.935 V -1.472 C -1.206,-0.827 -0.687,-0.336 0,0"
               style="fill:#ffffff;fill-opacity:1;fill-rule:nonzero;stroke:none"
               id="path87" />
          </g>
        </g>
      </g>
      <g
         id="g89"
         transform="matrix(0.35277777,0,0,-0.35277777,53.475898,194.52281)">
        <path
           d="m 0,0 -2.313,-2.144 v -3.048 h -2.018 v 15.599 h 2.018 V 0.399 L 3.764,5.95 H 6.202 L 1.515,1.346 6.665,-5.192 H 4.184 Z"
           style="fill:#ffffff;fill-opacity:1;fill-rule:nonzero;stroke:none"
           id="path91" />
      </g>
      <g
         id="g93"
         transform="matrix(0.35277777,0,0,-0.35277777,0.28904029,298.21725)">
        <g
           id="g95"
           clip-path="url(#clipPath99)">
          <g
             id="g101"
             transform="translate(168.1956,299.2778)">
            <path
               d="M 0,0 C 0.854,-0.477 1.524,-1.143 2.008,-1.998 2.491,-2.853 2.733,-3.841 2.733,-4.962 2.733,-6.083 2.491,-7.075 2.008,-7.937 1.524,-8.799 0.854,-9.468 0,-9.944 c -0.855,-0.478 -1.822,-0.715 -2.902,-0.715 -0.827,0 -1.583,0.161 -2.27,0.482 -0.686,0.323 -1.255,0.792 -1.703,1.409 v -1.765 H -8.81 V 5.066 h 2.018 v -6.138 c 0.449,0.589 1.01,1.033 1.683,1.335 0.672,0.3 1.409,0.452 2.207,0.452 C -1.822,0.715 -0.855,0.476 0,0 m -1.146,-8.399 c 0.568,0.329 1.016,0.792 1.345,1.387 0.329,0.596 0.495,1.28 0.495,2.05 0,0.771 -0.166,1.454 -0.495,2.05 -0.329,0.596 -0.777,1.055 -1.345,1.378 -0.568,0.321 -1.208,0.482 -1.923,0.482 -0.702,0 -1.34,-0.161 -1.913,-0.482 -0.576,-0.323 -1.025,-0.782 -1.346,-1.378 -0.323,-0.596 -0.484,-1.279 -0.484,-2.05 0,-0.77 0.161,-1.454 0.484,-2.05 0.321,-0.595 0.77,-1.058 1.346,-1.387 0.573,-0.33 1.211,-0.495 1.913,-0.495 0.715,0 1.355,0.165 1.923,0.495"
               style="fill:#ffffff;fill-opacity:1;fill-rule:nonzero;stroke:none"
               id="path103" />
          </g>
          <g
             id="g105"
             transform="translate(175.511,289.3539)">
            <path
               d="m 0,0 c -0.883,0.491 -1.573,1.167 -2.07,2.029 -0.497,0.863 -0.747,1.84 -0.747,2.933 0,1.093 0.25,2.07 0.747,2.933 0.497,0.863 1.187,1.535 2.07,2.019 0.884,0.482 1.878,0.725 2.986,0.725 1.108,0 2.098,-0.243 2.975,-0.725 C 6.837,9.43 7.524,8.758 8.021,7.895 8.519,7.032 8.769,6.055 8.769,4.962 8.769,3.869 8.519,2.892 8.021,2.029 7.524,1.167 6.837,0.491 5.961,0 5.084,-0.49 4.094,-0.735 2.986,-0.735 1.878,-0.735 0.884,-0.49 0,0 m 4.909,1.524 c 0.569,0.33 1.013,0.792 1.336,1.388 0.322,0.596 0.484,1.279 0.484,2.05 0,0.77 -0.162,1.454 -0.484,2.05 C 5.922,7.607 5.478,8.066 4.909,8.39 4.342,8.711 3.7,8.872 2.986,8.872 2.271,8.872 1.63,8.711 1.062,8.39 0.494,8.066 0.046,7.607 -0.283,7.012 c -0.33,-0.596 -0.494,-1.28 -0.494,-2.05 0,-0.771 0.164,-1.454 0.494,-2.05 C 0.046,2.316 0.494,1.854 1.062,1.524 1.63,1.195 2.271,1.03 2.986,1.03 3.7,1.03 4.342,1.195 4.909,1.524"
               style="fill:#ffffff;fill-opacity:1;fill-rule:nonzero;stroke:none"
               id="path107" />
          </g>
          <g
             id="g109"
             transform="translate(188.8616,289.3539)">
            <path
               d="m 0,0 c -0.882,0.491 -1.573,1.167 -2.07,2.029 -0.497,0.863 -0.747,1.84 -0.747,2.933 0,1.093 0.25,2.07 0.747,2.933 0.497,0.863 1.188,1.535 2.07,2.019 0.884,0.482 1.878,0.725 2.986,0.725 1.108,0 2.099,-0.243 2.975,-0.725 C 6.837,9.43 7.524,8.758 8.021,7.895 8.519,7.032 8.769,6.055 8.769,4.962 8.769,3.869 8.519,2.892 8.021,2.029 7.524,1.167 6.837,0.491 5.961,0 5.085,-0.49 4.094,-0.735 2.986,-0.735 1.878,-0.735 0.884,-0.49 0,0 m 4.909,1.524 c 0.569,0.33 1.013,0.792 1.336,1.388 0.322,0.596 0.484,1.279 0.484,2.05 0,0.77 -0.162,1.454 -0.484,2.05 C 5.922,7.607 5.478,8.066 4.909,8.39 4.342,8.711 3.7,8.872 2.986,8.872 2.271,8.872 1.63,8.711 1.062,8.39 0.494,8.066 0.046,7.607 -0.283,7.012 c -0.33,-0.596 -0.494,-1.28 -0.494,-2.05 0,-0.771 0.164,-1.454 0.494,-2.05 C 0.046,2.316 0.494,1.854 1.062,1.524 1.63,1.195 2.271,1.03 2.986,1.03 3.7,1.03 4.342,1.195 4.909,1.524"
               style="fill:#ffffff;fill-opacity:1;fill-rule:nonzero;stroke:none"
               id="path111" />
          </g>
        </g>
      </g>
      <g
         id="g113"
         transform="matrix(0.35277777,0,0,-0.35277777,72.522441,194.52281)">
        <path
           d="m 0,0 -2.313,-2.144 v -3.048 h -2.018 v 15.599 h 2.018 V 0.399 L 3.764,5.95 H 6.202 L 1.515,1.346 6.666,-5.192 H 4.185 Z"
           style="fill:#ffffff;fill-opacity:1;fill-rule:nonzero;stroke:none"
           id="path115" />
      </g>
      <g
         id="g117"
         transform="matrix(0.35277777,0,0,-0.35277777,0.28904029,298.21725)">
        <g
           id="g119"
           clip-path="url(#clipPath123)">
          <g
             id="g125"
             transform="translate(225.2981,289.3959)">
            <path
               d="m 0,0 c -0.295,-0.252 -0.659,-0.444 -1.094,-0.578 -0.433,-0.133 -0.883,-0.199 -1.344,-0.199 -1.124,0 -1.992,0.3 -2.608,0.903 -0.617,0.603 -0.926,1.465 -0.926,2.586 V 8.83 h -1.891 v 1.661 h 1.891 v 2.439 h 2.019 v -2.439 h 3.196 V 8.83 H -3.953 V 2.797 c 0,-0.604 0.151,-1.066 0.452,-1.388 0.301,-0.323 0.732,-0.484 1.293,-0.484 0.617,0 1.143,0.176 1.577,0.526 z"
               style="fill:#ffffff;fill-opacity:1;fill-rule:nonzero;stroke:none"
               id="path127" />
          </g>
          <g
             id="g129"
             transform="translate(229.1448,289.3539)">
            <path
               d="m 0,0 c -0.883,0.491 -1.573,1.167 -2.07,2.029 -0.497,0.863 -0.747,1.84 -0.747,2.933 0,1.093 0.25,2.07 0.747,2.933 0.497,0.863 1.187,1.535 2.07,2.019 0.884,0.482 1.878,0.725 2.986,0.725 1.108,0 2.098,-0.243 2.974,-0.725 C 6.836,9.43 7.524,8.758 8.021,7.895 8.519,7.032 8.768,6.055 8.768,4.962 8.768,3.869 8.519,2.892 8.021,2.029 7.524,1.167 6.836,0.491 5.96,0 5.084,-0.49 4.094,-0.735 2.986,-0.735 1.878,-0.735 0.884,-0.49 0,0 m 4.909,1.524 c 0.569,0.33 1.013,0.792 1.336,1.388 0.322,0.596 0.483,1.279 0.483,2.05 0,0.77 -0.161,1.454 -0.483,2.05 C 5.922,7.607 5.478,8.066 4.909,8.39 4.342,8.711 3.7,8.872 2.986,8.872 2.271,8.872 1.63,8.711 1.062,8.39 0.494,8.066 0.046,7.607 -0.283,7.012 c -0.33,-0.596 -0.494,-1.28 -0.494,-2.05 0,-0.771 0.164,-1.454 0.494,-2.05 C 0.046,2.316 0.494,1.854 1.062,1.524 1.63,1.195 2.271,1.03 2.986,1.03 3.7,1.03 4.342,1.195 4.909,1.524"
               style="fill:#ffffff;fill-opacity:1;fill-rule:nonzero;stroke:none"
               id="path131" />
          </g>
          <g
             id="g133"
             transform="translate(256.8547,296.187)">
            <path
               d="M 0,0 H 2.019 V -5.74 C 1.29,-6.342 0.441,-6.806 -0.525,-7.127 c -0.967,-0.322 -1.977,-0.484 -3.029,-0.484 -1.485,0 -2.824,0.326 -4.015,0.977 -1.192,0.653 -2.126,1.549 -2.806,2.693 -0.681,1.141 -1.02,2.427 -1.02,3.857 0,1.43 0.339,2.719 1.02,3.869 0.68,1.149 1.618,2.046 2.817,2.691 1.198,0.644 2.547,0.967 4.047,0.967 1.177,0 2.246,-0.192 3.206,-0.578 0.96,-0.386 1.777,-0.95 2.45,-1.693 L 0.841,3.869 c -1.177,1.135 -2.6,1.703 -4.269,1.703 -1.121,0 -2.126,-0.242 -3.016,-0.726 C -7.335,4.363 -8.031,3.689 -8.536,2.828 -9.041,1.966 -9.292,0.996 -9.292,-0.084 c 0,-1.065 0.251,-2.029 0.756,-2.891 0.505,-0.862 1.201,-1.539 2.092,-2.029 0.89,-0.49 1.888,-0.736 2.996,-0.736 1.317,0 2.467,0.315 3.448,0.946 z"
               style="fill:#ffffff;fill-opacity:1;fill-rule:nonzero;stroke:none"
               id="path135" />
          </g>
          <g
             id="g137"
             transform="translate(272.6243,293.644)">
            <path
               d="m 0,0 h -9.041 c 0.126,-0.981 0.557,-1.771 1.293,-2.366 0.735,-0.597 1.651,-0.894 2.744,-0.894 1.331,0 2.403,0.448 3.217,1.345 l 1.113,-1.303 c -0.504,-0.589 -1.132,-1.037 -1.881,-1.345 -0.75,-0.308 -1.588,-0.462 -2.512,-0.462 -1.178,0 -2.221,0.242 -3.132,0.724 -0.912,0.485 -1.616,1.16 -2.114,2.03 -0.498,0.869 -0.747,1.85 -0.747,2.943 0,1.08 0.243,2.053 0.726,2.923 0.483,0.868 1.148,1.545 1.998,2.029 0.847,0.482 1.804,0.725 2.869,0.725 1.065,0 2.016,-0.243 2.849,-0.725 C -1.784,5.14 -1.132,4.463 -0.662,3.595 -0.192,2.725 0.042,1.729 0.042,0.608 0.042,0.454 0.027,0.251 0,0 M -7.896,3.762 C -8.547,3.174 -8.929,2.403 -9.041,1.449 h 7.148 c -0.112,0.94 -0.494,1.707 -1.146,2.303 -0.651,0.596 -1.46,0.894 -2.428,0.894 -0.968,0 -1.776,-0.294 -2.429,-0.884"
               style="fill:#ffffff;fill-opacity:1;fill-rule:nonzero;stroke:none"
               id="path139" />
          </g>
          <g
             id="g141"
             transform="translate(281.7278,289.3959)">
            <path
               d="m 0,0 c -0.295,-0.252 -0.659,-0.444 -1.095,-0.578 -0.433,-0.133 -0.882,-0.199 -1.344,-0.199 -1.123,0 -1.991,0.3 -2.607,0.903 -0.618,0.603 -0.926,1.465 -0.926,2.586 V 8.83 h -1.892 v 1.661 h 1.892 v 2.439 h 2.019 v -2.439 h 3.196 V 8.83 H -3.953 V 2.797 c 0,-0.604 0.15,-1.066 0.452,-1.388 0.301,-0.323 0.732,-0.484 1.293,-0.484 0.616,0 1.143,0.176 1.577,0.526 z"
               style="fill:#ffffff;fill-opacity:1;fill-rule:nonzero;stroke:none"
               id="path143" />
          </g>
        </g>
      </g>
      <g
         id="g145"
         transform="matrix(0.35277777,0,0,-0.35277777,104.62314,194.56003)">
        <path
           d="m 0,0 v -5.087 h -2.081 v 5.13 L -7.927,9.63 h 2.25 L -0.968,1.872 3.763,9.63 h 2.082 z"
           style="fill:#ffffff;fill-opacity:1;fill-rule:nonzero;stroke:none"
           id="path147" />
      </g>
      <g
         id="g149"
         transform="matrix(0.35277777,0,0,-0.35277777,0.28904029,298.21725)">
        <g
           id="g151"
           clip-path="url(#clipPath155)">
          <g
             id="g157"
             transform="translate(303.9485,289.3539)">
            <path
               d="m 0,0 c -0.882,0.491 -1.573,1.167 -2.07,2.029 -0.497,0.863 -0.747,1.84 -0.747,2.933 0,1.093 0.25,2.07 0.747,2.933 0.497,0.863 1.188,1.535 2.07,2.019 0.884,0.482 1.878,0.725 2.986,0.725 1.108,0 2.099,-0.243 2.975,-0.725 C 6.837,9.43 7.524,8.758 8.021,7.895 8.519,7.032 8.769,6.055 8.769,4.962 8.769,3.869 8.519,2.892 8.021,2.029 7.524,1.167 6.837,0.491 5.961,0 5.085,-0.49 4.094,-0.735 2.986,-0.735 1.878,-0.735 0.884,-0.49 0,0 m 4.909,1.524 c 0.569,0.33 1.014,0.792 1.336,1.388 0.322,0.596 0.484,1.279 0.484,2.05 0,0.77 -0.162,1.454 -0.484,2.05 C 5.923,7.607 5.478,8.066 4.909,8.39 4.342,8.711 3.7,8.872 2.986,8.872 2.271,8.872 1.63,8.711 1.062,8.39 0.494,8.066 0.047,7.607 -0.283,7.012 c -0.33,-0.596 -0.494,-1.28 -0.494,-2.05 0,-0.771 0.164,-1.454 0.494,-2.05 C 0.047,2.316 0.494,1.854 1.062,1.524 1.63,1.195 2.271,1.03 2.986,1.03 3.7,1.03 4.342,1.195 4.909,1.524"
               style="fill:#ffffff;fill-opacity:1;fill-rule:nonzero;stroke:none"
               id="path159" />
          </g>
          <g
             id="g161"
             transform="translate(325.8987,299.8871)">
            <path
               d="m 0,0 v -11.143 h -1.913 v 1.682 c -0.407,-0.575 -0.942,-1.019 -1.608,-1.335 -0.666,-0.315 -1.391,-0.473 -2.176,-0.473 -1.487,0 -2.657,0.41 -3.512,1.23 -0.854,0.82 -1.282,2.029 -1.282,3.627 V 0 h 2.017 v -6.182 c 0,-1.079 0.26,-1.895 0.78,-2.449 0.517,-0.553 1.26,-0.83 2.228,-0.83 1.066,0 1.906,0.322 2.523,0.967 0.616,0.645 0.925,1.557 0.925,2.733 V 0 Z"
               style="fill:#ffffff;fill-opacity:1;fill-rule:nonzero;stroke:none"
               id="path163" />
          </g>
          <g
             id="g165"
             transform="translate(336.7795,289.0912)">
            <path
               d="M 0,0 C -1.031,0.343 -1.84,0.789 -2.429,1.335 L -1.65,2.976 C -1.091,2.471 -0.372,2.06 0.505,1.744 1.379,1.43 2.28,1.271 3.206,1.271 c 1.219,0 2.13,0.208 2.733,0.622 0.602,0.413 0.904,0.963 0.904,1.65 0,0.505 -0.165,0.914 -0.494,1.229 C 6.019,5.088 5.612,5.33 5.13,5.498 4.646,5.666 3.963,5.855 3.08,6.065 1.972,6.332 1.078,6.598 0.399,6.865 c -0.679,0.266 -1.261,0.676 -1.746,1.23 -0.483,0.552 -0.724,1.3 -0.724,2.239 0,0.784 0.206,1.492 0.62,2.123 0.413,0.631 1.04,1.136 1.881,1.514 0.841,0.379 1.885,0.568 3.133,0.568 0.87,0 1.724,-0.113 2.566,-0.337 0.841,-0.223 1.562,-0.547 2.164,-0.968 L 7.601,11.553 C 6.982,11.945 6.324,12.244 5.624,12.446 4.923,12.65 4.236,12.752 3.563,12.752 2.371,12.752 1.478,12.534 0.882,12.1 0.286,11.666 -0.012,11.104 -0.012,10.417 -0.012,9.913 0.157,9.503 0.493,9.188 0.83,8.872 1.247,8.627 1.744,8.452 2.242,8.276 2.918,8.092 3.773,7.895 4.88,7.628 5.771,7.362 6.444,7.096 7.116,6.83 7.694,6.423 8.179,5.876 8.661,5.33 8.903,4.594 8.903,3.669 8.903,2.897 8.693,2.193 8.272,1.557 7.853,0.918 7.214,0.413 6.359,0.042 5.504,-0.329 4.453,-0.516 3.206,-0.516 2.099,-0.516 1.03,-0.344 0,0"
               style="fill:#ffffff;fill-opacity:1;fill-rule:nonzero;stroke:none"
               id="path167" />
          </g>
          <g
             id="g169"
             transform="translate(354.7239,289.3959)">
            <path
               d="m 0,0 c -0.295,-0.252 -0.659,-0.444 -1.095,-0.578 -0.433,-0.133 -0.882,-0.199 -1.344,-0.199 -1.123,0 -1.991,0.3 -2.607,0.903 -0.618,0.603 -0.926,1.465 -0.926,2.586 V 8.83 h -1.892 v 1.661 h 1.892 v 2.439 h 2.019 v -2.439 h 3.196 V 8.83 H -3.953 V 2.797 c 0,-0.604 0.15,-1.066 0.452,-1.388 0.301,-0.323 0.732,-0.484 1.293,-0.484 0.616,0 1.143,0.176 1.577,0.526 z"
               style="fill:#ffffff;fill-opacity:1;fill-rule:nonzero;stroke:none"
               id="path171" />
          </g>
          <g
             id="g173"
             transform="translate(364.7629,298.8569)">
            <path
               d="m 0,0 c 0.82,-0.757 1.229,-1.885 1.229,-3.385 v -6.727 h -1.913 v 1.471 C -1.02,-9.16 -1.5,-9.555 -2.123,-9.829 c -0.625,-0.273 -1.363,-0.409 -2.219,-0.409 -1.247,0 -2.246,0.3 -2.996,0.903 -0.75,0.604 -1.125,1.395 -1.125,2.376 0,0.981 0.358,1.77 1.072,2.365 0.715,0.596 1.851,0.894 3.407,0.894 h 3.195 v 0.399 c 0,0.869 -0.251,1.534 -0.756,1.998 -0.505,0.462 -1.249,0.694 -2.228,0.694 -0.66,0 -1.305,-0.109 -1.936,-0.326 -0.63,-0.218 -1.162,-0.508 -1.598,-0.873 l -0.84,1.513 c 0.575,0.464 1.261,0.817 2.061,1.063 0.798,0.245 1.647,0.368 2.543,0.368 C -2.001,1.136 -0.82,0.757 0,0 m -2.009,-8.168 c 0.561,0.344 0.969,0.83 1.22,1.461 v 1.556 H -3.9 c -1.71,0 -2.565,-0.575 -2.565,-1.724 0,-0.561 0.217,-1.002 0.652,-1.324 0.434,-0.322 1.037,-0.484 1.807,-0.484 0.771,0 1.437,0.171 1.997,0.515"
               style="fill:#ffffff;fill-opacity:1;fill-rule:nonzero;stroke:none"
               id="path175" />
          </g>
          <g
             id="g177"
             transform="translate(373.2239,299.4877)">
            <path
               d="m 0,0 c 0.687,0.336 1.521,0.505 2.502,0.505 v -1.956 c -0.111,0.014 -0.266,0.022 -0.462,0.022 -1.094,0 -1.952,-0.326 -2.575,-0.978 -0.624,-0.652 -0.937,-1.58 -0.937,-2.785 v -5.551 H -3.489 V 0.399 h 1.934 V -1.472 C -1.205,-0.827 -0.687,-0.336 0,0"
               style="fill:#ffffff;fill-opacity:1;fill-rule:nonzero;stroke:none"
               id="path179" />
          </g>
          <g
             id="g181"
             transform="translate(384.9358,289.3959)">
            <path
               d="m 0,0 c -0.295,-0.252 -0.659,-0.444 -1.095,-0.578 -0.433,-0.133 -0.882,-0.199 -1.343,-0.199 -1.124,0 -1.992,0.3 -2.608,0.903 -0.618,0.603 -0.926,1.465 -0.926,2.586 V 8.83 h -1.891 v 1.661 h 1.891 v 2.439 h 2.019 v -2.439 h 3.196 V 8.83 H -3.953 V 2.797 c 0,-0.604 0.15,-1.066 0.452,-1.388 0.301,-0.323 0.732,-0.484 1.293,-0.484 0.616,0 1.143,0.176 1.577,0.526 z"
               style="fill:#ffffff;fill-opacity:1;fill-rule:nonzero;stroke:none"
               id="path183" />
          </g>
          <g
             id="g185"
             transform="translate(397.0247,293.644)">
            <path
               d="m 0,0 h -9.041 c 0.126,-0.981 0.557,-1.771 1.293,-2.366 0.735,-0.597 1.651,-0.894 2.744,-0.894 1.331,0 2.403,0.448 3.217,1.345 l 1.113,-1.303 c -0.505,-0.589 -1.132,-1.037 -1.881,-1.345 -0.75,-0.308 -1.588,-0.462 -2.512,-0.462 -1.178,0 -2.221,0.242 -3.132,0.724 -0.912,0.485 -1.616,1.16 -2.114,2.03 -0.498,0.869 -0.747,1.85 -0.747,2.943 0,1.08 0.243,2.053 0.726,2.923 0.483,0.868 1.148,1.545 1.997,2.029 0.848,0.482 1.805,0.725 2.87,0.725 1.065,0 2.016,-0.243 2.849,-0.725 C -1.784,5.14 -1.132,4.463 -0.662,3.595 -0.192,2.725 0.042,1.729 0.042,0.608 0.042,0.454 0.027,0.251 0,0 M -7.896,3.762 C -8.547,3.174 -8.929,2.403 -9.041,1.449 h 7.148 c -0.112,0.94 -0.494,1.707 -1.146,2.303 -0.651,0.596 -1.46,0.894 -2.428,0.894 -0.968,0 -1.777,-0.294 -2.429,-0.884"
               style="fill:#ffffff;fill-opacity:1;fill-rule:nonzero;stroke:none"
               id="path187" />
          </g>
          <g
             id="g189"
             transform="translate(410.3743,304.3442)">
            <path
               d="m 0,0 v -15.6 h -1.934 v 1.766 c -0.449,-0.617 -1.016,-1.086 -1.703,-1.409 -0.687,-0.321 -1.444,-0.483 -2.271,-0.483 -1.079,0 -2.046,0.238 -2.902,0.715 -0.854,0.477 -1.524,1.146 -2.006,2.007 -0.485,0.862 -0.727,1.855 -0.727,2.976 0,1.121 0.242,2.109 0.727,2.964 0.482,0.855 1.152,1.521 2.006,1.998 0.856,0.475 1.823,0.714 2.902,0.714 0.8,0 1.536,-0.151 2.208,-0.452 0.673,-0.301 1.233,-0.746 1.681,-1.335 V 0 Z m -3.826,-13.466 c 0.575,0.329 1.022,0.792 1.346,1.388 0.322,0.596 0.483,1.279 0.483,2.05 0,0.77 -0.161,1.454 -0.483,2.049 -0.324,0.596 -0.771,1.055 -1.346,1.378 -0.575,0.322 -1.212,0.483 -1.913,0.483 -0.715,0 -1.357,-0.161 -1.924,-0.483 -0.568,-0.323 -1.017,-0.782 -1.346,-1.378 -0.33,-0.595 -0.494,-1.279 -0.494,-2.049 0,-0.771 0.164,-1.454 0.494,-2.05 0.329,-0.596 0.778,-1.059 1.346,-1.388 0.567,-0.329 1.209,-0.494 1.924,-0.494 0.701,0 1.338,0.165 1.913,0.494"
               style="fill:#ffffff;fill-opacity:1;fill-rule:nonzero;stroke:none"
               id="path191" />
          </g>
        </g>
      </g>
      <g
         id="g193"
         transform="matrix(0.35277777,0,0,-0.35277777,154.3538,192.42375)">
        <path
           d="m 0,0 -4.164,-11.143 h -1.934 l -3.216,8.452 -3.259,-8.452 h -1.935 L -18.65,0 h 1.913 l 3.238,-8.872 3.364,8.872 h 1.702 L -5.131,-8.914 -1.81,0 Z"
           style="fill:#ffffff;fill-opacity:1;fill-rule:nonzero;stroke:none"
           id="path195" />
      </g>
      <g
         id="g197"
         transform="matrix(0.35277777,0,0,-0.35277777,0.28904029,298.21725)">
        <g
           id="g199"
           clip-path="url(#clipPath203)">
          <g
             id="g205"
             transform="translate(438.7893,302.4106)">
            <path
               d="M 0,0 C -0.26,0.252 -0.389,0.561 -0.389,0.925 -0.389,1.29 -0.26,1.601 0,1.86 0.26,2.12 0.585,2.249 0.978,2.249 1.37,2.249 1.696,2.126 1.956,1.881 2.214,1.636 2.345,1.331 2.345,0.967 2.345,0.589 2.214,0.27 1.956,0.011 1.696,-0.249 1.37,-0.379 0.978,-0.379 0.585,-0.379 0.26,-0.252 0,0 m -0.032,-2.523 h 2.019 v -11.143 h -2.019 z"
               style="fill:#ffffff;fill-opacity:1;fill-rule:nonzero;stroke:none"
               id="path207" />
          </g>
          <g
             id="g209"
             transform="translate(450.8899,289.3959)">
            <path
               d="m 0,0 c -0.295,-0.252 -0.66,-0.444 -1.095,-0.578 -0.433,-0.133 -0.882,-0.199 -1.344,-0.199 -1.123,0 -1.991,0.3 -2.608,0.903 -0.617,0.603 -0.925,1.465 -0.925,2.586 V 8.83 h -1.892 v 1.661 h 1.892 v 2.439 h 2.019 v -2.439 h 3.196 V 8.83 H -3.953 V 2.797 c 0,-0.604 0.15,-1.066 0.452,-1.388 0.301,-0.323 0.732,-0.484 1.293,-0.484 0.616,0 1.142,0.176 1.577,0.526 z"
               style="fill:#ffffff;fill-opacity:1;fill-rule:nonzero;stroke:none"
               id="path211" />
          </g>
          <g
             id="g213"
             transform="translate(462.6516,298.7631)">
            <path
               d="m 0,0 c 0.834,-0.82 1.251,-2.022 1.251,-3.606 v -6.413 h -2.018 v 6.182 c 0,1.078 -0.259,1.892 -0.779,2.439 -0.517,0.545 -1.261,0.82 -2.227,0.82 -1.094,0 -1.956,-0.319 -2.587,-0.957 -0.631,-0.638 -0.947,-1.553 -0.947,-2.743 v -5.741 h -2.017 v 15.6 h 2.017 v -6.033 c 0.421,0.532 0.972,0.945 1.652,1.24 0.678,0.295 1.44,0.441 2.281,0.441 C -1.958,1.229 -0.834,0.82 0,0"
               style="fill:#ffffff;fill-opacity:1;fill-rule:nonzero;stroke:none"
               id="path215" />
          </g>
          <g
             id="g217"
             transform="translate(473.595,303.4614)">
            <path
               d="m 0,0 h 6.202 c 1.557,0 2.936,-0.309 4.142,-0.925 1.205,-0.617 2.141,-1.481 2.807,-2.596 0.665,-1.115 0.999,-2.394 0.999,-3.837 0,-1.444 -0.334,-2.723 -0.999,-3.837 -0.666,-1.116 -1.602,-1.98 -2.807,-2.597 -1.206,-0.617 -2.585,-0.925 -4.142,-0.925 H 0 Z m 6.076,-12.889 c 1.192,0 2.239,0.233 3.143,0.695 0.905,0.462 1.601,1.11 2.093,1.945 0.491,0.833 0.736,1.798 0.736,2.891 0,1.092 -0.245,2.056 -0.736,2.89 -0.492,0.834 -1.188,1.484 -2.093,1.946 -0.904,0.461 -1.951,0.694 -3.143,0.694 H 2.103 v -11.061 z"
               style="fill:#ffffff;fill-opacity:1;fill-rule:nonzero;stroke:none"
               id="path219" />
          </g>
          <g
             id="g221"
             transform="translate(492.0442,289.0912)">
            <path
               d="M 0,0 C -1.03,0.343 -1.84,0.789 -2.429,1.335 L -1.65,2.976 C -1.091,2.471 -0.371,2.06 0.505,1.744 1.38,1.43 2.281,1.271 3.206,1.271 c 1.219,0 2.13,0.208 2.733,0.622 0.603,0.413 0.904,0.963 0.904,1.65 0,0.505 -0.164,0.914 -0.494,1.229 C 6.02,5.088 5.613,5.33 5.13,5.498 4.646,5.666 3.963,5.855 3.08,6.065 1.972,6.332 1.078,6.598 0.399,6.865 c -0.679,0.266 -1.261,0.676 -1.745,1.23 -0.484,0.552 -0.725,1.3 -0.725,2.239 0,0.784 0.206,1.492 0.62,2.123 0.413,0.631 1.04,1.136 1.882,1.514 0.84,0.379 1.884,0.568 3.132,0.568 0.87,0 1.725,-0.113 2.566,-0.337 0.841,-0.223 1.562,-0.547 2.165,-0.968 L 7.601,11.553 C 6.983,11.945 6.325,12.244 5.624,12.446 4.923,12.65 4.236,12.752 3.563,12.752 2.372,12.752 1.479,12.534 0.883,12.1 0.287,11.666 -0.011,11.104 -0.011,10.417 -0.011,9.913 0.157,9.503 0.494,9.188 0.83,8.872 1.247,8.627 1.744,8.452 2.242,8.276 2.918,8.092 3.773,7.895 4.881,7.628 5.771,7.362 6.444,7.096 7.116,6.83 7.694,6.423 8.179,5.876 8.662,5.33 8.903,4.594 8.903,3.669 8.903,2.897 8.693,2.193 8.272,1.557 7.853,0.918 7.214,0.413 6.36,0.042 5.505,-0.329 4.453,-0.516 3.206,-0.516 2.099,-0.516 1.03,-0.344 0,0"
               style="fill:#ffffff;fill-opacity:1;fill-rule:nonzero;stroke:none"
               id="path223" />
          </g>
        </g>
      </g>
      <g
         id="g225"
         transform="matrix(0.35277777,0,0,-0.35277777,181.40296,195.05681)">
        <path
           d="m 0,0 h -7.82 l -1.62,-3.679 h -2.165 l 6.665,14.717 h 2.081 L 3.827,-3.679 H 1.62 Z M -0.735,1.683 -3.91,8.895 -7.085,1.683 Z"
           style="fill:#ffffff;fill-opacity:1;fill-rule:nonzero;stroke:none"
           id="path227" />
      </g>
      <path
         d="m 173.1064,5.4117009 h 1.53106 V 1.2235232 h -1.53106 z"
         style="fill:#745e4c;fill-opacity:1;fill-rule:nonzero;stroke:none;stroke-width:0.352778"
         id="path229" />
      <g
         id="g231"
         transform="matrix(0.35277777,0,0,-0.35277777,0.28904029,298.21725)">
        <g
           id="g233"
           clip-path="url(#clipPath237)">
          <g
             id="g239"
             transform="translate(543.8391,841.8718)">
            <path
               d="m 0,0 h -4.384 c -0.017,-0.388 -0.025,-0.782 -0.025,-1.183 0,-3.245 0.541,-6.05 1.622,-8.417 0.863,-1.891 1.983,-3.421 3.36,-4.593 v 7.775 c -0.398,1.501 -0.598,3.246 -0.598,5.235 0,0.405 0.009,0.799 0.025,1.183 m 20.601,0 h -4.385 c 0.017,-0.384 0.025,-0.778 0.025,-1.183 0,-3.827 -0.739,-6.752 -2.214,-8.769 -1.477,-2.016 -3.442,-3.023 -5.898,-3.023 -1.188,0 -2.259,0.23 -3.217,0.691 v -4.189 c 1.014,-0.271 2.086,-0.406 3.217,-0.406 2.398,0 4.539,0.621 6.425,1.868 1.884,1.24 3.368,3.043 4.449,5.411 1.081,2.367 1.623,5.172 1.623,8.417 0,0.401 -0.008,0.795 -0.025,1.183"
               style="fill:#775f4d;fill-opacity:1;fill-rule:nonzero;stroke:none"
               id="path241" />
          </g>
          <g
             id="g243"
             transform="translate(102.777,839.4216)">
            <path
               d="m 0,0 h -8.142 v -3.816 h 6.927 v -26.876 h 4.34 v 30.57 C 2.781,-0.149 2.433,-0.163 2.079,-0.163 1.362,-0.163 0.669,-0.108 0,0"
               style="fill:#685546;fill-opacity:1;fill-rule:nonzero;stroke:none"
               id="path245" />
          </g>
        </g>
      </g>
      <g
         id="g247"
         transform="matrix(0.35277777,0,0,-0.35277777,66.640471,17.46647)">
        <path
           d="M 0,0 H -11.267 V -3.814 H -4.34 V -30.691 H 0 Z"
           style="fill:#3d3731;fill-opacity:1;fill-rule:nonzero;stroke:none"
           id="path249" />
      </g>
      <g
         id="g251"
         transform="matrix(0.35277777,0,0,-0.35277777,0.28904029,298.21725)">
        <g
           id="g253"
           clip-path="url(#clipPath257)">
          <g
             id="g259"
             transform="translate(544.4121,827.6789)">
            <path
               d="M 0,0 V -12.455 H 4.339 V -2.281 C 3.179,-1.971 2.096,-1.484 1.091,-0.819 0.711,-0.569 0.347,-0.296 0,0 M 4.339,14.193 H 0 V 7.775 C 0.368,6.388 0.906,5.21 1.615,4.241 2.387,3.189 3.295,2.411 4.339,1.909 Z"
               style="fill:#584a3e;fill-opacity:1;fill-rule:nonzero;stroke:none"
               id="path261" />
          </g>
          <g
             id="g263"
             transform="translate(544.4121,835.4539)">
            <path
               d="m 0,0 v -7.775 c 0.347,-0.296 0.711,-0.569 1.091,-0.819 1.005,-0.665 2.088,-1.152 3.248,-1.462 v 4.19 C 3.295,-5.364 2.387,-4.586 1.615,-3.534 0.906,-2.565 0.368,-1.387 0,0"
               style="fill:#785f4d;fill-opacity:1;fill-rule:nonzero;stroke:none"
               id="path265" />
          </g>
          <g
             id="g267"
             transform="translate(222.8608,772.4058)">
            <path
               d="m 0,0 c -2.483,0 -4.464,1.006 -5.941,3.022 -1.475,2.018 -2.214,4.942 -2.214,8.77 0,3.828 0.739,6.752 2.214,8.768 1.477,2.017 3.458,3.028 5.941,3.028 2.455,0 4.42,-1.011 5.898,-3.028 C 7.373,18.544 8.111,15.62 8.111,11.792 8.111,7.964 7.373,5.04 5.898,3.022 4.42,1.006 2.455,0 0,0 m 0,27.489 c -1.531,0 -2.953,-0.248 -4.268,-0.742 v -2.086 h -3.457 c -1.3,-1.154 -2.364,-2.638 -3.192,-4.452 -1.081,-2.367 -1.623,-5.172 -1.623,-8.417 0,-3.246 0.542,-6.051 1.623,-8.418 1.081,-2.368 2.565,-4.171 4.451,-5.412 1.884,-1.246 4.04,-1.867 6.466,-1.867 2.397,0 4.538,0.621 6.424,1.867 1.884,1.241 3.368,3.044 4.449,5.412 1.081,2.367 1.622,5.172 1.622,8.418 0,3.245 -0.541,6.05 -1.622,8.417 C 9.792,22.577 8.308,24.384 6.424,25.626 4.538,26.867 2.397,27.489 0,27.489"
               style="fill:#614f42;fill-opacity:1;fill-rule:nonzero;stroke:none"
               id="path269" />
          </g>
        </g>
      </g>
      <path
         d="m 167.94209,7.5738759 h 1.5307 V 1.2235232 h -1.5307 z"
         style="fill:#705a49;fill-opacity:1;fill-rule:nonzero;stroke:none;stroke-width:0.352778"
         id="path271" />
      <g
         id="g273"
         transform="matrix(0.35277777,0,0,-0.35277777,0.28904029,298.21725)">
        <g
           id="g275"
           clip-path="url(#clipPath279)">
          <g
             id="g281"
             transform="translate(61.9604,841.8718)">
            <path
               d="m 0,0 h -4.393 c 0.159,-1.06 0.238,-2.216 0.238,-3.469 0,-3.829 -0.739,-6.753 -2.213,-8.771 -1.478,-2.016 -3.443,-3.022 -5.899,-3.022 -2.483,0 -4.464,1.006 -5.94,3.022 -1.476,2.018 -2.214,4.942 -2.214,8.771 0,1.253 0.079,2.409 0.238,3.469 h -4.394 c -0.153,-1.095 -0.229,-2.251 -0.229,-3.469 0,-3.247 0.542,-6.052 1.623,-8.419 1.081,-2.368 2.564,-4.171 4.45,-5.412 1.885,-1.246 4.04,-1.867 6.466,-1.867 2.398,0 4.539,0.621 6.425,1.867 1.884,1.241 3.367,3.044 4.448,5.412 1.082,2.367 1.623,5.172 1.623,8.419 C 0.229,-2.251 0.153,-1.095 0,0"
               style="fill:#5a4a3e;fill-opacity:1;fill-rule:nonzero;stroke:none"
               id="path283" />
          </g>
          <g
             id="g285"
             transform="translate(470.7798,698.5889)">
            <path
               d="m 0,0 c -2.483,0 -4.464,1.006 -5.941,3.023 -1.475,2.017 -2.213,4.941 -2.213,8.769 0,3.828 0.738,6.752 2.213,8.769 1.477,2.017 3.458,3.028 5.941,3.028 2.456,0 4.42,-1.011 5.898,-3.028 C 7.373,18.544 8.111,15.62 8.111,11.792 8.111,7.964 7.373,5.04 5.898,3.023 4.42,1.006 2.456,0 0,0 m 0,27.489 c -2.426,0 -4.581,-0.621 -6.466,-1.863 -1.886,-1.241 -3.369,-3.048 -4.451,-5.416 -1.08,-2.368 -1.623,-5.172 -1.623,-8.418 0,-2.836 0.415,-5.334 1.24,-7.5 1.931,-0.171 3.682,-0.774 5.257,-1.811 1.884,-1.241 3.367,-3.049 4.449,-5.416 0.136,-0.299 0.263,-0.604 0.383,-0.916 0.396,-0.036 0.799,-0.054 1.211,-0.054 2.397,0 4.539,0.621 6.425,1.867 1.883,1.242 3.367,3.044 4.447,5.413 1.082,2.368 1.624,5.171 1.624,8.417 0,3.246 -0.542,6.05 -1.624,8.418 -1.08,2.368 -2.564,4.175 -4.447,5.416 C 4.539,26.868 2.397,27.489 0,27.489"
               style="fill:#4a4038;fill-opacity:1;fill-rule:nonzero;stroke:none"
               id="path287" />
          </g>
        </g>
      </g>
      <g
         id="g289"
         transform="matrix(0.35277777,0,0,-0.35277777,174.69898,25.822964)">
        <path
           d="m 0,0 h -11.268 v -3.815 h 6.927 V -30.691 H 0 Z"
           style="fill:#6a5647;fill-opacity:1;fill-rule:nonzero;stroke:none"
           id="path291" />
      </g>
      <g
         id="g293"
         transform="matrix(0.35277777,0,0,-0.35277777,66.911404,42.380448)">
        <path
           d="M 0,0 H -11.268 V -3.815 H -4.34 V -30.692 H 0 Z"
           style="fill:#32302c;fill-opacity:1;fill-rule:nonzero;stroke:none"
           id="path295" />
      </g>
      <g
         id="g297"
         transform="matrix(0.35277777,0,0,-0.35277777,0.28904029,298.21725)">
        <g
           id="g299"
           clip-path="url(#clipPath303)">
          <g
             id="g305"
             transform="translate(53.5144,783.6801)">
            <path
               d="m 0,0 c -1.374,-0.293 -2.645,-0.823 -3.811,-1.592 -1.759,-1.157 -3.167,-2.806 -4.225,-4.942 0.172,-0.011 0.347,-0.016 0.525,-0.016 2.456,0 4.421,1.007 5.897,3.024 C -0.906,-2.559 -0.368,-1.384 0,0 M 4.463,0.146 C 4.197,-1.043 3.83,-2.15 3.362,-3.175 3.289,-3.334 3.215,-3.49 3.139,-3.643 5.37,-3.769 7.173,-4.775 8.552,-6.657 c 1.475,-2.017 2.213,-4.942 2.213,-8.77 0,-3.827 -0.738,-6.751 -2.213,-8.768 -1.477,-2.017 -3.442,-3.022 -5.898,-3.022 -2.484,0 -4.464,1.005 -5.94,3.022 -1.477,2.017 -2.215,4.941 -2.215,8.768 0,1.991 0.2,3.737 0.599,5.238 -0.833,-0.177 -1.703,-0.266 -2.609,-0.266 -0.636,0 -1.253,0.042 -1.851,0.128 -0.348,-1.558 -0.523,-3.258 -0.523,-5.1 0,-3.245 0.542,-6.049 1.623,-8.417 1.081,-2.368 2.564,-4.171 4.451,-5.412 1.883,-1.246 4.039,-1.867 6.465,-1.867 2.397,0 4.539,0.621 6.424,1.867 1.885,1.241 3.368,3.044 4.449,5.412 1.082,2.368 1.623,5.172 1.623,8.417 0,3.247 -0.541,6.051 -1.623,8.418 -1.081,2.369 -2.564,4.176 -4.449,5.417 -1.398,0.92 -2.936,1.499 -4.615,1.738"
               style="fill:#6f5a4a;fill-opacity:1;fill-rule:nonzero;stroke:none"
               id="path307" />
          </g>
          <g
             id="g309"
             transform="translate(395.8032,841.8718)">
            <path
               d="m 0,0 h -10.177 c 1.543,-0.734 3.246,-1.099 5.109,-1.099 1.84,0 3.529,0.365 5.068,1.099"
               style="fill:#53473c;fill-opacity:1;fill-rule:nonzero;stroke:none"
               id="path311" />
          </g>
          <g
             id="g313"
             transform="translate(408.519,761.4902)">
            <path
               d="m 0,0 c -2.483,0 -4.464,1.007 -5.941,3.024 -1.475,2.017 -2.213,4.941 -2.213,8.769 0,3.828 0.738,6.751 2.213,8.768 1.477,2.017 3.458,3.028 5.941,3.028 2.456,0 4.42,-1.011 5.898,-3.028 1.475,-2.017 2.213,-4.94 2.213,-8.768 C 8.111,7.965 7.373,5.041 5.898,3.024 4.42,1.007 2.456,0 0,0 m 0,27.489 c -2.426,0 -4.582,-0.621 -6.465,-1.862 -1.887,-1.242 -3.37,-3.049 -4.451,-5.417 -1.081,-2.368 -1.624,-5.172 -1.624,-8.417 0,-3.247 0.543,-6.05 1.624,-8.418 1.081,-2.368 2.564,-4.17 4.451,-5.413 1.883,-1.246 4.039,-1.866 6.465,-1.866 2.397,0 4.539,0.62 6.425,1.866 1.883,1.243 3.367,3.045 4.447,5.413 1.083,2.368 1.624,5.171 1.624,8.418 0,3.245 -0.541,6.049 -1.624,8.417 -1.08,2.368 -2.564,4.175 -4.447,5.417 C 4.539,26.868 2.397,27.489 0,27.489"
               style="fill:#3d3731;fill-opacity:1;fill-rule:nonzero;stroke:none"
               id="path315" />
          </g>
        </g>
      </g>
      <g
         id="g317"
         transform="matrix(0.35277777,0,0,-0.35277777,177.91014,14.602479)">
        <path
           d="M 0,0 H -11.268 V -3.814 H -4.34 V -30.691 H 0 Z"
           style="fill:#53473c;fill-opacity:1;fill-rule:nonzero;stroke:none"
           id="path319" />
      </g>
      <g
         id="g321"
         transform="matrix(0.35277777,0,0,-0.35277777,66.239892,5.3047034)">
        <path
           d="m 0,0 h -11.267 v -3.816 h 6.928 V -30.692 H 0 Z"
           style="fill:#443c35;fill-opacity:1;fill-rule:nonzero;stroke:none"
           id="path323" />
      </g>
      <g
         id="g325"
         transform="matrix(0.35277777,0,0,-0.35277777,0.28904029,298.21725)">
        <g
           id="g327"
           clip-path="url(#clipPath331)">
          <g
             id="g333"
             transform="translate(89.2483,740.54)">
            <path
               d="m 0,0 c -2.483,0 -4.464,1.005 -5.941,3.023 -1.475,2.017 -2.213,4.941 -2.213,8.769 0,3.828 0.738,6.751 2.213,8.768 1.477,2.017 3.458,3.028 5.941,3.028 2.456,0 4.421,-1.011 5.899,-3.028 C 7.373,18.543 8.111,15.62 8.111,11.792 8.111,7.964 7.373,5.04 5.899,3.023 4.421,1.005 2.456,0 0,0 m 0,27.489 c -2.425,0 -4.581,-0.621 -6.465,-1.864 -1.887,-1.241 -3.37,-3.048 -4.451,-5.416 -1.081,-2.368 -1.623,-5.172 -1.623,-8.417 0,-3.247 0.542,-6.05 1.623,-8.418 1.081,-2.369 2.564,-4.17 4.451,-5.413 1.884,-1.246 4.04,-1.867 6.465,-1.867 2.397,0 4.539,0.621 6.425,1.867 1.883,1.243 3.367,3.044 4.449,5.413 1.081,2.368 1.622,5.171 1.622,8.418 0,3.245 -0.541,6.049 -1.622,8.417 C 9.792,22.577 8.308,24.384 6.425,25.625 4.539,26.868 2.397,27.489 0,27.489"
               style="fill:#3d3731;fill-opacity:1;fill-rule:nonzero;stroke:none"
               id="path335" />
          </g>
        </g>
      </g>
      <path
         d="m 207.40875,7.2620203 h 1.53106 V 1.223876 h -1.53106 z"
         style="fill:#614f42;fill-opacity:1;fill-rule:nonzero;stroke:none;stroke-width:0.352778"
         id="path337" />
      <g
         id="g339"
         transform="matrix(0.35277777,0,0,-0.35277777,0.28904029,298.21725)">
        <g
           id="g341"
           clip-path="url(#clipPath345)">
          <g
             id="g347"
             transform="translate(59.894,722.7795)">
            <path
               d="m 0,0 c -2.484,0 -4.464,1.006 -5.941,3.024 -1.475,2.017 -2.213,4.941 -2.213,8.768 0,3.829 0.738,6.752 2.213,8.77 1.477,2.017 3.457,3.027 5.941,3.027 2.454,0 4.42,-1.01 5.898,-3.027 1.475,-2.018 2.214,-4.941 2.214,-8.77 C 8.112,7.965 7.373,5.041 5.898,3.024 4.42,1.006 2.454,0 0,0 m 0,27.489 c -2.426,0 -4.581,-0.621 -6.466,-1.863 -1.886,-1.241 -3.369,-3.047 -4.45,-5.416 -1.081,-2.368 -1.624,-5.173 -1.624,-8.418 0,-3.245 0.543,-6.05 1.624,-8.417 1.081,-2.369 2.564,-4.17 4.45,-5.413 1.885,-1.246 4.04,-1.866 6.466,-1.866 2.398,0 4.539,0.62 6.425,1.866 1.883,1.243 3.367,3.044 4.447,5.413 1.082,2.367 1.623,5.172 1.623,8.417 0,3.245 -0.541,6.05 -1.623,8.418 -1.08,2.369 -2.564,4.175 -4.447,5.416 C 4.539,26.868 2.398,27.489 0,27.489"
               style="fill:#50443a;fill-opacity:1;fill-rule:nonzero;stroke:none"
               id="path349" />
          </g>
          <g
             id="g351"
             transform="translate(532.4814,651.8151)">
            <path
               d="m 0,0 c -2.483,0 -4.463,1.006 -5.941,3.023 -1.475,2.017 -2.214,4.942 -2.214,8.769 0,3.828 0.739,6.752 2.214,8.769 1.478,2.017 3.458,3.028 5.941,3.028 2.456,0 4.421,-1.011 5.898,-3.028 C 7.373,18.544 8.111,15.62 8.111,11.792 8.111,7.965 7.373,5.04 5.898,3.023 4.421,1.006 2.456,0 0,0 m 0,27.489 c -2.425,0 -4.582,-0.621 -6.465,-1.863 -1.886,-1.241 -3.369,-3.048 -4.452,-5.416 -1.081,-2.369 -1.622,-5.172 -1.622,-8.418 0,-3.246 0.541,-6.05 1.622,-8.418 1.083,-2.368 2.566,-4.17 4.452,-5.411 1.883,-1.246 4.04,-1.867 6.465,-1.867 2.397,0 4.538,0.621 6.425,1.867 1.884,1.241 3.367,3.043 4.448,5.411 1.081,2.368 1.624,5.172 1.624,8.418 0,3.246 -0.543,6.049 -1.624,8.418 C 9.792,22.578 8.309,24.385 6.425,25.626 4.538,26.868 2.397,27.489 0,27.489"
               style="fill:#39342f;fill-opacity:1;fill-rule:nonzero;stroke:none"
               id="path353" />
          </g>
          <g
             id="g355"
             transform="translate(468.886,747.955)">
            <path
               d="m 0,0 c -2.483,0 -4.464,1.006 -5.941,3.023 -1.475,2.017 -2.213,4.942 -2.213,8.77 0,3.828 0.738,6.751 2.213,8.768 1.477,2.017 3.458,3.028 5.941,3.028 2.456,0 4.421,-1.011 5.898,-3.028 1.475,-2.017 2.213,-4.94 2.213,-8.768 C 8.111,7.965 7.373,5.04 5.898,3.023 4.421,1.006 2.456,0 0,0 m 0,27.489 c -2.426,0 -4.581,-0.622 -6.464,-1.862 -1.887,-1.243 -3.371,-3.049 -4.453,-5.417 -1.08,-2.368 -1.622,-5.172 -1.622,-8.417 0,-3.247 0.542,-6.051 1.622,-8.418 1.082,-2.369 2.566,-4.171 4.453,-5.413 1.883,-1.246 4.038,-1.866 6.464,-1.866 2.397,0 4.539,0.62 6.425,1.866 1.884,1.242 3.367,3.044 4.448,5.413 1.082,2.367 1.623,5.171 1.623,8.418 0,3.245 -0.541,6.049 -1.623,8.417 C 9.792,22.578 8.309,24.384 6.425,25.627 4.539,26.867 2.397,27.489 0,27.489"
               style="fill:#453d36;fill-opacity:1;fill-rule:nonzero;stroke:none"
               id="path357" />
          </g>
        </g>
      </g>
      <g
         id="g359"
         transform="matrix(0.35277777,0,0,-0.35277777,109.39752,56.463371)">
        <path
           d="m 0,0 h -11.267 v -3.816 h 6.928 V -30.692 H 0 Z"
           style="fill:#312e2a;fill-opacity:1;fill-rule:nonzero;stroke:none"
           id="path361" />
      </g>
      <g
         id="g363"
         transform="matrix(0.35277777,0,0,-0.35277777,0.28904029,298.21725)">
        <g
           id="g365"
           clip-path="url(#clipPath369)">
          <g
             id="g371"
             transform="translate(56.168,780.0502)">
            <path
               d="m 0,0 c -2.484,0 -4.463,-1.01 -5.94,-3.027 -0.709,-0.969 -1.247,-2.146 -1.616,-3.532 1.371,0.293 2.643,0.826 3.816,1.601 1.758,1.159 3.167,2.806 4.226,4.945 C 0.326,-0.004 0.164,0 0,0 m -10.165,24.569 c -2.425,0 -4.582,-0.621 -6.465,-1.863 -1.886,-1.241 -3.37,-3.049 -4.45,-5.416 -1.082,-2.368 -1.624,-5.172 -1.624,-8.417 0,-3.247 0.542,-6.051 1.624,-8.419 1.08,-2.367 2.564,-4.169 4.45,-5.412 1.39,-0.92 2.928,-1.499 4.614,-1.74 0.266,1.189 0.633,2.295 1.1,3.319 0.074,0.161 0.149,0.319 0.226,0.474 -2.239,0.134 -4.044,1.136 -5.417,3.009 -1.474,2.016 -2.212,4.939 -2.212,8.769 0,3.827 0.738,6.751 2.212,8.768 1.479,2.016 3.459,3.027 5.942,3.027 2.456,0 4.421,-1.011 5.898,-3.027 1.475,-2.017 2.213,-4.941 2.213,-8.768 0,-1.993 -0.2,-3.741 -0.6,-5.243 0.846,0.18 1.73,0.27 2.654,0.27 0.62,0 1.223,-0.041 1.809,-0.125 0.348,1.558 0.522,3.256 0.522,5.098 0,3.245 -0.542,6.049 -1.623,8.417 -1.081,2.367 -2.564,4.175 -4.448,5.416 -1.886,1.242 -4.028,1.863 -6.425,1.863"
               style="fill:#6d5948;fill-opacity:1;fill-rule:nonzero;stroke:none"
               id="path373" />
          </g>
          <g
             id="g375"
             transform="translate(56.168,783.9504)">
            <path
               d="m 0,0 c -0.924,0 -1.808,-0.09 -2.654,-0.27 -0.368,-1.384 -0.906,-2.56 -1.613,-3.526 -1.477,-2.017 -3.442,-3.024 -5.898,-3.024 -0.178,0 -0.353,0.005 -0.525,0.015 -0.077,-0.155 -0.152,-0.313 -0.226,-0.474 -0.467,-1.024 -0.834,-2.13 -1.1,-3.319 0.599,-0.085 1.216,-0.128 1.851,-0.128 0.906,0 1.776,0.089 2.609,0.267 0.369,1.386 0.907,2.563 1.616,3.532 1.477,2.016 3.456,3.027 5.94,3.027 0.164,0 0.326,-0.005 0.486,-0.014 0.076,0.154 0.15,0.31 0.222,0.468 0.468,1.025 0.835,2.132 1.101,3.321 C 1.223,-0.042 0.62,0 0,0"
               style="fill:#785f4d;fill-opacity:1;fill-rule:nonzero;stroke:none"
               id="path377" />
          </g>
          <g
             id="g379"
             transform="translate(283.0029,770.8661)">
            <path
               d="m 0,0 v -10.497 h 0.788 c 0.193,1.149 0.29,2.417 0.29,3.804 C 1.078,-4.021 0.719,-1.79 0,0 M 4.34,20.194 H -6.928 V 16.378 H 0 V 6.71 C 1.598,5.494 2.879,3.832 3.841,1.724 4.023,1.326 4.189,0.916 4.34,0.493 Z"
               style="fill:#53473c;fill-opacity:1;fill-rule:nonzero;stroke:none"
               id="path381" />
          </g>
          <g
             id="g383"
             transform="translate(323.3403,841.8718)">
            <path
               d="m 0,0 h -1.915 c 0.479,-1.771 0.72,-3.736 0.72,-5.896 0,-3.246 -0.542,-6.049 -1.623,-8.418 -0.441,-0.965 -0.948,-1.835 -1.522,-2.613 v -8.147 H 0 Z"
               style="fill:#3e3832;fill-opacity:1;fill-rule:nonzero;stroke:none"
               id="path385" />
          </g>
          <g
             id="g387"
             transform="translate(257.0854,648.9311)">
            <path
               d="m 0,0 c -2.483,0 -4.464,1.007 -5.941,3.024 -1.475,2.016 -2.214,4.941 -2.214,8.768 0,3.828 0.739,6.753 2.214,8.77 1.477,2.016 3.458,3.026 5.941,3.026 2.455,0 4.42,-1.01 5.898,-3.026 C 7.373,18.545 8.111,15.62 8.111,11.792 8.111,7.965 7.373,5.04 5.898,3.024 4.42,1.007 2.455,0 0,0 m 0,27.49 c -2.426,0 -4.582,-0.622 -6.466,-1.864 -1.886,-1.241 -3.37,-3.048 -4.451,-5.416 -1.081,-2.367 -1.623,-5.172 -1.623,-8.418 0,-3.245 0.542,-6.05 1.623,-8.417 1.081,-2.368 2.565,-4.171 4.451,-5.413 1.884,-1.245 4.04,-1.867 6.466,-1.867 2.397,0 4.538,0.622 6.424,1.867 1.884,1.242 3.368,3.045 4.449,5.413 1.081,2.367 1.623,5.172 1.623,8.417 0,3.246 -0.542,6.051 -1.623,8.418 C 9.792,22.578 8.308,24.385 6.424,25.626 4.538,26.868 2.397,27.49 0,27.49"
               style="fill:#322f2b;fill-opacity:1;fill-rule:nonzero;stroke:none"
               id="path389" />
          </g>
        </g>
      </g>
      <path
         d="M 74.950575,6.1500648 H 76.48163 V 1.223876 h -1.531055 z"
         style="fill:#725d4b;fill-opacity:1;fill-rule:nonzero;stroke:none;stroke-width:0.352778"
         id="path391" />
      <g
         id="g393"
         transform="matrix(0.35277777,0,0,-0.35277777,0.28904029,298.21725)">
        <g
           id="g395"
           clip-path="url(#clipPath399)">
          <g
             id="g401"
             transform="translate(422.9839,722.9842)">
            <path
               d="m 0,0 c -2.483,0 -4.464,1.005 -5.941,3.022 -1.475,2.017 -2.214,4.941 -2.214,8.769 0,3.828 0.739,6.752 2.214,8.769 1.477,2.017 3.458,3.028 5.941,3.028 2.455,0 4.42,-1.011 5.898,-3.028 C 7.373,18.543 8.111,15.619 8.111,11.791 8.111,7.963 7.373,5.039 5.898,3.022 4.42,1.005 2.455,0 0,0 m 0,27.488 c -2.426,0 -4.581,-0.622 -6.466,-1.863 -1.886,-1.242 -3.369,-3.048 -4.45,-5.416 -1.081,-2.368 -1.623,-5.172 -1.623,-8.418 0,-3.246 0.542,-6.05 1.623,-8.417 1.081,-2.369 2.564,-4.171 4.45,-5.414 1.885,-1.245 4.04,-1.865 6.466,-1.865 2.397,0 4.538,0.62 6.425,1.865 1.883,1.243 3.367,3.045 4.448,5.414 1.081,2.367 1.623,5.171 1.623,8.417 0,3.246 -0.542,6.05 -1.623,8.418 C 9.792,22.577 8.308,24.383 6.425,25.625 4.538,26.866 2.397,27.488 0,27.488"
               style="fill:#4f433a;fill-opacity:1;fill-rule:nonzero;stroke:none"
               id="path403" />
          </g>
          <g
             id="g405"
             transform="translate(312.1138,710.0932)">
            <path
               d="m 0,0 c -2.484,0 -4.463,1.006 -5.941,3.023 -1.475,2.017 -2.213,4.941 -2.213,8.769 0,3.828 0.738,6.752 2.213,8.768 1.478,2.017 3.457,3.028 5.941,3.028 2.456,0 4.42,-1.011 5.898,-3.028 C 7.373,18.544 8.112,15.62 8.112,11.792 8.112,7.964 7.373,5.04 5.898,3.023 4.42,1.006 2.456,0 0,0 m 0,27.489 c -2.427,0 -4.581,-0.622 -6.465,-1.863 -1.887,-1.242 -3.37,-3.049 -4.452,-5.416 -1.08,-2.368 -1.623,-5.173 -1.623,-8.418 0,-3.246 0.543,-6.05 1.623,-8.418 1.082,-2.368 2.565,-4.171 4.452,-5.412 1.884,-1.246 4.038,-1.867 6.465,-1.867 2.397,0 4.539,0.621 6.425,1.867 1.883,1.241 3.367,3.044 4.449,5.412 1.081,2.368 1.622,5.172 1.622,8.418 0,3.245 -0.541,6.05 -1.622,8.418 C 9.792,22.577 8.308,24.384 6.425,25.626 4.539,26.867 2.397,27.489 0,27.489"
               style="fill:#3e3832;fill-opacity:1;fill-rule:nonzero;stroke:none"
               id="path407" />
          </g>
          <g
             id="g409"
             transform="translate(324.5249,626.4611)">
            <path
               d="m 0,0 c -2.483,0 -4.464,1.007 -5.941,3.024 -1.475,2.016 -2.213,4.94 -2.213,8.769 0,3.828 0.738,6.751 2.213,8.768 1.477,2.016 3.458,3.028 5.941,3.028 2.456,0 4.42,-1.012 5.898,-3.028 1.475,-2.017 2.214,-4.94 2.214,-8.768 C 8.112,7.964 7.373,5.04 5.898,3.024 4.42,1.007 2.456,0 0,0 m 0,27.489 c -2.426,0 -4.581,-0.621 -6.465,-1.863 -1.887,-1.241 -3.37,-3.049 -4.451,-5.416 -1.081,-2.368 -1.624,-5.173 -1.624,-8.417 0,-3.247 0.543,-6.051 1.624,-8.418 1.081,-2.368 2.564,-4.17 4.451,-5.413 1.884,-1.246 4.039,-1.867 6.465,-1.867 2.397,0 4.539,0.621 6.425,1.867 1.883,1.243 3.367,3.045 4.449,5.413 1.081,2.367 1.622,5.171 1.622,8.418 0,3.244 -0.541,6.049 -1.622,8.417 C 9.792,22.577 8.308,24.385 6.425,25.626 4.539,26.868 2.397,27.489 0,27.489"
               style="fill:#443c35;fill-opacity:1;fill-rule:nonzero;stroke:none"
               id="path411" />
          </g>
        </g>
      </g>
      <g
         id="g413"
         transform="matrix(0.35277777,0,0,-0.35277777,205.99249,49.167962)">
        <path
           d="m 0,0 h -11.267 v -3.816 h 6.928 V -30.692 H 0 Z"
           style="fill:#705a49;fill-opacity:1;fill-rule:nonzero;stroke:none"
           id="path415" />
      </g>
      <g
         id="g417"
         transform="matrix(0.35277777,0,0,-0.35277777,0.28904029,298.21725)">
        <g
           id="g419"
           clip-path="url(#clipPath423)">
          <g
             id="g425"
             transform="translate(458.3115,675.444)">
            <path
               d="m 0,0 c -2.484,0 -4.463,1.006 -5.94,3.023 -1.475,2.017 -2.214,4.941 -2.214,8.769 0,3.828 0.739,6.751 2.214,8.768 1.477,2.017 3.456,3.028 5.94,3.028 2.456,0 4.421,-1.011 5.898,-3.028 C 7.373,18.543 8.113,15.62 8.113,11.792 8.113,7.964 7.373,5.04 5.898,3.023 4.421,1.006 2.456,0 0,0 m 0,27.488 c -2.425,0 -4.581,-0.62 -6.465,-1.862 -1.886,-1.241 -3.37,-3.049 -4.451,-5.416 -1.081,-2.369 -1.623,-5.173 -1.623,-8.418 0,-3.247 0.542,-6.05 1.623,-8.418 1.081,-2.368 2.565,-4.17 4.451,-5.413 1.884,-1.246 4.04,-1.866 6.465,-1.866 2.399,0 4.539,0.62 6.425,1.866 1.884,1.243 3.367,3.045 4.449,5.413 1.081,2.368 1.622,5.171 1.622,8.418 0,2.836 -0.413,5.336 -1.239,7.502 -1.939,0.175 -3.69,0.778 -5.255,1.813 C 4.116,22.349 2.633,24.151 1.552,26.52 1.416,26.818 1.288,27.124 1.168,27.437 0.786,27.471 0.396,27.488 0,27.488"
               style="fill:#5b4c41;fill-opacity:1;fill-rule:nonzero;stroke:none"
               id="path427" />
          </g>
          <g
             id="g429"
             transform="translate(459.48,702.881)">
            <path
               d="M 0,0 C 0.119,-0.313 0.247,-0.619 0.383,-0.917 1.464,-3.286 2.948,-5.088 4.833,-6.33 6.399,-7.365 8.15,-7.968 10.088,-8.143 9.969,-7.831 9.842,-7.526 9.706,-7.227 8.624,-4.86 7.14,-3.052 5.256,-1.811 3.682,-0.774 1.931,-0.171 0,0"
               style="fill:#685546;fill-opacity:1;fill-rule:nonzero;stroke:none"
               id="path431" />
          </g>
          <g
             id="g433"
             transform="translate(218.5925,827.7582)">
            <path
               d="m 0,0 h -11.267 v -3.815 h 6.928 v -26.877 h 0.883 c 0.397,0.353 0.817,0.674 1.258,0.965 0.696,0.459 1.428,0.832 2.198,1.122 z"
               style="fill:#52463b;fill-opacity:1;fill-rule:nonzero;stroke:none"
               id="path435" />
          </g>
          <g
             id="g437"
             transform="translate(218.5925,799.1529)">
            <path
               d="M 0,0 C -0.77,-0.289 -1.502,-0.663 -2.198,-1.121 -2.639,-1.412 -3.059,-1.734 -3.456,-2.087 H 0 Z"
               style="fill:#6d5948;fill-opacity:1;fill-rule:nonzero;stroke:none"
               id="path439" />
          </g>
        </g>
      </g>
      <g
         id="g441"
         transform="matrix(0.35277777,0,0,-0.35277777,11.752554,76.781713)">
        <path
           d="m 0,0 h -11.267 v -3.815 h 6.928 V -30.691 H 0 Z"
           style="fill:#4f433a;fill-opacity:1;fill-rule:nonzero;stroke:none"
           id="path443" />
      </g>
      <g
         id="g445"
         transform="matrix(0.35277777,0,0,-0.35277777,0.28904029,298.21725)">
        <g
           id="g447"
           clip-path="url(#clipPath451)">
          <g
             id="g453"
             transform="translate(127.7799,635.0336)">
            <path
               d="m 0,0 c -2.484,0 -4.464,1.005 -5.941,3.022 -1.475,2.018 -2.213,4.942 -2.213,8.77 0,3.828 0.738,6.751 2.213,8.768 1.477,2.017 3.457,3.028 5.941,3.028 2.455,0 4.42,-1.011 5.898,-3.028 C 7.373,18.543 8.112,15.62 8.112,11.792 8.112,7.964 7.373,5.04 5.898,3.022 4.42,1.005 2.455,0 0,0 m 0,27.488 c -2.426,0 -4.581,-0.621 -6.465,-1.862 -1.887,-1.242 -3.37,-3.049 -4.451,-5.416 -1.081,-2.369 -1.624,-5.173 -1.624,-8.418 0,-3.247 0.543,-6.05 1.624,-8.418 1.081,-2.369 2.564,-4.171 4.451,-5.412 1.884,-1.246 4.039,-1.867 6.465,-1.867 2.398,0 4.539,0.621 6.425,1.867 1.883,1.241 3.367,3.043 4.447,5.412 1.083,2.368 1.623,5.171 1.623,8.418 0,3.245 -0.54,6.049 -1.623,8.418 -1.08,2.367 -2.564,4.174 -4.447,5.416 C 4.539,26.867 2.398,27.488 0,27.488"
               style="fill:#4a4038;fill-opacity:1;fill-rule:nonzero;stroke:none"
               id="path455" />
          </g>
          <g
             id="g457"
             transform="translate(455.7332,630.5035)">
            <path
               d="m 0,0 c -2.484,0 -4.464,1.005 -5.941,3.023 -1.475,2.017 -2.213,4.941 -2.213,8.769 0,3.828 0.738,6.752 2.213,8.768 1.477,2.017 3.457,3.028 5.941,3.028 2.454,0 4.42,-1.011 5.898,-3.028 C 7.373,18.544 8.111,15.62 8.111,11.792 8.111,7.964 7.373,5.04 5.898,3.023 4.42,1.005 2.454,0 0,0 m 0,27.488 c -2.427,0 -4.581,-0.62 -6.466,-1.862 -1.886,-1.241 -3.369,-3.049 -4.451,-5.416 -1.08,-2.369 -1.623,-5.173 -1.623,-8.418 0,-3.246 0.543,-6.05 1.623,-8.418 1.082,-2.369 2.565,-4.171 4.451,-5.412 1.885,-1.246 4.039,-1.866 6.466,-1.866 2.397,0 4.538,0.62 6.425,1.866 1.883,1.241 3.367,3.043 4.447,5.412 1.081,2.368 1.623,5.172 1.623,8.418 0,3.245 -0.542,6.049 -1.623,8.418 -1.08,2.367 -2.564,4.175 -4.447,5.416 C 4.538,26.868 2.397,27.488 0,27.488"
               style="fill:#584a3e;fill-opacity:1;fill-rule:nonzero;stroke:none"
               id="path459" />
          </g>
          <g
             id="g461"
             transform="translate(123.9642,718.57)">
            <path
               d="m 0,0 c -2.484,0 -4.464,1.006 -5.941,3.023 -1.475,2.017 -2.214,4.941 -2.214,8.769 0,3.828 0.739,6.751 2.214,8.768 1.477,2.017 3.457,3.028 5.941,3.028 2.455,0 4.421,-1.011 5.898,-3.028 C 7.373,18.543 8.111,15.62 8.111,11.792 8.111,7.964 7.373,5.04 5.898,3.023 4.421,1.006 2.455,0 0,0 m 0,27.489 c -2.426,0 -4.581,-0.621 -6.466,-1.863 -1.886,-1.241 -3.369,-3.049 -4.45,-5.416 -1.081,-2.369 -1.624,-5.172 -1.624,-8.418 0,-3.247 0.543,-6.05 1.624,-8.418 1.081,-2.368 2.564,-4.17 4.45,-5.412 1.885,-1.246 4.04,-1.867 6.466,-1.867 2.397,0 4.538,0.621 6.425,1.867 1.883,1.242 3.367,3.044 4.448,5.412 1.081,2.368 1.623,5.171 1.623,8.418 0,3.246 -0.542,6.049 -1.623,8.418 C 9.792,22.577 8.308,24.385 6.425,25.626 4.538,26.868 2.397,27.489 0,27.489"
               style="fill:#51453c;fill-opacity:1;fill-rule:nonzero;stroke:none"
               id="path463" />
          </g>
        </g>
      </g>
      <g
         id="g465"
         transform="matrix(0.35277777,0,0,-0.35277777,11.005406,34.560881)">
        <path
           d="m 0,0 h -11.266 v -3.815 h 6.927 V -30.69 H 0 Z"
           style="fill:#625144;fill-opacity:1;fill-rule:nonzero;stroke:none"
           id="path467" />
      </g>
      <g
         id="g469"
         transform="matrix(0.35277777,0,0,-0.35277777,102.72068,71.500806)">
        <path
           d="m 0,0 h -11.267 v -3.815 h 6.928 V -30.692 H 0 Z"
           style="fill:#35312c;fill-opacity:1;fill-rule:nonzero;stroke:none"
           id="path471" />
      </g>
      <g
         id="g473"
         transform="matrix(0.35277777,0,0,-0.35277777,0.28904029,298.21725)">
        <g
           id="g475"
           clip-path="url(#clipPath479)">
          <g
             id="g481"
             transform="translate(275.9697,779.8693)">
            <path
               d="m 0,0 c -2.425,0 -4.581,-0.62 -6.464,-1.862 -1.887,-1.242 -3.37,-3.049 -4.451,-5.417 -1.082,-2.367 -1.624,-5.172 -1.624,-8.417 0,-3.246 0.542,-6.051 1.624,-8.418 1.081,-2.368 2.564,-4.171 4.451,-5.412 1.883,-1.246 4.039,-1.867 6.464,-1.867 2.397,0 4.539,0.621 6.425,1.867 1.884,1.241 3.368,3.044 4.449,5.412 1.081,2.367 1.623,5.172 1.623,8.418 0,2.7 -0.375,5.094 -1.123,7.186 V -19.5 H 7.821 C 7.48,-21.523 6.839,-23.179 5.899,-24.465 4.421,-26.482 2.456,-27.488 0,-27.488 c -2.483,0 -4.462,1.006 -5.94,3.023 -1.476,2.017 -2.214,4.941 -2.214,8.769 0,3.828 0.738,6.752 2.214,8.769 1.478,2.016 3.457,3.027 5.94,3.027 2.456,0 4.421,-1.011 5.899,-3.027 0.445,-0.61 0.823,-1.301 1.134,-2.076 v 6.71 c -0.198,0.15 -0.4,0.294 -0.608,0.431 C 4.539,-0.62 2.397,0 0,0"
               style="fill:#36322d;fill-opacity:1;fill-rule:nonzero;stroke:none"
               id="path483" />
          </g>
          <g
             id="g485"
             transform="translate(283.0029,777.5762)">
            <path
               d="m 0,0 v -6.71 c 0.719,-1.79 1.078,-4.021 1.078,-6.693 0,-1.387 -0.097,-2.655 -0.29,-3.804 H 4.34 v 10.99 C 4.189,-5.794 4.023,-5.384 3.841,-4.986 2.879,-2.879 1.598,-1.216 0,0"
               style="fill:#5a4a3e;fill-opacity:1;fill-rule:nonzero;stroke:none"
               id="path487" />
          </g>
        </g>
      </g>
      <g
         id="g489"
         transform="matrix(0.35277777,0,0,-0.35277777,154.72509,45.024905)">
        <path
           d="m 0,0 h -11.267 v -3.816 h 6.928 V -30.692 H 0 Z"
           style="fill:#423a34;fill-opacity:1;fill-rule:nonzero;stroke:none"
           id="path491" />
      </g>
      <g
         id="g493"
         transform="matrix(0.35277777,0,0,-0.35277777,0.28904029,298.21725)">
        <g
           id="g495"
           clip-path="url(#clipPath499)">
          <g
             id="g501"
             transform="translate(112.2843,841.8718)">
            <path
               d="m 0,0 h -14.898 c 0.321,-0.268 0.656,-0.517 1.005,-0.746 1.327,-0.878 2.789,-1.446 4.386,-1.704 h 3.124 v -0.122 c 1.979,0.156 3.772,0.764 5.379,1.826 C -0.656,-0.517 -0.321,-0.268 0,0"
               style="fill:#655345;fill-opacity:1;fill-rule:nonzero;stroke:none"
               id="path503" />
          </g>
          <g
             id="g505"
             transform="translate(105.9015,839.4216)">
            <path
               d="m 0,0 h -3.125 c 0.67,-0.108 1.363,-0.163 2.079,-0.163 0.354,0 0.703,0.014 1.046,0.041 z"
               style="fill:#755e4c;fill-opacity:1;fill-rule:nonzero;stroke:none"
               id="path507" />
          </g>
        </g>
      </g>
      <g
         id="g509"
         transform="matrix(0.35277777,0,0,-0.35277777,86.059088,70.842346)">
        <path
           d="M 0,0 H -11.268 V -3.814 H -4.34 V -30.691 H 0 Z"
           style="fill:#655345;fill-opacity:1;fill-rule:nonzero;stroke:none"
           id="path511" />
      </g>
      <g
         id="g513"
         transform="matrix(0.35277777,0,0,-0.35277777,0.28904029,298.21725)">
        <g
           id="g515"
           clip-path="url(#clipPath519)">
          <g
             id="g521"
             transform="translate(319.0007,841.8718)">
            <path
               d="m 0,0 h -2.032 c 0.527,-1.642 0.791,-3.608 0.791,-5.896 0,-3.828 -0.738,-6.753 -2.213,-8.769 -1.478,-2.017 -3.443,-3.022 -5.899,-3.022 -2.483,0 -4.463,1.005 -5.94,3.022 -1.475,2.016 -2.214,4.941 -2.214,8.769 0,2.288 0.264,4.254 0.792,5.896 h -4.457 c -0.48,-1.771 -0.72,-3.736 -0.72,-5.896 0,-3.246 0.542,-6.049 1.624,-8.418 1.081,-2.368 2.565,-4.171 4.45,-5.411 1.884,-1.247 4.04,-1.868 6.465,-1.868 2.398,0 4.539,0.621 6.426,1.868 1.116,0.735 2.092,1.668 2.927,2.798 z"
               style="fill:#755e4c;fill-opacity:1;fill-rule:nonzero;stroke:none"
               id="path523" />
          </g>
          <g
             id="g525"
             transform="translate(321.4253,841.8718)">
            <path
               d="m 0,0 h -2.425 v -16.927 c 0.574,0.778 1.081,1.648 1.522,2.613 1.081,2.369 1.623,5.172 1.623,8.418 C 0.72,-3.736 0.479,-1.771 0,0"
               style="fill:#755e4c;fill-opacity:1;fill-rule:nonzero;stroke:none"
               id="path527" />
          </g>
        </g>
      </g>
      <g
         id="g529"
         transform="matrix(0.35277777,0,0,-0.35277777,60.378136,272.70789)">
        <path
           d="m 0,0 v -12.434 h -1.635 v 9.272 l -4.132,-9.272 h -1.15 l -4.15,9.289 v -9.289 h -1.635 V 0 h 1.761 L -6.342,-10.277 -1.742,0 Z"
           style="fill:#ffffff;fill-opacity:1;fill-rule:nonzero;stroke:none"
           id="path531" />
      </g>
      <g
         id="g533"
         transform="matrix(0.35277777,0,0,-0.35277777,0.28904029,298.21725)">
        <g
           id="g535"
           clip-path="url(#clipPath539)">
          <g
             id="g541"
             transform="translate(173.0989,67.4858)">
            <path
               d="m 0,0 c 0.407,0.761 0.967,1.351 1.68,1.77 0.713,0.418 1.506,0.628 2.381,0.628 0.862,0 1.61,-0.185 2.246,-0.556 C 6.941,1.47 7.414,1.003 7.726,0.44 V 2.236 H 9.379 V -7.609 H 7.726 v 1.833 C 7.402,-6.352 6.92,-6.828 6.279,-7.205 5.639,-7.582 4.893,-7.771 4.042,-7.771 3.168,-7.771 2.377,-7.556 1.671,-7.124 0.964,-6.693 0.407,-6.088 0,-5.31 c -0.407,0.779 -0.611,1.665 -0.611,2.66 0,1.005 0.204,1.889 0.611,2.65 M 7.276,-0.728 C 6.977,-0.177 6.572,0.245 6.063,0.539 5.555,0.832 4.994,0.979 4.384,0.979 3.772,0.979 3.216,0.835 2.713,0.548 2.21,0.261 1.809,-0.159 1.509,-0.71 1.209,-1.261 1.06,-1.908 1.06,-2.65 c 0,-0.755 0.149,-1.411 0.449,-1.968 0.3,-0.557 0.701,-0.983 1.204,-1.276 0.503,-0.293 1.059,-0.44 1.671,-0.44 0.61,0 1.171,0.147 1.679,0.44 0.509,0.293 0.914,0.719 1.213,1.276 0.3,0.557 0.45,1.207 0.45,1.95 0,0.742 -0.15,1.389 -0.45,1.94"
               style="fill:#ffffff;fill-opacity:1;fill-rule:nonzero;stroke:none"
               id="path543" />
          </g>
          <g
             id="g545"
             transform="translate(185.2454,67.4858)">
            <path
               d="m 0,0 c 0.407,0.761 0.967,1.351 1.68,1.77 0.713,0.418 1.511,0.628 2.398,0.628 0.767,0 1.48,-0.176 2.139,-0.53 C 6.875,1.515 7.378,1.051 7.726,0.476 V 5.687 H 9.379 V -7.609 H 7.726 v 1.85 C 7.402,-6.346 6.923,-6.828 6.288,-7.205 5.653,-7.582 4.911,-7.771 4.061,-7.771 3.186,-7.771 2.393,-7.556 1.68,-7.124 0.967,-6.693 0.407,-6.088 0,-5.31 c -0.407,0.779 -0.611,1.665 -0.611,2.66 0,1.005 0.204,1.889 0.611,2.65 M 7.276,-0.728 C 6.977,-0.177 6.572,0.245 6.063,0.539 5.555,0.832 4.994,0.979 4.384,0.979 3.772,0.979 3.216,0.835 2.713,0.548 2.21,0.261 1.809,-0.159 1.509,-0.71 1.209,-1.261 1.06,-1.908 1.06,-2.65 c 0,-0.755 0.149,-1.411 0.449,-1.968 0.3,-0.557 0.701,-0.983 1.204,-1.276 0.503,-0.293 1.059,-0.44 1.671,-0.44 0.61,0 1.171,0.147 1.679,0.44 0.509,0.293 0.914,0.719 1.213,1.276 0.3,0.557 0.45,1.207 0.45,1.95 0,0.742 -0.15,1.389 -0.45,1.94"
               style="fill:#ffffff;fill-opacity:1;fill-rule:nonzero;stroke:none"
               id="path547" />
          </g>
          <g
             id="g549"
             transform="translate(206.3206,64.1889)">
            <path
               d="m 0,0 h -7.87 c 0.059,-0.971 0.392,-1.729 0.997,-2.273 0.605,-0.545 1.339,-0.818 2.201,-0.818 0.707,0 1.297,0.165 1.77,0.494 0.473,0.329 0.805,0.77 0.998,1.321 h 1.76 c -0.263,-0.947 -0.791,-1.716 -1.582,-2.309 -0.79,-0.593 -1.772,-0.89 -2.946,-0.89 -0.934,0 -1.769,0.21 -2.506,0.629 -0.737,0.42 -1.315,1.016 -1.734,1.788 -0.419,0.773 -0.629,1.668 -0.629,2.687 0,1.017 0.204,1.91 0.611,2.677 0.408,0.766 0.979,1.356 1.716,1.769 0.736,0.413 1.584,0.62 2.542,0.62 0.935,0 1.761,-0.204 2.48,-0.611 C -1.474,4.677 -0.92,4.117 -0.53,3.404 -0.142,2.691 0.054,1.886 0.054,0.988 0.054,0.676 0.036,0.347 0,0 m -2.049,2.938 c -0.275,0.449 -0.649,0.79 -1.123,1.024 -0.473,0.233 -0.997,0.35 -1.571,0.35 -0.827,0 -1.53,-0.264 -2.111,-0.791 C -7.436,2.994 -7.769,2.264 -7.852,1.329 h 6.216 c 0,0.623 -0.137,1.159 -0.413,1.609"
               style="fill:#ffffff;fill-opacity:1;fill-rule:nonzero;stroke:none"
               id="path551" />
          </g>
        </g>
      </g>
      <g
         id="g553"
         transform="matrix(0.35277777,0,0,-0.35277777,80.173309,273.62084)">
        <path
           d="m 0,0 -3.073,-9.846 h -1.689 l -2.372,7.816 -2.371,-7.816 h -1.689 L -14.284,0 h 1.671 L -10.35,-8.265 -7.906,0 h 1.671 L -3.846,-8.282 -1.617,0 Z"
           style="fill:#ffffff;fill-opacity:1;fill-rule:nonzero;stroke:none"
           id="path555" />
      </g>
      <g
         id="g557"
         transform="matrix(0.35277777,0,0,-0.35277777,0.28904029,298.21725)">
        <g
           id="g559"
           clip-path="url(#clipPath563)">
          <g
             id="g565"
             transform="translate(228.1145,71.645)">
            <path
               d="m 0,0 c -0.216,0.216 -0.323,0.479 -0.323,0.791 0,0.311 0.107,0.574 0.323,0.79 0.216,0.216 0.479,0.323 0.79,0.323 0.3,0 0.555,-0.107 0.764,-0.323 C 1.764,1.365 1.868,1.102 1.868,0.791 1.868,0.479 1.764,0.216 1.554,0 1.345,-0.216 1.09,-0.323 0.79,-0.323 0.479,-0.323 0.216,-0.216 0,0 m 1.581,-11.769 h -1.635 v 9.846 h 1.635 z"
               style="fill:#ffffff;fill-opacity:1;fill-rule:nonzero;stroke:none"
               id="path567" />
          </g>
          <g
             id="g569"
             transform="translate(234.4749,68.3754)">
            <path
               d="M 0,0 V -5.804 C 0,-6.283 0.102,-6.621 0.306,-6.819 0.509,-7.017 0.862,-7.115 1.365,-7.115 H 2.569 V -8.499 H 1.096 c -0.91,0 -1.593,0.209 -2.048,0.629 -0.455,0.419 -0.683,1.107 -0.683,2.066 V 0 h -1.276 v 1.347 h 1.276 V 3.826 H 0 V 1.347 H 2.569 V 0 Z"
               style="fill:#ffffff;fill-opacity:1;fill-rule:nonzero;stroke:none"
               id="path571" />
          </g>
          <g
             id="g573"
             transform="translate(245.9202,69.4262)">
            <path
               d="M 0,0 C 0.599,-0.317 1.068,-0.794 1.41,-1.429 1.752,-2.063 1.922,-2.836 1.922,-3.746 V -9.55 H 0.305 v 5.571 c 0,0.981 -0.245,1.733 -0.737,2.254 -0.491,0.521 -1.162,0.782 -2.011,0.782 -0.864,0 -1.549,-0.27 -2.058,-0.809 -0.51,-0.539 -0.764,-1.323 -0.764,-2.353 V -9.55 H -6.899 V 3.746 h 1.634 v -4.851 c 0.324,0.502 0.77,0.892 1.339,1.167 0.569,0.276 1.206,0.414 1.913,0.414 C -1.271,0.476 -0.6,0.317 0,0"
               style="fill:#ffffff;fill-opacity:1;fill-rule:nonzero;stroke:none"
               id="path575" />
          </g>
          <g
             id="g577"
             transform="translate(288.8977,67.4858)">
            <path
               d="m 0,0 c 0.407,0.761 0.967,1.351 1.68,1.77 0.713,0.418 1.506,0.628 2.381,0.628 0.862,0 1.61,-0.185 2.246,-0.556 C 6.941,1.47 7.414,1.003 7.726,0.44 V 2.236 H 9.379 V -7.609 H 7.726 v 1.833 C 7.402,-6.352 6.92,-6.828 6.279,-7.205 5.639,-7.582 4.893,-7.771 4.042,-7.771 3.168,-7.771 2.377,-7.556 1.671,-7.124 0.964,-6.693 0.407,-6.088 0,-5.31 c -0.407,0.779 -0.611,1.665 -0.611,2.66 0,1.005 0.204,1.889 0.611,2.65 M 7.276,-0.728 C 6.977,-0.177 6.572,0.245 6.063,0.539 5.555,0.832 4.994,0.979 4.384,0.979 3.772,0.979 3.216,0.835 2.713,0.548 2.21,0.261 1.809,-0.159 1.509,-0.71 1.209,-1.261 1.06,-1.908 1.06,-2.65 c 0,-0.755 0.149,-1.411 0.449,-1.968 0.3,-0.557 0.701,-0.983 1.204,-1.276 0.503,-0.293 1.059,-0.44 1.671,-0.44 0.61,0 1.171,0.147 1.679,0.44 0.509,0.293 0.914,0.719 1.213,1.276 0.3,0.557 0.45,1.207 0.45,1.95 0,0.742 -0.15,1.389 -0.45,1.94"
               style="fill:#ffffff;fill-opacity:1;fill-rule:nonzero;stroke:none"
               id="path579" />
          </g>
          <g
             id="g581"
             transform="translate(303.0374,68.3754)">
            <path
               d="M 0,0 V -5.804 C 0,-6.283 0.102,-6.621 0.306,-6.819 0.509,-7.017 0.862,-7.115 1.365,-7.115 H 2.569 V -8.499 H 1.096 c -0.91,0 -1.593,0.209 -2.048,0.629 -0.455,0.419 -0.683,1.107 -0.683,2.066 V 0 h -1.276 v 1.347 h 1.276 V 3.826 H 0 V 1.347 H 2.569 V 0 Z"
               style="fill:#ffffff;fill-opacity:1;fill-rule:nonzero;stroke:none"
               id="path583" />
          </g>
          <g
             id="g585"
             transform="translate(321.8674,68.77)">
            <path
               d="M 0,0 C -0.348,0.73 -0.851,1.297 -1.509,1.698 -2.168,2.1 -2.935,2.3 -3.809,2.3 c -0.875,0 -1.662,-0.2 -2.363,-0.602 -0.7,-0.401 -1.252,-0.976 -1.652,-1.724 -0.403,-0.749 -0.603,-1.615 -0.603,-2.597 0,-0.982 0.2,-1.845 0.603,-2.587 0.4,-0.743 0.952,-1.315 1.652,-1.716 0.701,-0.401 1.488,-0.602 2.363,-0.602 1.222,0 2.228,0.365 3.019,1.096 0.79,0.731 1.251,1.719 1.383,2.964 h -4.995 v 1.33 H 2.336 V -3.396 C 2.24,-4.426 1.916,-5.369 1.365,-6.226 0.814,-7.082 0.09,-7.759 -0.809,-8.256 c -0.898,-0.497 -1.898,-0.745 -3,-0.745 -1.162,0 -2.222,0.272 -3.18,0.817 -0.958,0.545 -1.716,1.303 -2.273,2.273 -0.557,0.971 -0.836,2.066 -0.836,3.288 0,1.222 0.279,2.32 0.836,3.297 0.557,0.976 1.315,1.737 2.273,2.282 0.958,0.545 2.018,0.817 3.18,0.817 1.33,0 2.506,-0.33 3.531,-0.988 C 0.746,2.126 1.491,1.198 1.959,0 Z"
               style="fill:#76c14e;fill-opacity:1;fill-rule:nonzero;stroke:none"
               id="path587" />
          </g>
          <g
             id="g589"
             transform="translate(335.2893,64.1889)">
            <path
               d="m 0,0 h -7.87 c 0.059,-0.971 0.392,-1.729 0.997,-2.273 0.605,-0.545 1.339,-0.818 2.201,-0.818 0.707,0 1.297,0.165 1.77,0.494 0.473,0.329 0.805,0.77 0.998,1.321 h 1.76 c -0.263,-0.947 -0.791,-1.716 -1.582,-2.309 -0.79,-0.593 -1.772,-0.89 -2.946,-0.89 -0.934,0 -1.769,0.21 -2.506,0.629 -0.737,0.42 -1.315,1.016 -1.734,1.788 -0.419,0.773 -0.629,1.668 -0.629,2.687 0,1.017 0.204,1.91 0.611,2.677 0.408,0.766 0.979,1.356 1.716,1.769 0.736,0.413 1.584,0.62 2.542,0.62 0.935,0 1.761,-0.204 2.48,-0.611 C -1.474,4.677 -0.92,4.117 -0.53,3.404 -0.142,2.691 0.054,1.886 0.054,0.988 0.054,0.676 0.036,0.347 0,0 m -2.049,2.938 c -0.275,0.449 -0.649,0.79 -1.123,1.024 -0.473,0.233 -0.997,0.35 -1.571,0.35 -0.827,0 -1.53,-0.264 -2.111,-0.791 C -7.436,2.994 -7.769,2.264 -7.852,1.329 h 6.216 c 0,0.623 -0.137,1.159 -0.413,1.609"
               style="fill:#76c14e;fill-opacity:1;fill-rule:nonzero;stroke:none"
               id="path591" />
          </g>
          <g
             id="g593"
             transform="translate(346.429,64.1889)">
            <path
               d="m 0,0 h -7.87 c 0.059,-0.971 0.392,-1.729 0.997,-2.273 0.605,-0.545 1.339,-0.818 2.201,-0.818 0.707,0 1.297,0.165 1.77,0.494 0.473,0.329 0.805,0.77 0.998,1.321 h 1.76 c -0.263,-0.947 -0.791,-1.716 -1.582,-2.309 -0.79,-0.593 -1.772,-0.89 -2.946,-0.89 -0.934,0 -1.769,0.21 -2.506,0.629 -0.737,0.42 -1.315,1.016 -1.734,1.788 -0.419,0.773 -0.629,1.668 -0.629,2.687 0,1.017 0.204,1.91 0.611,2.677 0.408,0.766 0.979,1.356 1.716,1.769 0.736,0.413 1.584,0.62 2.542,0.62 0.935,0 1.761,-0.204 2.48,-0.611 C -1.474,4.677 -0.92,4.117 -0.53,3.404 -0.142,2.691 0.054,1.886 0.054,0.988 0.054,0.676 0.036,0.347 0,0 m -2.049,2.938 c -0.275,0.449 -0.649,0.79 -1.123,1.024 -0.473,0.233 -0.997,0.35 -1.571,0.35 -0.827,0 -1.53,-0.264 -2.111,-0.791 C -7.436,2.994 -7.769,2.264 -7.852,1.329 h 6.216 c 0,0.623 -0.137,1.159 -0.413,1.609"
               style="fill:#76c14e;fill-opacity:1;fill-rule:nonzero;stroke:none"
               id="path595" />
          </g>
        </g>
      </g>
      <g
         id="g597"
         transform="matrix(0.35277777,0,0,-0.35277777,125.2207,277.09419)">
        <path
           d="M 0,0 -3.863,4.348 V 0 h -1.635 v 13.296 h 1.635 V 5.48 l 3.791,4.366 H 2.21 L -2.426,4.941 2.228,0 Z"
           style="fill:#76c14e;fill-opacity:1;fill-rule:nonzero;stroke:none"
           id="path599" />
      </g>
      <g
         id="g601"
         transform="matrix(0.35277777,0,0,-0.35277777,0.28904029,298.21725)">
        <g
           id="g603"
           clip-path="url(#clipPath607)">
          <g
             id="g609"
             transform="translate(359.3469,60.101)">
            <path
               d="m 0,0 c -0.6,0.258 -1.072,0.617 -1.42,1.078 -0.347,0.461 -0.538,0.991 -0.574,1.59 h 1.688 C -0.258,2.177 -0.027,1.775 0.387,1.464 0.8,1.152 1.342,0.997 2.013,0.997 c 0.622,0 1.113,0.138 1.472,0.413 0.36,0.276 0.539,0.623 0.539,1.042 0,0.432 -0.191,0.752 -0.575,0.962 C 3.066,3.623 2.474,3.83 1.671,4.033 0.94,4.226 0.344,4.42 -0.117,4.617 c -0.461,0.198 -0.857,0.491 -1.186,0.881 -0.329,0.389 -0.494,0.901 -0.494,1.536 0,0.503 0.15,0.964 0.449,1.384 0.3,0.419 0.725,0.751 1.276,0.997 0.551,0.245 1.179,0.368 1.886,0.368 1.09,0 1.971,-0.275 2.642,-0.826 C 5.127,8.405 5.486,7.651 5.534,6.692 H 3.898 C 3.863,7.208 3.656,7.621 3.279,7.933 2.901,8.244 2.396,8.399 1.761,8.399 1.174,8.399 0.707,8.274 0.359,8.022 0.012,7.771 -0.162,7.441 -0.162,7.034 c 0,-0.323 0.105,-0.59 0.314,-0.8 C 0.362,6.025 0.626,5.857 0.943,5.731 1.261,5.605 1.701,5.465 2.264,5.31 2.971,5.117 3.546,4.929 3.988,4.743 4.432,4.558 4.812,4.279 5.13,3.908 5.447,3.536 5.611,3.052 5.624,2.452 5.624,1.913 5.474,1.429 5.175,0.997 4.875,0.566 4.453,0.228 3.908,-0.018 3.362,-0.264 2.737,-0.387 2.03,-0.387 1.275,-0.387 0.599,-0.258 0,0"
               style="fill:#76c14e;fill-opacity:1;fill-rule:nonzero;stroke:none"
               id="path611" />
          </g>
          <g
             id="g613"
             transform="translate(371.2776,68.3754)">
            <path
               d="M 0,0 H -2.066 V -8.499 H -3.702 V 0 h -1.276 v 1.347 h 1.276 v 0.701 c 0,1.101 0.285,1.907 0.853,2.417 0.57,0.509 1.483,0.763 2.741,0.763 V 3.862 C -0.827,3.862 -1.333,3.722 -1.627,3.44 -1.92,3.158 -2.066,2.694 -2.066,2.048 V 1.347 H 0 Z"
               style="fill:#76c14e;fill-opacity:1;fill-rule:nonzero;stroke:none"
               id="path615" />
          </g>
          <g
             id="g617"
             transform="translate(374.969,60.3432)">
            <path
               d="m 0,0 c -0.748,0.42 -1.335,1.016 -1.761,1.788 -0.425,0.773 -0.637,1.668 -0.637,2.687 0,1.005 0.218,1.895 0.656,2.668 0.436,0.772 1.033,1.365 1.787,1.778 0.755,0.413 1.6,0.62 2.534,0.62 0.934,0 1.778,-0.207 2.533,-0.62 C 5.866,8.508 6.462,7.918 6.899,7.151 7.337,6.385 7.556,5.492 7.556,4.475 7.556,3.456 7.331,2.561 6.882,1.788 6.433,1.016 5.824,0.42 5.059,0 4.291,-0.419 3.441,-0.629 2.507,-0.629 1.584,-0.629 0.749,-0.419 0,0 m 4.16,1.222 c 0.515,0.275 0.931,0.689 1.248,1.24 0.318,0.551 0.477,1.222 0.477,2.013 0,0.79 -0.156,1.461 -0.468,2.011 C 5.105,7.037 4.699,7.448 4.195,7.718 3.692,7.987 3.147,8.121 2.561,8.121 1.962,8.121 1.414,7.987 0.917,7.718 0.42,7.448 0.021,7.037 -0.278,6.486 c -0.3,-0.55 -0.45,-1.221 -0.45,-2.011 0,-0.803 0.147,-1.48 0.441,-2.031 C 0.006,1.893 0.398,1.482 0.89,1.213 1.381,0.943 1.92,0.809 2.507,0.809 c 0.587,0 1.138,0.137 1.653,0.413"
               style="fill:#76c14e;fill-opacity:1;fill-rule:nonzero;stroke:none"
               id="path619" />
          </g>
          <g
             id="g621"
             transform="translate(387.5461,69.435)">
            <path
               d="m 0,0 c 0.533,0.312 1.183,0.467 1.949,0.467 v -1.689 h -0.43 c -1.833,0 -2.749,-0.994 -2.749,-2.982 v -5.355 h -1.635 v 9.846 h 1.635 v -1.599 c 0.287,0.563 0.697,1 1.23,1.312"
               style="fill:#76c14e;fill-opacity:1;fill-rule:nonzero;stroke:none"
               id="path623" />
          </g>
          <g
             id="g625"
             transform="translate(400.8684,68.77)">
            <path
               d="M 0,0 C -0.348,0.73 -0.851,1.297 -1.509,1.698 -2.168,2.1 -2.935,2.3 -3.809,2.3 c -0.875,0 -1.662,-0.2 -2.363,-0.602 -0.7,-0.401 -1.252,-0.976 -1.652,-1.724 -0.403,-0.749 -0.603,-1.615 -0.603,-2.597 0,-0.982 0.2,-1.845 0.603,-2.587 0.4,-0.743 0.952,-1.315 1.652,-1.716 0.701,-0.401 1.488,-0.602 2.363,-0.602 1.222,0 2.228,0.365 3.019,1.096 0.79,0.731 1.251,1.719 1.383,2.964 h -4.995 v 1.33 H 2.336 V -3.396 C 2.24,-4.426 1.916,-5.369 1.365,-6.226 0.814,-7.082 0.09,-7.759 -0.809,-8.256 c -0.898,-0.497 -1.898,-0.745 -3,-0.745 -1.162,0 -2.222,0.272 -3.18,0.817 -0.958,0.545 -1.716,1.303 -2.273,2.273 -0.557,0.971 -0.836,2.066 -0.836,3.288 0,1.222 0.279,2.32 0.836,3.297 0.557,0.976 1.315,1.737 2.273,2.282 0.958,0.545 2.018,0.817 3.18,0.817 1.33,0 2.506,-0.33 3.531,-0.988 C 0.746,2.126 1.491,1.198 1.959,0 Z"
               style="fill:#76c14e;fill-opacity:1;fill-rule:nonzero;stroke:none"
               id="path627" />
          </g>
          <g
             id="g629"
             transform="translate(414.2903,64.1889)">
            <path
               d="m 0,0 h -7.87 c 0.059,-0.971 0.392,-1.729 0.997,-2.273 0.605,-0.545 1.339,-0.818 2.201,-0.818 0.707,0 1.297,0.165 1.77,0.494 0.473,0.329 0.805,0.77 0.998,1.321 h 1.76 c -0.263,-0.947 -0.791,-1.716 -1.582,-2.309 -0.79,-0.593 -1.772,-0.89 -2.946,-0.89 -0.934,0 -1.769,0.21 -2.506,0.629 -0.737,0.42 -1.315,1.016 -1.734,1.788 -0.419,0.773 -0.629,1.668 -0.629,2.687 0,1.017 0.204,1.91 0.611,2.677 0.408,0.766 0.979,1.356 1.716,1.769 0.736,0.413 1.584,0.62 2.542,0.62 0.935,0 1.761,-0.204 2.48,-0.611 C -1.474,4.677 -0.92,4.117 -0.53,3.404 -0.142,2.691 0.054,1.886 0.054,0.988 0.054,0.676 0.036,0.347 0,0 m -2.049,2.938 c -0.275,0.449 -0.649,0.79 -1.123,1.024 -0.473,0.233 -0.997,0.35 -1.571,0.35 -0.827,0 -1.53,-0.264 -2.111,-0.791 C -7.436,2.994 -7.769,2.264 -7.852,1.329 h 6.216 c 0,0.623 -0.137,1.159 -0.413,1.609"
               style="fill:#76c14e;fill-opacity:1;fill-rule:nonzero;stroke:none"
               id="path631" />
          </g>
          <g
             id="g633"
             transform="translate(425.4299,64.1889)">
            <path
               d="m 0,0 h -7.87 c 0.059,-0.971 0.392,-1.729 0.997,-2.273 0.605,-0.545 1.339,-0.818 2.201,-0.818 0.707,0 1.297,0.165 1.77,0.494 0.473,0.329 0.805,0.77 0.998,1.321 h 1.76 c -0.263,-0.947 -0.791,-1.716 -1.582,-2.309 -0.79,-0.593 -1.772,-0.89 -2.946,-0.89 -0.934,0 -1.769,0.21 -2.506,0.629 -0.737,0.42 -1.315,1.016 -1.734,1.788 -0.419,0.773 -0.629,1.668 -0.629,2.687 0,1.017 0.204,1.91 0.611,2.677 0.408,0.766 0.979,1.356 1.716,1.769 0.736,0.413 1.584,0.62 2.542,0.62 0.935,0 1.761,-0.204 2.48,-0.611 C -1.474,4.677 -0.92,4.117 -0.53,3.404 -0.142,2.691 0.054,1.886 0.054,0.988 0.054,0.676 0.036,0.347 0,0 m -2.049,2.938 c -0.275,0.449 -0.649,0.79 -1.123,1.024 -0.473,0.233 -0.997,0.35 -1.571,0.35 -0.827,0 -1.53,-0.264 -2.111,-0.791 C -7.436,2.994 -7.769,2.264 -7.852,1.329 h 6.216 c 0,0.623 -0.137,1.159 -0.413,1.609"
               style="fill:#76c14e;fill-opacity:1;fill-rule:nonzero;stroke:none"
               id="path635" />
          </g>
        </g>
      </g>
      <g
         id="g637"
         transform="matrix(0.35277777,0,0,-0.35277777,153.09046,277.09419)">
        <path
           d="M 0,0 -3.863,4.348 V 0 h -1.635 v 13.296 h 1.635 V 5.48 l 3.791,4.366 H 2.21 L -2.426,4.941 2.228,0 Z"
           style="fill:#76c14e;fill-opacity:1;fill-rule:nonzero;stroke:none"
           id="path639" />
      </g>
      <g
         id="g641"
         transform="matrix(0.35277777,0,0,-0.35277777,0.28904029,298.21725)">
        <g
           id="g643"
           clip-path="url(#clipPath647)">
          <g
             id="g649"
             transform="translate(438.3479,60.101)">
            <path
               d="m 0,0 c -0.6,0.258 -1.072,0.617 -1.42,1.078 -0.347,0.461 -0.538,0.991 -0.574,1.59 h 1.688 C -0.258,2.177 -0.027,1.775 0.387,1.464 0.8,1.152 1.342,0.997 2.013,0.997 c 0.622,0 1.113,0.138 1.472,0.413 0.36,0.276 0.539,0.623 0.539,1.042 0,0.432 -0.191,0.752 -0.575,0.962 C 3.066,3.623 2.474,3.83 1.671,4.033 0.94,4.226 0.344,4.42 -0.117,4.617 c -0.461,0.198 -0.857,0.491 -1.186,0.881 -0.329,0.389 -0.494,0.901 -0.494,1.536 0,0.503 0.15,0.964 0.449,1.384 0.3,0.419 0.725,0.751 1.276,0.997 0.551,0.245 1.179,0.368 1.886,0.368 1.09,0 1.971,-0.275 2.642,-0.826 C 5.127,8.405 5.486,7.651 5.534,6.692 H 3.898 C 3.863,7.208 3.656,7.621 3.279,7.933 2.901,8.244 2.396,8.399 1.761,8.399 1.174,8.399 0.707,8.274 0.359,8.022 0.012,7.771 -0.162,7.441 -0.162,7.034 c 0,-0.323 0.105,-0.59 0.314,-0.8 C 0.362,6.025 0.626,5.857 0.943,5.731 1.261,5.605 1.701,5.465 2.264,5.31 2.971,5.117 3.546,4.929 3.988,4.743 4.432,4.558 4.812,4.279 5.13,3.908 5.447,3.536 5.611,3.052 5.624,2.452 5.624,1.913 5.474,1.429 5.175,0.997 4.875,0.566 4.453,0.228 3.908,-0.018 3.362,-0.264 2.737,-0.387 2.03,-0.387 1.275,-0.387 0.599,-0.258 0,0"
               style="fill:#76c14e;fill-opacity:1;fill-rule:nonzero;stroke:none"
               id="path651" />
          </g>
          <g
             id="g653"
             transform="translate(277.0139,72.8959)">
            <path
               d="m 0,0 c -1.991,1.992 -5.065,2.241 -7.328,0.747 -0.559,-0.369 -1.27,-0.369 -1.828,0 -2.263,1.494 -5.337,1.245 -7.329,-0.747 -2.276,-2.276 -2.276,-5.967 0,-8.242 l 0.051,-0.049 -10e-4,-0.002 7.106,-7.105 c 0.628,-0.628 1.645,-0.628 2.273,0 L 0.051,-8.293 0,-8.242 C 2.276,-5.967 2.276,-2.276 0,0"
               style="fill:#ee312e;fill-opacity:1;fill-rule:nonzero;stroke:none"
               id="path655" />
          </g>
        </g>
      </g>
    </g>
  </g>
</svg>
